<?xml version="1.0" standalone="no"?>
<!DOCTYPE svg PUBLIC "-//W3C//DTD SVG 1.1//EN" "http://www.w3.org/Graphics/SVG/1.1/DTD/svg11.dtd" >
<svg xmlns="http://www.w3.org/2000/svg">
<metadata>Generated by IcoMoon</metadata>
<defs>
<font id="icomoon" horiz-adv-x="1024">
<font-face units-per-em="1024" ascent="960" descent="-64" />
<missing-glyph horiz-adv-x="1024" />
<glyph unicode="&#x20;" horiz-adv-x="512" d="" />
<glyph unicode="&#xe900;" glyph-name="apus-pricing-table-1" d="M1013.625 654.641l-344 188.891c-5.992 3.289-13.258 3.289-19.25 0l-129.359-71.031c-2.922-0.813-5.648-2.305-7.961-4.367l-206.68-113.492c-6.398-3.516-10.375-10.234-10.375-17.531v-40.891h-230.75c-11.047 0-20-8.961-20-20 0-11.047 8.953-20 20-20h230.75v-72h-114.664c-11.047 0-20-8.961-20-20 0-11.047 8.953-20 20-20h114.664v-104h-168c-11.047 0-20-8.961-20-20 0-11.047 8.953-20 20-20h168v-40.898c0-7.297 3.977-14.016 10.375-17.531l344-188.891c3-1.648 6.313-2.469 9.625-2.469s6.625 0.82 9.625 2.469l344 188.891c6.398 3.516 10.375 10.234 10.375 17.531v89.563c0 11.039-8.953 20-20 20s-20-8.961-20-20v-77.727l-304-166.93v332.156l96.68 53.086v-84.25c0-7.078 3.734-13.625 9.82-17.219 3.133-1.852 6.656-2.781 10.18-2.781 3.313 0 6.633 0.82 9.641 2.477l73.719 40.57c6.383 3.516 10.352 10.227 10.352 17.523v106.117l93.609 51.398v-94.422c0-11.047 8.953-20 20-20s20 8.953 20 20v128.227c0 7.297-3.977 14.016-10.375 17.531zM640 104.227l-304 166.93v332.148l304-166.922zM660 471.031l-302.445 166.078 95.055 52.195 302.453-166.078zM796.617 546.047l-302.453 166.078 32.789 18 302.445-166.078zM850.391 457.609l-33.711-18.555v72.375l33.711 18.516zM870.953 586.867l-302.445 166.078 91.492 50.234 302.445-166.070zM1004 448.875c-5.258 0-10.422-2.117-14.141-5.859-3.719-3.719-5.859-8.859-5.859-14.141 0-5.258 2.141-10.422 5.859-14.141s8.883-5.859 14.141-5.859 10.422 2.141 14.141 5.859c3.719 3.719 5.859 8.883 5.859 14.141 0 5.281-2.141 10.422-5.859 14.141-3.719 3.742-8.883 5.859-14.141 5.859zM48.664 340.219h-28.664c-11.047 0-20-8.961-20-20 0-11.047 8.953-20 20-20h28.664c11.047 0 20 8.953 20 20 0 11.039-8.953 20-20 20zM121.344 464.219c0 5.258-2.141 10.414-5.867 14.133-3.719 3.727-8.875 5.867-14.133 5.867-5.266 0-10.422-2.141-14.141-5.867-3.742-3.719-5.859-8.875-5.859-14.133 0-5.266 2.117-10.422 5.859-14.141 3.719-3.719 8.875-5.859 14.141-5.859 5.258 0 10.414 2.133 14.133 5.859 3.727 3.719 5.867 8.875 5.867 14.141z" />
<glyph unicode="&#xe901;" glyph-name="apus-pricing-table-2" d="M1013.625 738.539l-398.813 218.992c-5.992 3.289-13.258 3.289-19.25 0l-150.32-82.539c-3.172-0.836-6.133-2.43-8.586-4.719l-239.899-131.734c-6.398-3.508-10.375-10.227-10.375-17.531v-264.859c-40.469-12.656-77.555-34.977-108.391-65.82-80.375-80.367-100.867-202.945-50.992-305.016 4.844-9.922 16.82-14.039 26.742-9.188 9.93 4.852 14.039 16.828 9.195 26.75-42.375 86.727-24.961 190.875 43.336 259.172 42.711 42.711 99.492 66.234 159.891 66.234s117.18-23.523 159.891-66.234c42.703-42.703 66.227-99.484 66.227-159.883s-23.523-117.18-66.234-159.891c-68.297-68.297-172.445-85.711-259.172-43.336-9.922 4.852-21.898 0.734-26.742-9.188-4.852-9.93-0.742-21.906 9.188-26.75 37.18-18.172 77.070-27 116.672-27 69.086 0.008 137.25 26.898 188.344 77.992 23.43 23.43 41.945 50.461 55.047 79.844l86.18-47.32c3-1.648 6.313-2.469 9.625-2.469s6.633 0.82 9.625 2.469l398.813 218.984c6.398 3.516 10.375 10.234 10.375 17.531v138.992c0 11.047-8.953 20-20 20s-20-8.953-20-20v-127.156l-358.75-196.992v392.344l118.398 65.016v-103.063c0-7.078 3.734-13.625 9.82-17.219 3.141-1.852 6.656-2.781 10.18-2.781 3.313 0 6.633 0.82 9.641 2.477l85.461 47.039c6.391 3.516 10.352 10.227 10.352 17.516v124.922l114.898 63.086v-105.195c0-11.047 8.953-20 20-20s20 8.953 20 20v138.992c0 7.297-3.977 14.023-10.375 17.531zM605.188 917.188l357.258-196.18-112.695-61.883-357.258 196.18zM605.188 524.836l-357.258 196.172 116.828 64.156 357.266-196.172zM763.571 611.805l-357.258 196.172 44.625 24.508 357.266-196.172zM454.336 390.328c-50.266 50.266-117.094 77.945-188.172 77.945-13.445 0-26.727-0.992-39.781-2.938v221.875l358.875-197.063v-392.344l-62.289 34.203c6.133 22.578 9.305 46.125 9.305 70.156 0 71.078-27.68 137.906-77.938 188.164zM829.11 511.023l-45.461-25.023v91.195l45.461 24.961zM1004 522.117c-5.258 0-10.422-2.141-14.141-5.859s-5.859-8.875-5.859-14.141c0-5.258 2.141-10.414 5.859-14.133 3.719-3.727 8.883-5.859 14.141-5.859s10.422 2.133 14.141 5.859c3.719 3.719 5.859 8.875 5.859 14.133 0 5.266-2.141 10.422-5.859 14.141s-8.883 5.859-14.141 5.859zM198.914 182.164c5.117 0 10.242 1.953 14.141 5.852 7.813 7.813 7.813 20.477 0 28.289l-13.852 13.859h118.203c28.672 0 52-23.328 52-52s-23.328-52-52-52h-70.039c-11.047 0-20-8.953-20-20 0-11.039 8.953-19.992 20-19.992h70.039c50.727 0 92 41.266 92 91.992s-41.273 91.992-92 91.992h-118.203l13.852 13.859c7.813 7.813 7.813 20.477 0 28.289-7.805 7.805-20.469 7.805-28.281 0l-48-48c-7.805-7.813-7.805-20.477 0-28.289l48-47.992c3.906-3.906 9.023-5.859 14.141-5.859zM92.148 8.101c-5.688 0-11.336 2.422-15.281 7.117l-0.039 0.047c-7.109 8.453-6.016 21.063 2.438 28.172 8.453 7.117 21.070 6.023 28.18-2.43 7.102-8.461 6.031-21.094-2.422-28.203-3.758-3.156-8.328-4.703-12.875-4.703z" />
<glyph unicode="&#xe902;" glyph-name="apus-shopping-basket" d="M802.134 669.866h-85.334v85.334c0 112.93-91.87 204.8-204.8 204.8s-204.8-91.87-204.8-204.8v-85.334h-85.334c-9.42 0-17.066-7.646-17.066-17.066v-699.734c0-9.42 7.646-17.066 17.066-17.066h580.266c9.42 0 17.066 7.646 17.066 17.066v699.734c0.002 9.42-7.644 17.066-17.064 17.066zM341.334 755.2c0 94.106 76.562 170.666 170.666 170.666s170.666-76.562 170.666-170.666v-85.334h-341.332v85.334zM785.066-29.866h-546.132v665.6h68.266v-51.2c0-9.42 7.646-17.066 17.066-17.066s17.066 7.646 17.066 17.066v51.2h341.334v-51.2c0-9.42 7.646-17.066 17.066-17.066s17.066 7.646 17.066 17.066v51.2h68.266v-665.6z" />
<glyph unicode="&#xe903;" glyph-name="apus-close" d="M568.571 447.997l443.713 443.715c15.622 15.622 15.622 40.95 0 56.57s-40.95 15.622-56.57 0l-443.715-443.715-443.713 443.715c-15.622 15.622-40.95 15.622-56.57 0s-15.622-40.95 0-56.57l443.713-443.713-443.713-443.715c-15.622-15.622-15.622-40.95 0-56.57 7.81-7.81 18.048-11.714 28.286-11.714s20.474 3.904 28.286 11.714l443.711 443.713 443.713-443.713c7.81-7.81 18.048-11.714 28.286-11.714s20.474 3.904 28.286 11.714c15.622 15.622 15.622 40.95 0 56.57l-443.713 443.713z" />
<glyph unicode="&#xe904;" glyph-name="apus-download" d="M935.88 714.783l-423.831-423.933-423.831 423.984c-20.207 20.207-52.894 20.207-73.101 0-20.156-20.207-20.156-52.945 0-73.152l460.358-460.511c20.156-20.207 52.894-20.207 73.050 0l460.358 460.507c20.156 20.207 20.156 52.996 0 73.203-20.105 20.109-52.848 20.109-73.003-0.098z" />
<glyph unicode="&#xe905;" glyph-name="apus-left-quote" d="M327.742 488.033c-25.221 7.261-50.442 10.945-74.975 10.945-37.885 0-69.497-8.658-94.009-19.259 23.631 86.511 80.399 235.785 193.485 252.595 10.473 1.558 19.055 9.13 21.912 19.324l24.716 88.402c2.084 7.476 0.849 15.478-3.416 21.966s-11.117 10.817-18.797 11.869c-8.346 1.139-16.853 1.719-25.285 1.719-135.739 0-270.168-141.679-326.893-344.541-33.298-119.015-43.062-297.945 38.959-410.569 45.898-63.020 112.86-96.673 199.028-100.035 0.354-0.011 0.698-0.021 1.053-0.021 106.318 0 200.596 71.602 229.275 174.107 17.133 61.28 9.388 125.546-21.827 181.003-30.882 54.835-81.742 94.804-143.226 112.495zM993.269 375.528c-30.882 54.846-81.742 94.814-143.226 112.506-25.221 7.261-50.442 10.945-74.964 10.945-37.885 0-69.508-8.658-94.020-19.259 23.631 86.511 80.399 235.785 193.496 252.595 10.473 1.558 19.045 9.13 21.912 19.324l24.716 88.402c2.084 7.476 0.849 15.478-3.416 21.966-4.254 6.488-11.107 10.817-18.797 11.869-8.335 1.139-16.843 1.719-25.285 1.719-135.739 0-270.168-141.679-326.904-344.541-33.288-119.015-43.052-297.945 38.981-410.59 45.887-63.009 112.86-96.673 199.017-100.024 0.354-0.011 0.698-0.021 1.063-0.021 106.308 0 200.596 71.602 229.275 174.107 17.111 61.28 9.356 125.556-21.848 181.003z" />
<glyph unicode="&#xe906;" glyph-name="apus-left-quote-control" d="M955.252 498.138c-42.916 43.702-99.808 69.002-160.75 71.624-0.288 3.808-0.502 9.056-0.502 16.238 0 29.424 22.376 119.33 36.482 169.088l14.434 50.912h-175.168l-11.734-18.906c-4.654-7.5-114.014-186.798-114.014-457.094 0-132.336 107.664-240 240-240s240 107.664 240 240c0 63.282-24.416 122.994-68.748 168.138zM784 170c-88.224 0-160 71.776-160 160 0 198.64 65.672 345.668 91.624 396h24.258c-11.494-45.168-25.882-108.082-25.882-140 0-25.328 1.88-45.676 11.062-62.66 8.178-15.128 25.282-33.146 60.366-33.338l1.746-0.044c86.474-1.676 156.826-73.432 156.826-159.958 0-88.224-71.776-160-160-160zM411.252 498.138c-42.916 43.702-99.808 69.002-160.75 71.624-0.288 3.808-0.502 9.056-0.502 16.238 0 29.424 22.376 119.33 36.482 169.088l14.434 50.912h-175.168l-11.734-18.906c-4.654-7.5-114.014-186.798-114.014-457.094 0-132.336 107.664-240 240-240s240 107.664 240 240c0 63.282-24.416 122.994-68.748 168.138zM240 170c-88.224 0-160 71.776-160 160 0 198.64 65.672 345.668 91.624 396h24.258c-11.494-45.168-25.882-108.082-25.882-140 0-25.328 1.88-45.676 11.062-62.66 8.178-15.128 25.282-33.146 60.366-33.338l1.746-0.044c86.474-1.676 156.826-73.432 156.826-159.958 0-88.224-71.776-160-160-160z" />
<glyph unicode="&#xe907;" glyph-name="apus-magnifiying-glass" d="M1012.338 3.963l-249.906 249.901c62.118 74.699 99.542 170.621 99.542 275.137 0 237.654-193.34 431-430.984 431-237.649 0-430.989-193.346-430.989-431 0-237.638 193.34-430.968 430.989-430.968 104.511 0 200.438 37.418 275.137 99.537l249.911-249.906c7.771-7.777 17.963-11.662 28.15-11.662s20.379 3.886 28.155 11.662c15.548 15.548 15.548 40.752-0.005 56.3zM79.625 529c0 193.749 157.621 351.375 351.364 351.375 193.738 0 351.354-157.626 351.354-351.375 0-193.733-157.615-351.343-351.354-351.343-193.744 0-351.364 157.61-351.364 351.343z" />
<glyph unicode="&#xe908;" glyph-name="apus-menu" d="M981.333 406.219h-938.667c-23.552 0-42.667 19.115-42.667 42.667s19.115 42.667 42.667 42.667h938.667c23.552 0 42.667-19.115 42.667-42.667s-19.115-42.667-42.667-42.667zM981.333 733.333h-938.667c-23.552 0-42.667 19.115-42.667 42.667s19.115 42.667 42.667 42.667h938.667c23.552 0 42.667-19.115 42.667-42.667s-19.115-42.667-42.667-42.667zM981.333 79.115h-938.667c-23.552 0-42.667 19.115-42.667 42.667s19.115 42.667 42.667 42.667h938.667c23.552 0 42.667-19.115 42.667-42.667s-19.115-42.667-42.667-42.667z" />
<glyph unicode="&#xe909;" glyph-name="apus-move" d="M631.468 584.547h-238.937c-9.422 0-17.068-7.646-17.068-17.068v-238.939c0-9.422 7.646-17.068 17.068-17.068h238.939c9.422 0 17.068 7.646 17.068 17.068v238.941c-0.002 9.42-7.648 17.066-17.070 17.066zM609.4 869.686l-85.334 85.334c-1.57 1.57-3.464 2.816-5.546 3.686-4.182 1.724-8.874 1.724-13.056 0-2.1-0.87-3.976-2.116-5.546-3.686l-85.336-85.334c-6.674-6.674-6.674-17.46 0-24.132 6.674-6.674 17.494-6.674 24.15 0l56.202 56.202v-231.873c0-9.42 7.646-17.066 17.066-17.066s17.066 7.646 17.066 17.066v231.871l56.202-56.202c3.328-3.328 7.698-5 12.066-5s8.738 1.672 12.066 5c6.674 6.674 6.674 17.46 0 24.134zM609.4 50.468c-6.656 6.674-17.476 6.674-24.132 0l-56.202-56.202v231.873c0 9.42-7.646 17.066-17.066 17.066s-17.066-7.646-17.066-17.066v-231.873l-56.202 56.202c-6.656 6.674-17.476 6.674-24.132 0-6.674-6.674-6.674-17.46 0-24.132l85.334-85.334c1.57-1.57 3.464-2.816 5.546-3.686s4.3-1.314 6.52-1.314c2.218 0 4.438 0.46 6.52 1.314 2.082 0.87 3.976 2.116 5.546 3.686l85.334 85.334c6.674 6.672 6.674 17.46 0 24.132zM1022.696 454.53c-0.87 2.082-2.116 3.976-3.686 5.546l-85.334 85.334c-6.656 6.674-17.476 6.674-24.132 0-6.674-6.674-6.674-17.46 0-24.132l56.184-56.202h-231.857c-9.42 0-17.066-7.646-17.066-17.066 0-9.422 7.646-17.068 17.066-17.068h231.855l-56.184-56.202c-6.674-6.674-6.674-17.46 0-24.132 3.328-3.328 7.698-5 12.066-5s8.738 1.672 12.066 5l85.334 85.334c1.57 1.57 2.816 3.448 3.686 5.546 1.726 4.184 1.726 8.878 0.002 13.042zM290.129 465.078h-231.873l56.202 56.202c6.674 6.674 6.674 17.46 0 24.132-6.656 6.674-17.476 6.674-24.132 0l-85.336-85.334c-1.57-1.57-2.816-3.464-3.686-5.546-1.724-4.182-1.724-8.874 0-13.040 0.87-2.082 2.116-3.976 3.686-5.546l85.334-85.334c3.328-3.328 7.698-5 12.066-5s8.738 1.672 12.066 5c6.674 6.674 6.674 17.46 0 24.132l-56.202 56.202h231.873c9.422 0 17.068 7.646 17.068 17.068 0 9.418-7.646 17.064-17.066 17.064z" />
<glyph unicode="&#xe90a;" glyph-name="apus-next" d="M505.78 960c-250.466 0-462.87-185.63-505.56-424h432v150c0 11.542 6.622 22.032 16.992 27.042 10.342 5.040 22.734 3.632 31.756-3.604l300-240c7.12-5.712 11.252-14.326 11.252-23.438s-4.13-17.724-11.252-23.438l-300-240c-5.418-4.336-12.070-6.562-18.748-6.562-4.424 0-8.848 0.966-13.008 2.958-10.372 5.010-16.992 15.498-16.992 27.042v150h-432c42.69-238.37 255.094-420 505.56-420 281.22 0 518 228.78 518 510s-236.78 514-518 514z" />
<glyph unicode="&#xe90b;" glyph-name="apus-next-control" d="M876.159 807.885c-96.156 97.274-224.406 151.289-361.136 152.089-281.617 1.12-513.351-226.646-515.015-508.903-1.632-282.323 226.644-513.351 508.967-515.047 1.024 0 2.016 0 3.040 0 280.915 0 510.311 227.7 511.975 508.999 0.8 136.728-51.709 265.585-147.831 362.862zM511.983-0.011c-0.864 0-1.792 0-2.656 0-246.996 1.504-446.794 203.67-445.322 450.698 1.44 246.1 202.166 445.29 447.946 445.29 0.896 0 1.824 0 2.688 0 119.642-0.704 231.86-47.965 315.984-133.082s130.042-197.879 129.338-317.52c-1.44-246.134-202.132-445.386-447.978-445.386zM726.725 469.373l-190.871 193.111-45.501-44.989 168.375-170.359-170.359-168.375 44.989-45.533 193.111 190.871c12.576 12.414 12.672 32.667 0.256 45.275zM534.735 470.493l-190.871 193.143-45.501-44.989 168.375-170.359-170.359-168.343 44.989-45.533 193.111 190.839c6.048 5.952 9.44 14.080 9.504 22.56 0.064 8.476-3.296 16.636-9.248 22.684z" />
<glyph unicode="&#xe90c;" glyph-name="apus-right-arrow" d="M527.185 463.291l-490.576 490.576c-8.318 8.105-21.97 7.893-30.074-0.64-7.893-8.318-7.893-21.33 0-29.649l475.433-475.433-475.433-475.431c-8.532-8.105-8.744-21.756-0.426-30.074s21.756-8.744 30.074-0.426c0.214 0.214 0.426 0.426 0.426 0.426l490.576 490.576c8.318 8.318 8.318 21.756 0 30.074zM1017.761 463.291l-490.576 490.576c-8.532 8.105-21.97 7.893-30.074-0.426-7.893-8.318-7.893-21.33 0-29.649l475.433-475.433-475.433-475.647c-8.532-8.105-8.744-21.756-0.426-30.074s21.756-8.744 30.074-0.426c0.214 0.214 0.426 0.426 0.426 0.426l490.576 490.578c8.32 8.318 8.32 21.756 0 30.074z" />
<glyph unicode="&#xe90d;" glyph-name="apus-right-quotation-sign" d="M1002.562 528.938c-54.387 194.503-188.556 335.697-318.974 335.697-10.475 0-20.94-0.912-31.136-2.715-5.782-1.015-10.838-4.414-13.967-9.346-3.119-4.963-3.999-10.993-2.414-16.63l26.846-96.029c2.59-9.273 11.532-15.542 20.826-15.117l2.134 0.041c48.367 0 136.759-72.488 181.821-233.596 1.782-6.393 3.471-12.931 5.098-19.749-50.584 25.033-110.928 30.825-165.574 15.604-123.279-34.493-195.498-162.828-161.036-286.087 27.934-99.873 119.808-169.646 223.421-169.646 21.106 0 42.181 2.912 62.645 8.641 81.295 22.722 142.416 90.216 172.112 190.006 26.805 90.030 26.131 198.979-1.803 298.924zM145.97 864.614c-10.455 0-20.93-0.891-31.115-2.694-5.771-0.995-10.838-4.414-13.957-9.346-3.119-4.963-3.999-10.993-2.425-16.63l26.857-96.029c2.59-9.273 11.366-15.542 20.826-15.117l2.114 0.041c48.367 0 136.77-72.488 181.831-233.596 1.793-6.434 3.481-12.972 5.098-19.749-50.605 25.033-110.928 30.825-165.574 15.604-123.258-34.493-195.498-162.828-161.015-286.087 27.934-99.873 119.808-169.646 223.421-169.646 21.106 0 42.181 2.912 62.655 8.641 81.285 22.722 142.406 90.216 172.112 190.006 26.794 90.030 26.131 198.989-1.813 298.945-54.418 194.482-188.566 335.655-319.015 335.655z" />
<glyph unicode="&#xe90e;" glyph-name="apus-right-quote" d="M240 806c-132.336 0-240-107.664-240-240 0-63.282 24.416-122.994 68.748-168.138 42.916-43.702 99.808-69.002 160.75-71.624 0.288-3.808 0.502-9.056 0.502-16.238 0-29.424-22.376-119.33-36.482-169.088l-14.434-50.912h175.168l11.734 18.906c4.654 7.5 114.014 186.798 114.014 457.094 0 132.336-107.664 240-240 240zM308.378 170h-24.26c11.494 45.168 25.882 108.082 25.882 140 0 25.328-1.88 45.676-11.062 62.66-8.178 15.128-25.282 33.146-60.366 33.338l-1.746 0.044c-86.474 1.676-156.826 73.432-156.826 159.958 0 88.224 71.776 160 160 160s160-71.776 160-160c0-198.64-65.672-345.668-91.622-396zM784 806c-132.336 0-240-107.664-240-240 0-63.282 24.416-122.994 68.748-168.138 42.916-43.702 99.808-69.002 160.75-71.624 0.288-3.808 0.502-9.056 0.502-16.238 0-29.424-22.376-119.33-36.482-169.088l-14.434-50.912h175.168l11.734 18.906c4.654 7.5 114.014 186.798 114.014 457.094 0 132.336-107.664 240-240 240zM852.378 170h-24.26c11.494 45.168 25.882 108.082 25.882 140 0 25.328-1.88 45.676-11.062 62.66-8.178 15.128-25.282 33.146-60.366 33.338l-1.746 0.044c-86.474 1.676-156.826 73.432-156.826 159.958 0 88.224 71.776 160 160 160s160-71.776 160-160c0-198.64-65.672-345.668-91.622-396z" />
<glyph unicode="&#xe90f;" glyph-name="apus-shopping-cart" d="M961.4 938h-147.6c-17 0-32.2-10.6-38.2-26.4l-201.4-533.6h-390.4l-70.4 324.4h392c22.6 0 40.8 18.2 40.8 40.8s-18.2 40.8-40.8 40.8h-442.6c-40 0-42.6-37.4-40-49.4l88-406.2c4-18.8 20.6-32.2 40-32.2h451.4c17 0 32.2 10.6 38.2 26.4l201.6 533.8h119.4c22.6 0 40.8 18.2 40.8 40.8s-18.4 40.8-40.8 40.8zM212.8 230.8c-75.4 0-136.8-61.2-136.8-136.4s61.4-136.4 136.8-136.4c75.4 0 136.8 61.2 136.8 136.4s-61.4 136.4-136.8 136.4zM212.8 39.6c-30.4 0-55.2 24.6-55.2 54.6 0 30.2 24.8 54.6 55.2 54.6s55-24.6 55-54.6c0-30-24.6-54.6-55-54.6zM537 230.8c-75.4 0-136.8-61.2-136.8-136.4s61.4-136.4 136.8-136.4c75.4 0 136.8 61.2 136.8 136.4s-61.4 136.4-136.8 136.4zM537 39.6c-30.4 0-55.2 24.6-55.2 54.6 0 30.2 24.8 54.6 55.2 54.6s55-24.6 55-54.6c0-30-24.6-54.6-55-54.6z" />
<glyph unicode="&#xe910;" glyph-name="apus-supermarket" d="M810.779 234.772c-70.404 0-127.681-57.278-127.681-127.681s57.278-127.681 127.681-127.681 127.681 57.278 127.681 127.681-57.278 127.681-127.681 127.681zM810.779 56.019c-28.166 0-51.072 22.906-51.072 51.072s22.906 51.072 51.072 51.072c28.166 0 51.072-22.906 51.072-51.072s-22.906-51.072-51.072-51.072zM1015.86 728.249c-7.252 9.282-18.374 14.696-30.158 14.696h-749.26l-34.474 144.241c-4.124 17.236-19.536 29.404-37.258 29.404h-126.405c-21.156 0.002-38.304-17.146-38.304-38.302s17.148-38.304 38.304-38.304h96.171l124.489-520.889c4.124-17.25 19.536-29.404 37.258-29.404h596.273c17.608 0 32.954 12.002 37.18 29.086l93.209 376.66c2.82 11.438 0.228 23.53-7.024 32.812zM862.527 366.297h-536.071l-71.706 300.040h682.010l-74.232-300.040zM347.294 234.772c-70.404 0-127.681-57.278-127.681-127.681s57.278-127.681 127.681-127.681 127.681 57.278 127.681 127.681-57.278 127.681-127.681 127.681zM347.294 56.019c-28.166 0-51.072 22.906-51.072 51.072s22.906 51.072 51.072 51.072 51.072-22.906 51.072-51.072-22.906-51.072-51.072-51.072z" />
<glyph unicode="&#xe911;" glyph-name="apus-user" d="M512 960c-142.034 0-257.578-115.544-257.578-257.578s115.544-257.578 257.578-257.578 257.578 115.544 257.578 257.578-115.544 257.578-257.578 257.578zM512 520.602c-100.254 0-181.82 81.566-181.82 181.82s81.566 181.82 181.82 181.82 181.82-81.566 181.82-181.82c0-100.254-81.566-181.82-181.82-181.82zM512 353.934c-226.568 0-404.044-183.574-404.044-417.934h75.758c0 195.078 141.138 342.176 328.286 342.176s328.286-147.11 328.286-342.176h75.758c0 234.358-177.476 417.934-404.044 417.934z" />
<glyph unicode="&#xe912;" glyph-name="hours" d="M870.4 704c-57.6-57.6-115.2-153.6-134.4-211.2 57.6-76.8 153.6-115.2 0-268.8s-192-57.754-268.8 0c-57.6-19.2-153.6-76.954-211.2-134.4 0-57.6 76.8-153.6 192-153.6 96 0 268.8 38.4 403.2 172.8s172.8 307.2 172.8 403.2c0 115.2-96 192-153.6 192zM824.046 135.954c-107.058-107.044-255.692-161.554-376.046-161.554-48.008 1.928-93.748 21.64-126.43 57.618-10.224 11.246-15.94 25.874-23.91 38.826l-0.75 4.318c46.694 44.34 103.202 74.888 160.034 103.748l3.208 1.228 10.12-8.892c2.748-2.492 13.226-12.084 11.964-10.922 4.984-4.556 8.738-7.918 12.476-11.196 81.442-71.288 155.222-65.536 268.442 47.718 113.22 113.204 118.938 186.948 47.65 268.442-3.242 3.704-6.588 7.424-11.094 12.39 1.092-1.212-8.38 9.13-10.82 11.862l-9.046 10.292 1.262 3.276c23.654 56.628 60.262 105.062 97.416 153.174l6.298 6.792 4.334-0.75c12.936-7.97 27.58-13.67 38.826-23.91 31.232-28.364 43.332-56.388 54.648-96.478 2.73-9.66 1.98-19.968 2.97-29.952 0.002-120.338-54.508-268.972-161.552-376.030zM406.494 419.532c-4.556 4.556-10.582 6.946-17.442 6.946h-133.428c2.406 10.548 6.348 19.558 11.792 26.898 9.37 13.004 27.682 28.006 54.972 45.022l7.492 5.256c27.478 17.426 45.294 31.044 54.408 41.608 15.104 17.306 22.75 39.782 22.75 66.834 0 25.174-8.482 46.728-25.208 64.102-18.706 19.302-43.606 29.098-74 29.098-30.704 0-55.62-9.83-74.104-29.202-16.402-17.322-24.696-38.844-24.696-64v-10.394c0-9.728 3.754-15.906 7.356-19.848 9.608-9.608 26.556-9.182 35.242-0.426 5.342 4.846 8.192 11.452 8.192 19.080v11.606c0 12.732 3.822 22.92 11.742 31.284 8.756 9.37 20.616 13.926 36.25 13.926 15.702 0 27.7-4.608 36.728-14.028 7.85-8.244 11.674-18.45 11.674-31.18 0-16.402-4.846-29.85-14.626-40.926-8.414-9.216-25.668-21.93-51.114-37.734-29.576-17.75-51.678-37.496-65.672-58.676-15.804-23.672-23.654-51.832-23.348-83.626l0.12-12.68h187.478c7.116 0 13.33 2.73 17.494 7.406 4.522 4.574 6.894 10.308 6.894 16.606 0 6.552-2.372 12.424-6.946 17.048zM656.896 490.36c-4.556 4.556-10.444 6.946-17.050 6.946h-26.402v181.572c0 15.224-8.824 25.328-24.73 26.402-8.072 0-19.558-2.868-28.398-16.606l-124.432-190.482c-6.144-9.608-8.226-19.302-6.042-29.218 3.020-12.084 12.442-19.302 25.224-19.302h107.998v-52.804c-0.016-9.676 4.266-15.514 7.834-18.722 4.728-4.25 10.718-6.468 17.356-6.468 6.348 0 12.22 2.218 16.998 6.502 5.342 4.88 8.192 11.332 8.192 18.706v52.804h25.208c9.318 0 15.122 4.266 17.902 7.406 4.522 4.574 6.894 10.308 6.894 16.606 0.002 5.956-2.046 11.47-6.552 16.658zM563.046 497.272h-68.846l68.848 106.308v-106.308zM435.2 960c-240.35 0-435.2-194.85-435.2-435.2 0-167.766 95.062-313.106 234.138-385.74 13.482 12.374 27.818 24.524 43.128 36.13-133.104 60.364-226.066 194.2-226.066 349.61 0 211.73 172.27 384 384 384 155.392 0 289.212-92.946 349.594-226.014 11.606 15.308 23.756 29.644 36.13 43.11-72.636 139.042-217.976 234.104-385.724 234.104z" />
<glyph unicode="&#xe913;" glyph-name="hours-1" d="M902.132 812.056c-81.756 89.568-193.5 141.938-314.644 147.46-121.144 5.528-237.192-36.46-326.76-118.216-55.794-50.932-98.014-115.014-122.67-185.89-17.112-1.342-33.836-8.488-46.87-21.466l-19.030-18.7c-67.12-67.208-87.33-167.468-51.492-255.416 37.396-91.908 91.93-174.084 162.092-244.246 70.162-70.16 152.336-124.694 244.238-162.086 28.888-11.772 59.094-17.498 89.032-17.496 61.222 0.002 121.302 23.95 166.526 69.116l18.452 18.892c15.286 15.236 22.584 35.488 21.918 55.526 55.466 20.26 105.874 50.872 149.966 91.118 89.568 81.756 141.938 193.5 147.46 314.646 5.522 121.144-36.46 237.188-118.218 326.758zM989.274 486.714c-5.144-112.846-53.926-216.932-137.356-293.088-40.244-36.73-86.128-64.828-136.538-83.694-3.518 7.204-8.24 13.966-14.208 19.954-4.226 4.236-8.956 7.962-14.19 11.15l-117.87 70.214c-32.124 19.078-72.992 13.934-99.446-12.564l-26.758-27.090c-2.184-2.218-5.57-2.868-8.418-1.62-7.858 3.456-17.040-0.132-20.49-7.998s0.13-17.040 7.998-20.49c14.586-6.396 31.902-3.070 43.060 8.264l26.68 27.012c16.332 16.36 41.618 19.538 61.472 7.748l117.718-70.124c2.982-1.816 5.748-3.996 8.216-6.472 17.034-17.088 16.99-44.848-0.246-62.028l-18.462-18.902c-58.33-58.26-145.356-75.8-221.71-44.684-88.040 35.822-166.76 88.062-233.972 155.274-67.21 67.208-119.452 145.93-155.278 233.978-31.11 76.346-13.568 163.37 44.586 221.602l19 18.67c9.032 8.99 21.062 13.174 32.936 12.63 1.198-0.25 2.398-0.336 3.582-0.304 9.31-1.19 18.33-5.306 25.502-12.444 2.472-2.408 4.664-5.104 6.522-8.018l70.078-117.42c11.8-19.872 8.62-45.158-7.728-61.476l-27.206-27.102c-11.066-11.302-14.112-28.552-7.604-42.96 32.858-75.106 86.676-138.226 155.638-182.53 7.224-4.644 16.846-2.552 21.492 4.678 4.644 7.226 2.55 16.85-4.678 21.492-63.814 41-113.606 99.414-143.992 168.924-0.032 0.074-0.064 0.148-0.1 0.22-1.286 2.822-0.692 6.204 1.336 8.278l27.082 26.974c26.442 26.396 31.586 67.268 12.492 99.418l-70.204 117.63c-0.066 0.112-0.136 0.222-0.204 0.332-3.18 5.034-6.95 9.69-11.092 13.724-7.988 7.954-17.356 13.714-27.336 17.312 23.224 63.616 61.724 121.132 112.126 167.142 172.224 157.208 440.246 144.988 597.452-27.244 76.156-83.43 115.264-191.524 110.118-304.368zM827.37 743.814c-63.354 69.408-149.948 109.992-243.828 114.272-93.86 4.292-183.802-28.252-253.214-91.61-39.608-36.152-69.712-79.552-89.476-128.998-3.19-7.978 0.692-17.028 8.668-20.216 7.976-3.19 17.030 0.692 20.216 8.668 18.010 45.052 45.452 84.61 81.566 117.572 63.27 57.754 145.242 87.432 230.826 83.51 85.578-3.9 164.514-40.896 222.27-104.17 57.754-63.27 87.41-145.246 83.51-230.824-3.902-85.578-40.898-164.514-104.17-222.27-31.092-28.378-66.716-50.032-105.89-64.36-8.068-2.95-12.216-11.884-9.266-19.95 2.306-6.304 8.264-10.216 14.61-10.216 1.774 0 3.578 0.306 5.34 0.95 42.994 15.726 82.082 39.48 116.178 70.602 69.408 63.354 109.992 149.948 114.27 243.826s-28.254 183.806-91.61 253.214zM548.71 417.872c-2.366 3.044-5.13 4.562-8.282 4.562h-99.394v12.822c0 6.972 3.77 14.174 11.326 21.598 7.548 7.424 16.676 14.792 27.384 22.104 10.702 7.312 21.408 15.072 32.116 23.286 10.704 8.206 19.83 18.218 27.384 30.030 7.548 11.812 11.326 24.462 11.326 37.964 0 19.914-7.046 36.146-21.13 48.708-14.090 12.562-31.162 18.842-51.22 18.842-18.932 0-35.216-5.578-48.85-16.734-13.64-11.156-20.454-25.526-20.454-43.104 0-13.302 5.41-19.946 16.228-19.946 5.63 0 10.194 1.342 13.692 4.024 3.492 2.686 5.24 5.822 5.24 9.406 0 10.96 3.154 19.238 9.466 24.832 6.308 5.596 14.538 8.394 24.68 8.394 11.944 0 21.014-3.544 27.214-10.628 6.198-7.088 9.298-15.356 9.298-24.8 0-9.45-3.778-18.902-11.324-28.344-7.554-9.452-16.734-18.114-27.554-25.986l-32.456-23.626c-10.76-7.88-19.818-16.66-27.172-26.336-7.354-9.678-11.030-19.584-11.030-29.714v-32.752c0-3.382 1.732-6.192 5.202-8.442 3.466-2.252 6.994-3.376 10.576-3.376h119.53c3.132 0 5.876 1.632 8.224 4.904 2.352 3.264 3.53 7.040 3.53 11.326 0 4.278-1.184 7.942-3.55 10.986zM710.652 474.548c-2.144 3.35-5.128 5.022-8.958 5.022h-16.566v46.924c0 3.852-1.75 6.798-5.242 8.838-3.496 2.040-7.722 3.064-12.678 3.064-11.948 0-17.918-3.968-17.918-11.902v-46.924h-49.696l69.644 138.95c1.126 2.25 1.692 4.056 1.692 5.41 0 3.83-2.030 7.098-6.086 9.804s-8.004 4.056-11.834 4.056c-6.99 0-12.17-3.264-15.552-9.792l-81.814-161.078c-1.35-2.478-2.028-4.956-2.028-7.428 0-4.014 1.182-7.194 3.55-9.538 2.366-2.346 5.35-3.514 8.958-3.514h83.168v-43.876c0-3.634 1.744-6.524 5.24-8.68 3.492-2.154 7.718-3.226 12.678-3.226 4.732 0 8.9 1.072 12.51 3.226 3.6 2.156 5.408 5.046 5.408 8.68v43.876h16.566c3.154 0 5.968 1.728 8.452 5.186 2.476 3.456 3.718 7.196 3.718 11.21 0 4.458-1.072 8.362-3.212 11.712z" />
<glyph unicode="&#xe914;" glyph-name="buildings" d="M1016.687 853.072c-9.177 9.046-23.79 9.445-33.448 0.919l-487.471-430.226c-10.155-8.965-11.123-24.464-2.159-34.622 8.965-10.155 24.467-11.126 34.622-2.159l223.716 197.447-319.056-372.354-108.236 156.735 93.522-56.136c11.617-6.97 26.685-3.205 33.657 8.409 6.97 11.617 3.205 26.685-8.409 33.657l-190.798 114.525c-9.9 5.943-22.613 4.173-30.514-4.248s-8.857-21.216-2.296-30.72l190.798-276.297c4.324-6.263 11.31-10.162 18.907-10.557 0.425-0.023 0.854-0.033 1.279-0.033 7.14 0 13.952 3.117 18.626 8.569l568.669 663.663c8.386 9.782 7.768 24.385-1.41 33.428zM831.629 554.231c-13.547 0-24.529-10.983-24.529-24.529v-468.158h-673.765v468.158c0 1.4-0.144 2.764-0.37 4.098l337.251 292.706 185.496-160.997c10.23-8.883 25.726-7.781 34.603 2.446 8.88 10.23 7.784 25.723-2.446 34.603l-201.575 174.949c-9.223 8.006-22.933 8.006-32.156 0l-445.686-386.816c-10.23-8.88-11.326-24.372-2.446-34.603 4.85-5.589 11.673-8.451 18.534-8.451 5.697 0 11.424 1.975 16.068 6.005l43.669 37.899v-454.526c0-13.547 10.983-24.529 24.529-24.529h722.824c13.547 0 24.529 10.983 24.529 24.529v492.687c0 13.547-10.983 24.529-24.529 24.529z" />
<glyph unicode="&#xe915;" glyph-name="clock" d="M512 793.043c12.243 0 22.261 10.017 22.261 22.261v11.13c0 12.243-10.017 22.261-22.261 22.261s-22.261-10.017-22.261-22.261v-11.13c0-12.243 10.017-22.261 22.261-22.261zM512 102.957c-12.243 0-22.261-10.017-22.261-22.261v-11.13c0-12.243 10.017-22.261 22.261-22.261s22.261 10.017 22.261 22.261v11.13c0 12.243-10.017 22.261-22.261 22.261zM144.696 470.261h-11.13c-12.243 0-22.261-10.017-22.261-22.261s10.017-22.261 22.261-22.261h11.13c12.243 0 22.261 10.017 22.261 22.261s-10.017 22.261-22.261 22.261zM890.435 470.261h-11.13c-12.243 0-22.261-10.017-22.261-22.261s10.017-22.261 22.261-22.261h11.13c12.243 0 22.261 10.017 22.261 22.261s-10.017 22.261-22.261 22.261zM260.452 730.713c-8.904 8.904-22.261 8.904-31.165 0s-8.904-22.261 0-31.165l7.791-7.791c4.452-4.452 10.017-6.678 15.583-6.678s11.13 2.226 15.583 6.678c8.904 8.904 8.904 22.261 0 31.165l-7.791 7.791zM237.078 204.243l-7.791-7.791c-8.904-8.904-8.904-22.261 0-31.165 4.452-4.452 10.017-6.678 15.583-6.678s11.13 2.226 15.583 6.678l7.791 7.791c8.904 8.904 8.904 22.261 0 31.165s-22.261 8.904-31.165 0zM763.548 730.713l-7.791-7.791c-8.904-8.904-8.904-22.261 0-31.165 4.452-4.452 10.017-6.678 15.583-6.678s11.13 2.226 15.583 6.678l7.791 7.791c8.904 8.904 8.904 22.261 0 31.165s-22.261 8.904-31.165 0zM534.261 456.904v202.574c0 12.243-10.017 22.261-22.261 22.261s-22.261-10.017-22.261-22.261v-211.478c0-5.565 2.226-11.13 6.678-15.583l243.757-243.757c4.452-4.452 10.017-6.678 15.583-6.678s11.13 2.226 15.583 6.678c8.904 8.904 8.904 22.261 0 31.165l-237.078 237.078zM512 960c-282.713 0-512-229.287-512-512s229.287-512 512-512 512 229.287 512 512-229.287 512-512 512zM512-19.478c-258.226 0-467.478 209.252-467.478 467.478s209.252 467.478 467.478 467.478 467.478-209.252 467.478-467.478-209.252-467.478-467.478-467.478z" />
<glyph unicode="&#xe916;" glyph-name="clock-1" d="M874.040 810.040c-96.706 96.704-225.28 149.96-362.040 149.96s-265.334-53.256-362.040-149.96c-96.704-96.706-149.96-225.28-149.96-362.040s53.256-265.334 149.96-362.040c96.706-96.704 225.28-149.96 362.040-149.96s265.334 53.256 362.040 149.96c96.704 96.706 149.96 225.28 149.96 362.040s-53.256 265.334-149.96 362.040zM512-23.204c-259.822 0-471.204 211.38-471.204 471.204s211.382 471.204 471.204 471.204 471.204-211.382 471.204-471.204-211.382-471.204-471.204-471.204zM512 879.598c-237.984 0-431.598-193.614-431.598-431.598s193.614-431.598 431.598-431.598 431.598 193.614 431.598 431.598-193.614 431.598-431.598 431.598zM860.14 270.554l-58.824 33.964c-9.754 5.63-22.23 2.29-27.864-7.466s-2.29-22.232 7.466-27.864l58.752-33.92c-29.87-45.848-69.088-85.066-114.934-114.934l-33.92 58.752c-5.634 9.758-18.11 13.1-27.864 7.466-9.756-5.632-13.1-18.108-7.466-27.864l33.964-58.824c-47.57-24.344-100.752-39.222-157.048-42.13v67.976c0 11.266-9.132 20.398-20.398 20.398s-20.398-9.132-20.398-20.398v-67.976c-56.296 2.908-109.476 17.786-157.048 42.13l33.964 58.824c5.634 9.756 2.29 22.232-7.466 27.864-9.754 5.63-22.232 2.29-27.864-7.466l-33.92-58.752c-45.85 29.87-85.066 69.086-114.934 114.934l58.752 33.92c9.756 5.632 13.1 18.108 7.466 27.864-5.632 9.756-18.11 13.1-27.864 7.466l-58.832-33.964c-24.344 47.57-39.222 100.752-42.13 157.048h67.976c11.266 0 20.398 9.132 20.398 20.398s-9.132 20.398-20.398 20.398h-67.976c2.908 56.296 17.786 109.476 42.13 157.048l58.824-33.964c3.212-1.854 6.72-2.736 10.18-2.736 7.050 0 13.906 3.658 17.684 10.202 5.634 9.756 2.29 22.232-7.466 27.864l-58.752 33.92c29.87 45.85 69.086 85.066 114.934 114.934l33.92-58.752c3.778-6.544 10.634-10.202 17.684-10.202 3.46 0 6.968 0.882 10.18 2.736 9.756 5.632 13.1 18.108 7.466 27.864l-33.96 58.828c47.568 24.344 100.752 39.222 157.048 42.13v-67.976c0-11.266 9.132-20.398 20.398-20.398s20.398 9.132 20.398 20.398v67.976c56.296-2.908 109.476-17.786 157.048-42.13l-33.964-58.824c-5.634-9.756-2.29-22.232 7.466-27.864 3.212-1.854 6.72-2.736 10.18-2.736 7.050 0 13.906 3.658 17.684 10.202l33.92 58.752c45.85-29.87 85.066-69.086 114.934-114.934l-58.752-33.92c-9.756-5.632-13.1-18.108-7.466-27.864 3.778-6.544 10.634-10.202 17.684-10.202 3.46 0 6.968 0.882 10.18 2.736l58.824 33.964c24.344-47.57 39.222-100.752 42.13-157.048h-67.976c-11.266 0-20.398-9.132-20.398-20.398s9.132-20.398 20.398-20.398h67.976c-2.904-56.3-17.78-109.48-42.126-157.052zM532.398 504.792v130.874c0 11.266-9.132 20.398-20.398 20.398s-20.398-9.132-20.398-20.398v-130.874c-23.266-8.382-39.948-30.672-39.948-56.792 0-14.836 5.392-28.43 14.306-38.948l-32.378-56.082c-5.634-9.756-2.29-22.232 7.466-27.864 3.212-1.856 6.72-2.736 10.18-2.736 7.050 0 13.906 3.658 17.684 10.202l32.362 56.054c3.484-0.628 7.064-0.974 10.726-0.974 33.276 0 60.346 27.070 60.346 60.346 0 26.12-16.682 48.41-39.948 56.794zM512 428.45c-10.78 0-19.55 8.77-19.55 19.55s8.77 19.55 19.55 19.55c10.78 0 19.55-8.77 19.55-19.55s-8.77-19.55-19.55-19.55zM512 723.378c-11.266 0-20.398-9.132-20.398-20.398v-8.16c0-11.266 9.132-20.398 20.398-20.398s20.398 9.132 20.398 20.398v8.16c0 11.266-9.132 20.398-20.398 20.398z" />
<glyph unicode="&#xe917;" glyph-name="email" d="M1016.409 529.451l0.002 0.002-130.757 86.686v289.747c0 9.366-7.593 16.96-16.96 16.96h-713.413c-9.366 0-16.96-7.593-16.96-16.96v-289.768l-130.732-86.671c-4.572-3.037-7.591-8.229-7.591-14.131v-525.206c0-9.366 7.593-16.96 16.96-16.96h990.081c9.366 0 16.96 7.593 16.96 16.96v525.206c0 5.902-3.019 11.094-7.591 14.133zM138.323 470.14l-53.197 28.219h53.197v-28.219zM33.919 487.125l390.015-206.885-390.015-258.526v465.411zM511.993 297.921l438.773-290.849h-877.543l438.771 290.849zM600.059 280.238l390.020 206.887v-465.42l-390.020 258.533zM885.655 498.359h53.222l-53.222-28.23v28.23zM950.766 532.278h-65.111v43.168l65.111-43.168zM851.735 888.928v-436.792l-283.852-150.57-46.521 30.837c-5.678 3.765-13.061 3.765-18.739 0l-46.515-30.833-283.866 150.577v436.781h679.493zM138.323 532.278h-65.084l65.084 43.145v-43.145zM511.989 476.829h135.121c9.366 0 16.96 7.593 16.96 16.96s-7.593 16.96-16.96 16.96h-135.121c-65.154 0-118.161 53.007-118.161 118.161v5.004c0 65.154 53.007 118.161 118.161 118.161s118.161-53.007 118.161-118.161v-12.512c0-14.104-11.474-25.58-25.58-25.58s-25.58 11.474-25.58 25.58v23.771c0 40.396-32.863 73.261-73.259 73.261s-73.259-32.863-73.259-73.261c0-40.396 32.863-73.259 73.259-73.259 18.472 0 35.357 6.886 48.256 18.208 10.501-16.921 29.243-28.216 50.583-28.216 32.807 0 59.499 26.69 59.499 59.499v12.512c0 83.857-68.223 152.080-152.080 152.080s-152.080-68.223-152.080-152.080v-5.004c0-83.86 68.223-152.083 152.080-152.083zM505.732 605.833c-21.693 0-39.34 17.647-39.34 39.34s17.649 39.342 39.34 39.342 39.34-17.649 39.34-39.342-17.647-39.34-39.34-39.34z" />
<glyph unicode="&#xe918;" glyph-name="envelope" d="M984.2 595.4l-460.8 338c-8.4 6.2-18.8 6.2-25 0l-466-339.6c-7.6-5-10.4-12.2-10.4-18.8v-596c0-12.6 10.4-20.8 20.8-20.8h936.2c12.4 0 20.8 8.4 22.8 18.8v590.6c0.2 11.4-3.8 18.4-17.6 27.8zM103.2-0.4l337.4 261.4 58-42.6c7.2-6.8 16.6-6.4 25 0l56 41 335.2-259.8h-811.6zM63.6 538.8l343.4-253-343.4-266.2v519.2zM613 284.2l347.4 254.8v-524l-347.4 269.2zM511 891.6l429.4-315.6-429.4-315.8-428.6 316.4 428.6 315z" />
<glyph unicode="&#xe919;" glyph-name="envelope-1" d="M0 814.933v-733.867h1024v733.867h-1024zM625.067 438.374l-92.945-93.389c-11.298-10.496-28.979-10.479-39.799-0.444l-93.406 93.833 0.819 0.802-337.493 341.623h899.738l-337.732-341.641 0.819-0.785zM350.276 438.903l-316.143-304.162v621.773l316.143-317.611zM374.34 414.72l94.259-94.703c12.1-11.281 27.631-16.947 43.23-16.947 15.753 0 31.573 5.786 44.049 17.408l93.798 94.242 311.245-299.52h-898.014l311.433 299.52zM673.741 438.886l316.126 317.645v-621.79l-316.126 304.145z" />
<glyph unicode="&#xe91a;" glyph-name="fax" d="M853.333 413.867c47.053 0 85.333 38.281 85.333 85.333s-38.281 85.333-85.333 85.333-85.333-38.281-85.333-85.333 38.281-85.333 85.333-85.333zM853.333 550.4c28.228 0 51.2-22.972 51.2-51.2s-22.972-51.2-51.2-51.2-51.2 22.972-51.2 51.2 22.972 51.2 51.2 51.2zM307.2 806.4h307.2c9.438 0 17.067 7.629 17.067 17.067s-7.629 17.067-17.067 17.067h-307.2c-9.438 0-17.067-7.629-17.067-17.067s7.629-17.067 17.067-17.067zM716.8 755.2h-409.6c-9.438 0-17.067-7.629-17.067-17.067s7.629-17.067 17.067-17.067h409.6c9.438 0 17.067 7.629 17.067 17.067s-7.629 17.067-17.067 17.067zM716.8 226.133h-409.6c-9.438 0-17.067-7.629-17.067-17.067s7.629-17.067 17.067-17.067h409.6c9.438 0 17.067 7.629 17.067 17.067s-7.629 17.067-17.067 17.067zM716.8 140.8h-409.6c-9.438 0-17.067-7.629-17.067-17.067s7.629-17.067 17.067-17.067h409.6c9.438 0 17.067 7.629 17.067 17.067s-7.629 17.067-17.067 17.067zM870.4 669.867v290.133h-716.8v-290.133h-153.6v-580.267h102.4v-51.2h51.2v-102.4h716.8v102.4h51.2v51.2h102.4v580.267h-153.6zM187.733 925.867h648.533v-256h-648.533v256zM153.6 635.733h836.267v-273.067h-955.733v273.067h119.467zM136.533 72.533v119.467c0 9.438-7.629 17.067-17.067 17.067s-17.067-7.629-17.067-17.067v-68.267h-68.267v204.8h119.467v-256h-17.067zM836.267-29.867h-648.533v358.4h648.533v-358.4zM921.6 123.733v68.267c0 9.438-7.629 17.067-17.067 17.067s-17.067-7.629-17.067-17.067v-119.467h-17.067v256h119.467v-204.8h-68.267zM102.4 550.4h51.2c9.438 0 17.067 7.629 17.067 17.067s-7.629 17.067-17.067 17.067h-51.2c-9.438 0-17.067-7.629-17.067-17.067s7.629-17.067 17.067-17.067zM102.4 482.133h51.2c9.438 0 17.067 7.629 17.067 17.067s-7.629 17.067-17.067 17.067h-51.2c-9.438 0-17.067-7.629-17.067-17.067s7.629-17.067 17.067-17.067zM102.4 413.867h51.2c9.438 0 17.067 7.629 17.067 17.067s-7.629 17.067-17.067 17.067h-51.2c-9.438 0-17.067-7.629-17.067-17.067s7.629-17.067 17.067-17.067zM221.867 550.4h51.2c9.438 0 17.067 7.629 17.067 17.067s-7.629 17.067-17.067 17.067h-51.2c-9.438 0-17.067-7.629-17.067-17.067s7.629-17.067 17.067-17.067zM221.867 482.133h51.2c9.438 0 17.067 7.629 17.067 17.067s-7.629 17.067-17.067 17.067h-51.2c-9.438 0-17.067-7.629-17.067-17.067s7.629-17.067 17.067-17.067zM221.867 413.867h51.2c9.438 0 17.067 7.629 17.067 17.067s-7.629 17.067-17.067 17.067h-51.2c-9.438 0-17.067-7.629-17.067-17.067s7.629-17.067 17.067-17.067zM341.333 550.4h51.2c9.438 0 17.067 7.629 17.067 17.067s-7.629 17.067-17.067 17.067h-51.2c-9.438 0-17.067-7.629-17.067-17.067s7.629-17.067 17.067-17.067zM341.333 482.133h51.2c9.438 0 17.067 7.629 17.067 17.067s-7.629 17.067-17.067 17.067h-51.2c-9.438 0-17.067-7.629-17.067-17.067s7.629-17.067 17.067-17.067zM341.333 413.867h51.2c9.438 0 17.067 7.629 17.067 17.067s-7.629 17.067-17.067 17.067h-51.2c-9.438 0-17.067-7.629-17.067-17.067s7.629-17.067 17.067-17.067z" />
<glyph unicode="&#xe91b;" glyph-name="house" d="M644.021-13.865h167.324c24.023 0 43.241 19.427 43.241 43.241v331.933h91.287c20.681 0 31.543 24.023 17.965 39.481l-401.913 450.794c-12.325 13.787-34.050 13.787-46.375 0l-401.913-450.794c-13.578-15.249-2.716-39.481 17.756-39.481h91.287v-331.724c0-24.023 19.427-43.241 43.241-43.241h167.324z" />
<glyph unicode="&#xe91c;" glyph-name="placeholder" d="M511.69 755.954c-118.154 0-214.101-96.157-214.101-214.101s95.948-214.311 214.101-214.311 214.101 96.157 214.101 214.101-95.948 214.311-214.101 214.311zM511.69 378.867c-89.872 0-162.776 73.113-162.776 162.776s73.113 162.776 162.776 162.776 162.776-73.113 162.776-162.776-72.903-162.776-162.776-162.776zM511.69 960c-4.818 0-9.846 0-14.664-0.209-206.56-7.123-377.296-167.594-396.989-373.106-3.771-39.804-1.885-79.817 5.447-117.944 0 0 0.628-4.818 2.933-13.827 6.285-28.282 15.712-55.725 27.653-81.283 42.527-100.766 135.751-256 338.121-424.013 10.684-8.799 24.092-13.617 37.918-13.617s27.234 4.818 37.918 13.617c202.16 167.804 295.385 323.247 337.702 423.175 12.151 26.187 21.578 53.84 27.863 81.912 1.257 5.028 2.095 9.218 2.723 13.198 5.028 25.768 7.542 52.164 7.542 78.56-0.419 227.928-186.029 413.538-414.167 413.538zM867.408 476.7c0-0.419-0.628-3.98-2.095-10.475-5.656-24.72-13.827-48.812-24.72-72.694-40.432-95.529-129.257-243.221-323.457-404.321-1.885-1.466-3.771-1.885-5.237-1.885-1.257 0-3.352 0.419-5.237 1.885-194.2 161.309-283.234 309.002-323.876 405.159-10.684 23.044-18.854 47.136-24.511 72.065-1.257 5.447-1.885 8.799-2.095 9.846 0 0.419-0.209 0.838-0.209 1.257-6.494 34.147-8.17 69.342-4.818 104.118 17.388 179.954 166.756 320.524 347.758 326.809 205.512 7.123 375.201-157.957 375.201-362.213 0-23.044-2.304-46.088-6.704-69.552z" />
<glyph unicode="&#xe91d;" glyph-name="smartphone" d="M776.97 960h-529.94c-35.748 0-64.828-29.082-64.828-64.83v-894.342c0-35.746 29.082-64.83 64.83-64.83h529.938c35.748 0 64.83 29.082 64.83 64.83v894.342c-0.002 35.748-29.082 64.83-64.83 64.83zM214.688 797.056h594.625v-677.208h-594.625v677.208zM247.030 927.513h529.94c17.833 0 32.344-14.508 32.344-32.344v-76.456h-594.625v76.456c0 17.835 14.508 32.344 32.341 32.344zM776.97-31.513h-529.94c-17.833 0-32.344 14.508-32.344 32.344v97.362h594.625v-97.362c0-17.835-14.508-32.344-32.341-32.344zM512.001 83.833c-29.335 0-53.2-23.867-53.2-53.202s23.867-53.2 53.2-53.2 53.2 23.867 53.2 53.2-23.865 53.202-53.2 53.202zM512.001-0.911c-17.393 0-31.542 14.151-31.542 31.542 0 17.393 14.149 31.544 31.542 31.544s31.542-14.151 31.542-31.544c0-17.391-14.149-31.542-31.542-31.542zM438.365 856.812h147.272c5.982 0 10.829 4.849 10.829 10.829s-4.847 10.829-10.829 10.829h-147.272c-5.982 0-10.829-4.849-10.829-10.829s4.847-10.829 10.829-10.829zM399.388 856.812c2.837 0 5.631 1.148 7.645 3.162 2.014 2.036 3.184 4.808 3.184 7.667s-1.17 5.631-3.184 7.667c-2.016 2.014-4.81 3.162-7.645 3.162-2.859 0-5.633-1.148-7.667-3.162-2.014-2.014-3.162-4.808-3.162-7.667s1.148-5.631 3.162-7.667c2.014-2.014 4.808-3.162 7.667-3.162z" />
<glyph unicode="&#xe91e;" glyph-name="smartphone-1" d="M726.955 960h-429.909c-41.438 0-75.179-33.741-75.179-75.179v-873.626c0-41.455 33.741-75.196 75.179-75.196h429.892c41.455 0 75.196 33.741 75.196 75.179v873.643c0 41.438-33.741 75.179-75.179 75.179zM256 823.467h512v-648.533h-512v648.533zM297.045 925.867h429.892c22.647 0 41.062-18.415 41.062-41.045v-27.221h-512v27.221c0 22.63 18.415 41.045 41.045 41.045zM726.955-29.867h-429.909c-22.63 0-41.045 18.415-41.045 41.045v129.621h512v-129.621c0-22.63-18.415-41.045-41.045-41.045zM512 123.733c-37.649 0-68.267-30.618-68.267-68.267s30.618-68.267 68.267-68.267 68.267 30.618 68.267 68.267-30.618 68.267-68.267 68.267zM512 21.333c-18.825 0-34.133 15.309-34.133 34.133s15.309 34.133 34.133 34.133 34.133-15.309 34.133-34.133-15.309-34.133-34.133-34.133zM443.733 874.667h68.267c9.438 0 17.067 7.629 17.067 17.067s-7.629 17.067-17.067 17.067h-68.267c-9.438 0-17.067-7.629-17.067-17.067s7.629-17.067 17.067-17.067zM563.2 874.667h17.067c9.438 0 17.067 7.629 17.067 17.067s-7.629 17.067-17.067 17.067h-17.067c-9.438 0-17.067-7.629-17.067-17.067s7.629-17.067 17.067-17.067zM966.178 882.022c-6.673 6.673-17.459 6.673-24.132 0s-6.673-17.459 0-24.132c63.761-63.761 63.761-167.509 0-231.287-6.673-6.673-6.673-17.459 0-24.132 3.328-3.328 7.697-5.001 12.066-5.001s8.738 1.673 12.066 5.001c77.073 77.056 77.073 202.479 0 279.552zM894.31 843.179c-6.673 6.673-17.459 6.673-24.132 0s-6.673-17.459 0-24.132c21.111-21.111 32.734-49.237 32.734-79.172s-11.622-58.044-32.734-79.155c-6.673-6.673-6.673-17.459 0-24.132 3.328-3.328 7.697-5.001 12.066-5.001s8.738 1.673 12.066 5.001c27.563 27.546 42.735 64.239 42.735 103.287s-15.155 75.759-42.735 103.305zM81.954 857.89c6.673 6.673 6.673 17.459 0 24.132s-17.459 6.673-24.132 0c-77.073-77.073-77.073-202.479 0-279.552 3.328-3.328 7.697-5.001 12.066-5.001s8.738 1.673 12.066 5.001c6.673 6.673 6.673 17.459 0 24.132-63.778 63.761-63.778 167.509 0 231.287zM153.822 847.889c-6.673 6.673-17.459 6.673-24.132 0-27.563-27.546-42.735-64.239-42.735-103.287s15.172-75.742 42.735-103.305c3.328-3.328 7.697-5.001 12.066-5.001s8.738 1.673 12.066 5.001c6.673 6.673 6.673 17.459 0 24.132-21.111 21.111-32.734 49.237-32.734 79.172s11.605 58.044 32.734 79.155c6.656 6.656 6.656 17.459 0 24.132z" />
<glyph unicode="&#xe91f;" glyph-name="time" d="M655.375 883.25h179.173v-32.001h-179.173v32.001zM429.624 883.25h162.734v-32.001h-162.734v32.001zM192.922 883.25h172.594v-32.001h-172.594v32.001zM1024-64h-1024v947.25h125.687v-32.001h-93.686v-883.25h960v883.25h-96.985v32.001h128.984zM144.196 960h31.347v-192.261h-31.347v192.261zM384.522 960h31.347v-192.261h-31.347v192.261zM608.131 960h31.347v-192.261h-31.347v192.261zM848.457 960h31.347v-192.261h-31.347v192.261zM64.784 702.955h894.433v-31.347h-894.433v31.347zM256.813 445.453h-161.437v161.437h161.437v-161.437zM127.375 477.454h97.437v97.437h-97.437v-97.437zM480.718 445.453h-161.437v161.437h161.437v-161.437zM351.282 477.454h97.437v97.437h-97.437v-97.437zM704.719 445.453h-161.437v161.437h161.437v-161.437zM575.281 477.454h97.437v97.437h-97.437v-97.437zM928.421 445.453h-161.437v161.437h161.437v-161.437zM798.985 477.454h97.437v97.437h-97.437v-97.437zM256.813 237.453h-161.437v161.437h161.437v-161.437zM127.375 269.454h97.437v97.437h-97.437v-97.437zM480.718 237.453h-161.437v161.437h161.437v-161.437zM351.282 269.454h97.437v97.437h-97.437v-97.437zM704.719 237.453h-161.437v161.437h161.437v-161.437zM575.281 269.454h97.437v97.437h-97.437v-97.437zM928.421 237.453h-161.437v161.437h161.437v-161.437zM798.985 269.454h97.437v97.437h-97.437v-97.437zM256.813 29.454h-161.437v161.437h161.437v-161.437zM127.375 61.453h97.437v97.437h-97.437v-97.437zM480.718 29.454h-161.437v161.437h161.437v-161.437zM351.282 61.453h97.437v97.437h-97.437v-97.437zM704.719 29.454h-161.437v161.437h161.437v-161.437zM575.281 61.453h97.437v97.437h-97.437v-97.437zM928.421 29.454h-161.437v161.437h161.437v-161.437zM798.985 61.453h97.437v97.437h-97.437v-97.437z" />
<glyph unicode="&#xe920;" glyph-name="time-1" d="M764.801 141.859c-5.298 7.094-15.344 8.515-22.39 3.203-7.078-5.296-8.517-15.328-3.203-22.39l51.203-68.266c3.030-4.046 7.781-6.406 12.797-6.406 0.266 0 0.547 0 0.827 0.016 5.314 0.282 10.157 3.187 12.891 7.75l76.797 128c4.547 7.578 2.094 17.405-5.485 21.952-7.594 4.563-17.406 2.094-21.952-5.483l-64.563-107.595-36.922 49.219zM960.004 863.939h-240v80.061c0 8.843-7.157 16-16 16-8.845 0-16-7.157-16-16v-80.061h-336v80.061c0 8.843-7.157 16-16 16-8.845 0-16-7.157-16-16v-80.061h-256.008c-35.347 0-64-28.653-64-64v-799.939c0-35.346 28.653-64 64-64h896.008c35.346 0 64 28.654 64 64v799.939c0 35.347-28.654 64-64 64zM63.996 831.939h256.008v-47.939c0-8.843 7.155-16 16-16 8.843 0 16 7.157 16 16v47.939h336v-47.939c0-8.843 7.155-16 16-16 8.843 0 16 7.157 16 16v47.939h240c17.645 0 32-14.354 32-32v-111.939l-960.008-0.002v111.941c0 17.646 14.355 32 32 32zM992.004 0c0-17.645-14.355-32-32-32h-896.008c-17.645 0-32 14.355-32 32v656.002l0.008-0.002h960v-656zM288.004 576h-128v-128h128v128zM256.004 480h-64v64h64v-64zM576.004 576h-128v-128h128v128zM544.004 480h-64v64h64v-64zM864.004 576h-128v-128h128v128zM832.004 480h-64v64h64v-64zM288.004 384h-128v-128h128v128zM256.004 288h-64v64h64v-64zM576.004 384h-128v-128h128v128zM544.004 288h-64v64h64v-64zM288.004 192h-128v-128h128v128zM256.004 96h-64v64h64v-64zM576.004 192h-128v-128h128v128zM544.004 96h-64v64h64v-64zM864.004 384h-128v-128h128v128zM832.004 288h-64v64h64v-64z" />
<glyph unicode="&#xe921;" glyph-name="time-2" d="M1003.102 855.51h-114.939v83.592c0 11.542-9.356 20.898-20.898 20.898h-125.388c-11.542 0-20.898-9.356-20.898-20.898v-83.592h-125.388v83.592c0 11.542-9.356 20.898-20.898 20.898h-125.388c-11.542 0-20.898-9.356-20.898-20.898v-83.592h-125.388v83.592c0 11.542-9.356 20.898-20.898 20.898h-125.388c-11.542 0-20.898-9.356-20.898-20.898v-83.592h-114.939c-11.542 0-20.898-9.356-20.898-20.898v-877.714c0-11.542 9.356-20.898 20.898-20.898h982.204c11.542 0 20.898 9.356 20.898 20.898v877.714c0 11.542-9.356 20.898-20.898 20.898zM762.776 918.204h83.592v-125.388h-83.592v125.388zM470.204 918.204h83.592v-125.388h-83.592v125.388zM177.633 918.204h83.592v-125.388h-83.592v125.388zM982.204-22.204h-940.408v606.041h940.408v-606.041zM982.204 625.633h-940.408v188.082h94.041v-41.796c0-11.542 9.356-20.898 20.898-20.898h125.388c11.542 0 20.898 9.356 20.898 20.898v41.796h125.388v-41.796c0-11.542 9.356-20.898 20.898-20.898h125.388c11.542 0 20.898 9.356 20.898 20.898v41.796h125.388v-41.796c0-11.542 9.356-20.898 20.898-20.898h125.388c11.542 0 20.898 9.356 20.898 20.898v41.796h94.041v-188.082zM355.265 395.755h104.49c11.542 0 20.898 9.356 20.898 20.898v104.49c0 11.542-9.356 20.898-20.898 20.898h-104.49c-11.542 0-20.898-9.356-20.898-20.898v-104.49c0-11.542 9.356-20.898 20.898-20.898zM376.163 500.245h62.694v-62.694h-62.694v62.694zM146.286 395.755h104.49c11.542 0 20.898 9.356 20.898 20.898v104.49c0 11.542-9.356 20.898-20.898 20.898h-104.49c-11.542 0-20.898-9.356-20.898-20.898v-104.49c0-11.542 9.356-20.898 20.898-20.898zM167.184 500.245h62.694v-62.694h-62.694v62.694zM564.245 395.755h104.49c11.542 0 20.898 9.356 20.898 20.898v104.49c0 11.542-9.356 20.898-20.898 20.898h-104.49c-11.542 0-20.898-9.356-20.898-20.898v-104.49c0-11.542 9.356-20.898 20.898-20.898zM585.143 500.245h62.694v-62.694h-62.694v62.694zM355.265 207.673h104.49c11.542 0 20.898 9.356 20.898 20.898v104.49c0 11.542-9.356 20.898-20.898 20.898h-104.49c-11.542 0-20.898-9.356-20.898-20.898v-104.49c0-11.542 9.356-20.898 20.898-20.898zM376.163 312.163h62.694v-62.694h-62.694v62.694zM146.286 207.673h104.49c11.542 0 20.898 9.356 20.898 20.898v104.49c0 11.542-9.356 20.898-20.898 20.898h-104.49c-11.542 0-20.898-9.356-20.898-20.898v-104.49c0-11.542 9.356-20.898 20.898-20.898zM167.184 312.163h62.694v-62.694h-62.694v62.694zM564.245 207.673h104.49c11.542 0 20.898 9.356 20.898 20.898v104.49c0 11.542-9.356 20.898-20.898 20.898h-104.49c-11.542 0-20.898-9.356-20.898-20.898v-104.49c0-11.542 9.356-20.898 20.898-20.898zM585.143 312.163h62.694v-62.694h-62.694v62.694zM355.265 19.592h104.49c11.542 0 20.898 9.356 20.898 20.898v104.49c0 11.542-9.356 20.898-20.898 20.898h-104.49c-11.542 0-20.898-9.356-20.898-20.898v-104.49c0-11.542 9.356-20.898 20.898-20.898zM376.163 124.082h62.694v-62.694h-62.694v62.694zM146.286 19.592h104.49c11.542 0 20.898 9.356 20.898 20.898v104.49c0 11.542-9.356 20.898-20.898 20.898h-104.49c-11.542 0-20.898-9.356-20.898-20.898v-104.49c0-11.542 9.356-20.898 20.898-20.898zM167.184 124.082h62.694v-62.694h-62.694v62.694zM564.245 19.592h104.49c11.542 0 20.898 9.356 20.898 20.898v104.49c0 11.542-9.356 20.898-20.898 20.898h-104.49c-11.542 0-20.898-9.356-20.898-20.898v-104.49c0-11.542 9.356-20.898 20.898-20.898zM585.143 124.082h62.694v-62.694h-62.694v62.694zM773.224 395.755h104.49c11.542 0 20.898 9.356 20.898 20.898v104.49c0 11.542-9.356 20.898-20.898 20.898h-104.49c-11.542 0-20.898-9.356-20.898-20.898v-104.49c0-11.542 9.356-20.898 20.898-20.898zM794.122 500.245h62.694v-62.694h-62.694v62.694zM773.224 207.673h104.49c11.542 0 20.898 9.356 20.898 20.898v104.49c0 11.542-9.356 20.898-20.898 20.898h-104.49c-11.542 0-20.898-9.356-20.898-20.898v-104.49c0-11.542 9.356-20.898 20.898-20.898zM794.122 312.163h62.694v-62.694h-62.694v62.694zM773.224 19.592h104.49c11.542 0 20.898 9.356 20.898 20.898v104.49c0 11.542-9.356 20.898-20.898 20.898h-104.49c-11.542 0-20.898-9.356-20.898-20.898v-104.49c0-11.542 9.356-20.898 20.898-20.898zM794.122 124.082h62.694v-62.694h-62.694v62.694z" />
<glyph unicode="&#xe922;" glyph-name="travel" d="M897.658 699.072c-20.071 53.524-51.612 100.357-89.843 138.588s-84.109 68.816-135.721 90.799c-48.745 20.071-103.224 31.541-159.615 31.541s-109.915-11.469-159.615-31.541c-50.656-21.027-97.49-52.568-135.721-90.799s-68.816-84.109-90.799-135.721c-20.071-48.745-31.541-103.224-31.541-159.615 0-20.071 1.912-41.099 4.779-61.17s7.646-40.143 13.381-59.258c34.408-115.65 172.041-268.574 268.574-378.489 25.806-29.629 49.701-55.435 66.905-76.462 0-0.956 0.956-0.956 0.956-1.912 14.337-17.204 34.408-26.762 54.48-28.673s42.054 3.823 59.258 17.204c0.956 0 0.956 0.956 1.912 0.956 1.912 1.912 3.823 2.867 5.735 4.779l4.779 5.735c18.16 21.983 41.099 47.789 66.905 77.418 97.49 110.871 234.166 264.751 268.574 376.578 5.735 19.116 10.514 39.187 13.381 59.258s4.779 40.143 4.779 61.17c0 56.391-11.469 109.915-31.541 159.615zM888.1 487.844c-2.867-18.16-6.69-36.32-12.425-54.48-31.541-104.18-165.35-255.194-259.972-362.241-26.762-30.585-50.656-57.347-67.86-78.374 0 0 0-0.956-0.956-0.956-0.956-0.956-1.912-1.912-2.867-2.867s-1.912-1.912-3.823-2.867c-9.558-7.646-21.027-10.514-31.541-9.558-11.469 0.956-21.983 6.69-29.629 15.292-18.16 21.983-41.099 47.789-67.86 77.418-94.622 106.092-228.432 257.105-260.928 364.153-5.735 17.204-9.558 35.364-12.425 54.48-2.867 18.16-3.823 36.32-3.823 55.435 0 51.612 10.514 100.357 28.673 145.279 19.116 45.877 46.833 87.932 82.197 123.296s76.462 63.082 123.296 82.197c44.922 18.16 93.667 28.673 145.279 28.673s100.357-10.514 145.279-28.673c45.877-19.116 87.932-46.833 123.296-82.197s63.082-76.462 82.197-123.296c18.16-44.922 28.673-93.667 28.673-145.279-0.956-19.116-1.912-38.231-4.779-55.435zM689.297 615.919c-9.558 22.939-22.939 43.966-41.099 62.126-17.204 17.204-38.231 31.541-62.126 41.099-22.939 9.558-46.833 14.337-72.639 14.337s-50.656-4.779-72.639-14.337c-23.895-9.558-44.922-23.895-62.126-41.099s-31.541-38.231-41.099-62.126c-9.558-22.939-14.337-46.833-14.337-72.639s4.779-50.656 14.337-72.639c9.558-23.895 23.895-44.922 41.099-62.126s38.231-31.541 62.126-41.099c22.939-9.558 46.833-14.337 72.639-14.337s50.656 4.779 72.639 14.337c23.895 9.558 44.922 23.895 62.126 41.099s31.541 38.231 41.099 62.126c9.558 22.939 14.337 46.833 14.337 72.639s-4.779 50.656-14.337 72.639zM654.889 484.021c-7.646-18.16-19.116-35.364-33.452-49.701s-30.585-25.806-49.701-33.452c-18.16-7.646-37.275-11.469-58.303-11.469s-40.143 3.823-58.303 11.469c-18.16 7.646-35.364 19.116-49.701 33.452s-25.806 30.585-33.452 49.701c-7.646 18.16-11.469 37.275-11.469 58.303s3.823 40.143 11.469 58.303c7.646 18.16 19.116 35.364 33.452 49.701s30.585 25.806 49.701 33.452c18.16 7.646 37.275 11.469 58.303 11.469s40.143-3.823 58.303-11.469c18.16-7.646 35.364-19.116 49.701-33.452s25.806-30.585 33.452-49.701c7.646-18.16 11.469-37.275 11.469-58.303 0-20.071-3.823-40.143-11.469-58.303z" />
<glyph unicode="&#xe923;" glyph-name="apus-full-screen" d="M256 896v64h-224c-17.674 0-32-14.326-32-32v-224h64v146.88l297.28-297.28 45.12 45.12-297.28 297.28h146.88zM992 960h-224v-64h146.88l-297.28-297.28 45.12-45.12 297.28 297.28v-146.88h64v224c0 17.674-14.326 32-32 32zM960 45.12l-297.28 297.28-45.12-45.12 297.28-297.28h-146.88v-64h224c17.674 0 32 14.326 32 32v224h-64v-146.88zM361.28 342.72l-297.28-297.6v146.88h-64v-224c0-17.674 14.326-32 32-32h224v64h-146.88l297.28 297.28-45.12 45.44z" />
<glyph unicode="&#xe924;" glyph-name="apus-maximize" d="M350.89 286.89c-10 10.018-26.198 10.018-36.198 0l-263.492-263.492v143.002c0 14.148-11.452 25.6-25.6 25.6s-25.6-11.452-25.6-25.6v-204.8c0-14.148 11.452-25.6 25.6-25.6h204.8c14.148 0 25.6 11.452 25.6 25.6s-11.452 25.6-25.6 25.6h-143.002l263.492 263.492c10.002 10.002 10.002 26.198 0 36.198zM998.4 960h-204.8c-14.148 0-25.6-11.452-25.6-25.6s11.452-25.6 25.6-25.6h142.984l-263.474-263.492c-10.002-10.002-10.002-26.198 0-36.198 10-10.002 26.198-10.002 36.198 0l263.492 263.492v-143.002c0-14.148 11.452-25.6 25.6-25.6s25.6 11.452 25.6 25.6v204.8c0 14.148-11.452 25.6-25.6 25.6z" />
<glyph unicode="&#xe925;" glyph-name="apus-architecture" d="M460.828 794.695c4.523 0 9.055 1.516 12.797 4.633l0.008 0.008c8.492 7.078 9.633 19.68 2.562 28.164-7.078 8.492-19.695 9.625-28.18 2.562-8.484-7.078-9.633-19.687-2.562-28.172 3.961-4.75 9.648-7.195 15.375-7.195zM399.711 96.063h-0.016c-11.039 0-19.992-8.961-19.992-20 0-11.047 8.961-20 20.008-20s20 8.953 20 20c0 11.039-8.953 20-20 20zM379.711 372.563c-33.086 0-60-26.914-60-60s26.914-60 60-60 60 26.914 60 60-26.914 60-60 60zM379.711 292.563c-11.023 0-20 8.977-20 20 0 11.031 8.977 20 20 20 11.031 0 20-8.969 20-20 0-11.023-8.969-20-20-20zM644.32 636.57c33.086 0 60 26.922 60 60 0 33.086-26.914 60-60 60s-60-26.914-60-60c0-33.078 26.914-60 60-60zM644.32 716.57c11.031 0 20-8.969 20-20 0-11.023-8.969-20-20-20-11.023 0-20 8.977-20 20 0 11.031 8.977 20 20 20zM999.562 713.172l-318.937 234.656c-20.977 15.977-50.43 16.258-71.75 0.633l-95.461-70.242c-8.898-6.547-10.805-19.062-4.258-27.961s19.070-10.797 27.961-4.258l95.437 70.219c7.094 5.203 16.914 5.102 23.883-0.25 0.109-0.086 0.219-0.164 0.328-0.242l319.117-234.797c8.852-6.492 10.781-18.969 4.289-27.828-3.148-4.289-7.773-7.094-13.023-7.906-5.273-0.805-10.516 0.477-14.781 3.602l-296.195 217.93c-7.047 5.187-16.656 5.187-23.703 0l-296.164-217.906c-4.289-3.148-9.555-4.437-14.805-3.625s-9.875 3.617-13.023 7.906c-6.492 8.859-4.57 21.336 4.312 27.852l95.453 70.227c8.898 6.539 10.805 19.062 4.258 27.961s-19.070 10.797-27.961 4.258l-95.422-70.211c-12.906-9.461-21.359-23.383-23.797-39.195-2.437-15.82 1.437-31.633 10.891-44.539 9.461-12.906 23.383-21.359 39.203-23.797 11.445-1.766 22.891-0.211 33.242 4.375v-42.672c-1.492-0.898-2.961-1.867-4.391-2.914l-95.461-70.234c-8.898-6.547-10.805-19.062-4.258-27.961s19.062-10.797 27.961-4.258l95.43 70.219c7.094 5.203 16.922 5.102 23.891-0.25 0.109-0.086 0.211-0.164 0.328-0.242l319.117-234.797c8.852-6.492 10.773-18.969 4.289-27.828-3.148-4.289-7.773-7.094-13.031-7.906-5.258-0.805-10.516 0.477-14.773 3.602l-296.195 217.93c-7.047 5.187-16.656 5.187-23.703 0l-296.164-217.906c-4.289-3.148-9.547-4.437-14.805-3.625s-9.883 3.617-13.023 7.906c-3.141 4.289-4.43 9.547-3.625 14.805 0.812 5.25 3.625 9.875 7.937 13.039l95.453 70.234c8.898 6.539 10.805 19.062 4.258 27.953-6.547 8.906-19.062 10.805-27.961 4.258l-95.43-70.203c-12.906-9.461-21.352-23.375-23.789-39.195-2.437-15.812 1.43-31.633 10.891-44.539 9.461-12.914 23.383-21.359 39.195-23.797 11.453-1.758 22.898-0.203 33.25 4.375v-269.969c0-11.039 8.961-20 20-20h815.937c11.047 0 20 8.961 20 20v268.336c23.281 8.258 40 30.492 40 56.562 0 26.078-16.719 48.305-40 56.562v272.539c7.555-3.344 15.695-5.102 24-5.102 3.070 0 6.156 0.234 9.25 0.711 15.812 2.437 29.734 10.883 39.195 23.789 19.531 26.641 13.742 64.211-12.867 83.719zM388.656 575.297v62.383l255.664 188.101 255.664-188.101v-296.726h-181.062l-134.719 99.117h255.781c11.047 0 20 8.961 20 20v120c0 11.039-8.953 20-20 20h-391.32c-11.047 0-20-8.961-20-20v-25.555l-12.656 9.312c-8.164 6.211-17.602 10.016-27.352 11.469zM819.984 560.070v-80h-155.664v80zM624.32 480.070h-94.477l-61.18 45.016v34.984h155.656zM279.711 56.063h-75.656v79.992h75.656zM319.711 176.063h120v-200.008h-120zM479.711 136.055h75.664v-79.992h-75.664zM635.375-23.945h-155.664v40.008h95.664c11.039 0 20 8.953 20 20v119.992c0 11.047-8.961 20-20 20l-95.664 0.008c0 22.055-17.937 40-39.992 40h-120.008c-22.055 0-40-17.945-40-40v-0.008h-95.656c-11.047 0-20-8.953-20-20v-119.992c0-11.047 8.953-20 20-20h95.656v-40.008h-155.664v277.617l255.664 188.101 255.664-188.101zM675.375-23.945v244.898h23.75c0.086 0 0.164-0.008 0.25-0.008s0.172 0.008 0.258 0.008h200.351v-244.898zM919.984 260.953h-163.984c4.602 13.070 4.445 27.227-0.078 40h164.062c11.031 0 20-8.969 20-20s-8.969-20-20-20zM196.219 410.688c4.516 0 9.055 1.516 12.797 4.633l0.008 0.008c8.484 7.078 9.625 19.68 2.555 28.164s-19.687 9.625-28.172 2.562c-8.484-7.078-9.633-19.687-2.562-28.172 3.961-4.75 9.648-7.195 15.375-7.195z" />
<glyph unicode="&#xe926;" glyph-name="apus-backhoe" d="M769.184 464h-194.368c-16.624 0-30.64-12.976-31.904-29.552l-14.912-194.448c0-17.648 14.352-32 32-32h224c17.648 0 32 14.352 31.952 33.232l-14.864 193.232c-1.28 16.56-15.296 29.536-31.904 29.536zM559.952 238.768l14.864 193.232h81.184v-192.704zM688 239.472v192.528h81.184l14.848-192zM928 336h-49.28l-8.672 103.968c-3.376 40.496-32.432 73.424-70.048 84.080v67.952h-32v-64h-90.144l-405.856 343.424v32.576c0 22.048-17.952 40-40 40-8.592 0-17.104-2.832-24-8l-44.816-33.6c-12.016-9.024-19.184-23.376-19.184-38.4v-9.376l-81.936-81.936c-9.072-9.056-14.064-21.12-14.064-33.952v-44.112c0-19.024 13.856-34.784 32-37.952v-160.672c-17.648 0-32-14.352-32-32v-32c0-7.2 2.48-13.776 6.512-19.136-24.8-26.192-38.512-60.208-38.512-96.416 0-77.44 63.008-140.448 140.448-140.448h59.904l-7.136-17.824c-7.312-18.336-24.8-30.176-44.544-30.176-28.672 0-54.56-15.872-67.568-41.424l-10.48-20.592c-1.76-3.456-4.752-6.016-8.448-7.232l-6.976-2.304c-21.936-7.2-40.432-23.184-50.768-43.824-2.896-5.792-4.432-12.272-4.432-18.736 0-23.104 18.784-41.888 41.888-41.888h774.112c61.76 0 112 50.24 112 112 0 31.328-12.96 59.648-33.76 80h49.76c26.464 0 48 21.536 48 48v64c0 44.112-35.888 80-80 80zM973.056 272h-29.056v29.056c13.552-4.832 24.224-15.504 29.056-29.056zM880 304h32v-32h-32zM628.32 528h-55.872c-34.96 0-65.584-18.624-82.368-46.672l-218.080 276.224v71.952zM439.024 148.816l-52.576 21.040c-5.456 2.192-10.208 5.824-13.728 10.512l-25.52 34.032c-12.016 16.032-31.168 25.6-51.2 25.6h-24v25.888l-32 16v118.112c17.648 0 32 14.352 32 32v273.92l205.424-260.208c-0.432-3.072-0.736-6.208-0.88-9.376l-12.080-270.944c-9.248-4.336-17.776-9.968-25.44-16.576zM176 400h32v-137.888l32-16v-38.112h-64zM80 738.736c0 4.272 1.664 8.304 4.688 11.328l59.312 59.312v-66.752l-52.688-52.688c-3.808-3.808-11.312-0.72-11.312 4.688zM112 665.712c0.624 0.56 1.344 0.992 1.936 1.6l30.064 30.064v-201.376h-32zM80 464h96v400c0 5.008 2.384 9.792 6.4 12.8l44.784 33.584c4.976 3.728 12.816-0.24 12.816-6.384l0.016-472h-160.016zM48 316.448c0 28.976 11.28 56.208 31.76 76.688l6.864 6.864h57.376v-191.232c-53.952 6.208-96 52.096-96 107.68zM57.888-16c-5.456 0-9.888 4.432-9.888 9.888 0 1.52 0.352 3.056 1.040 4.416 6.528 13.072 18.256 23.184 32.144 27.744l6.992 2.304c11.76 3.856 21.344 12.064 26.976 23.12l10.48 20.592c7.504 14.768 22.464 23.936 39.040 23.936 32.912 0 62.064 19.744 74.288 50.288l12.8 32.016c11.824 4.704 20.24 16.208 20.24 29.696h24c10.016 0 19.584-4.784 25.6-12.8l25.52-34.032c7.040-9.392 16.528-16.656 27.424-21.008l42.512-17.008c-10.736-17.2-17.056-37.424-17.056-59.152 0-31.328 12.96-59.648 33.76-80zM656 48v-64h-32v64zM720 48v-64h-32v64zM752-16v64h32v-64zM816-16v64h32v-62.384c-5.168-1.056-10.528-1.616-16-1.616zM912 64c0-26.032-12.688-48.976-32-63.584v47.584c0 17.648-14.352 32-32 32h-290.944c-6.624 18.576-24.224 32-45.056 32-26.464 0-48-21.536-48-48s21.536-48 48-48c20.832 0 38.432 13.424 45.056 32h34.944v-64h-80c-44.112 0-80 35.888-80 80s35.888 80 80 80h320c44.112 0 80-35.888 80-80zM528 64c0-8.816-7.184-16-16-16s-16 7.184-16 16 7.184 16 16 16 16-7.184 16-16zM960 176h-448c-5.104 0-10.144-0.336-15.072-1.008l11.584 259.92c1.552 34.256 29.632 61.088 63.936 61.088h201.952c33.024 0 61.024-25.776 63.776-58.688l9.824-117.952v-47.36c0-17.648 14.352-32 32-32h96v-48c0-8.816-7.184-16-16-16zM304 144h32v-32h-32zM336 48h32v-32h-32zM240 80h32v-32h-32zM176 48h32v-32h-32z" />
<glyph unicode="&#xe927;" glyph-name="apus-blueprint" d="M843.832 957.314l-18.799 2.686v-185.86l-69.23-9.49-32.144 192.829h-61.042l-32.308-210.029-35.933-4.926v-14.367c0-0.445 0.099-0.89 0.115-1.335h-461.429v98.853h-65.902c-36.345 0-65.902-29.557-65.902-65.902v-724.921c0-36.345 29.557-65.902 65.902-65.902h660.831c20.809-20.347 49.229-32.951 80.565-32.951 63.595 0 115.328 51.733 115.328 115.328v468.941c0 42.671 15.948 82.74 43.742 109.924 35.538 34.73 55.11 81.356 55.11 131.26 0 82.048-55.984 178.331-178.907 195.86zM690.891 924.528h4.86l27.399-164.359-58.784-8.057 26.526 172.416zM67.162 1.902c-18.172 0-32.951 14.778-32.951 32.951s14.778 32.951 32.951 32.951h65.902v65.902h-32.951v-32.951h-32.951c-12.060 0-23.214-3.493-32.951-9.16v668.179c0 18.172 14.778 32.951 32.951 32.951h32.951v-626.068h32.951v527.215h467.87c9.869-27.531 30.562-54.83 59.114-76.1 20.792-15.47 33.182-40.118 33.182-65.935v-500.508c0-17.711 4.119-34.417 11.286-49.426h-637.354zM944.596 653.737c-34.104-33.33-53.661-81.982-53.661-133.468v-468.941c0-45.423-36.954-82.377-82.377-82.377s-82.377 36.954-82.377 82.377v500.508c0 36.18-17.365 70.713-46.444 92.361-26.493 19.738-45.192 45.868-50.728 69.807l228.976 31.402v175.76c90.401-21.237 131.804-95.722 131.804-159.713 0-40.974-16.047-79.214-45.192-107.717zM808.558 479.691c-27.25 0-49.426-22.176-49.426-49.426v-164.755h32.951v164.755c0 9.078 7.397 16.475 16.475 16.475s16.475-7.397 16.475-16.475v-247.132c0-9.078-7.397-16.475-16.475-16.475s-16.475 7.397-16.475 16.475v49.426h-32.951v-49.426c0-27.25 22.176-49.426 49.426-49.426s49.426 22.176 49.426 49.426v247.132c0 27.25-22.176 49.426-49.426 49.426zM808.558 100.755c-27.25 0-49.426-22.176-49.426-49.426s22.176-49.426 49.426-49.426 49.426 22.176 49.426 49.426-22.176 49.426-49.426 49.426zM808.558 34.853c-9.078 0-16.475 7.397-16.475 16.475s7.397 16.475 16.475 16.475c9.078 0 16.475-7.397 16.475-16.475s-7.397-16.475-16.475-16.475zM742.657 578.543h131.804v98.853h-131.804v-98.853zM775.608 644.445h65.902v-32.951h-65.902v32.951zM571.378 436.212l39.821 39.821-69.889 69.889-39.821-39.821c-12.357 6.92-25.356 12.34-38.899 16.162v56.28h-98.853v-56.264c-13.543-3.839-26.542-9.243-38.899-16.162l-39.821 39.821-69.889-69.889 39.821-39.821c-6.92-12.357-12.34-25.356-16.162-38.899h-56.297v-98.853h56.264c3.839-13.543 9.243-26.542 16.162-38.899l-39.821-39.821 69.889-69.889 39.821 39.821c12.357-6.92 25.356-12.34 38.899-16.162v-56.297h98.853v56.264c13.543 3.839 26.542 9.243 38.899 16.162l39.821-39.821 69.889 69.889-39.821 39.821c6.92 12.357 12.34 25.356 16.162 38.899h56.297v98.853h-56.264c-3.839 13.559-9.243 26.558-16.162 38.915zM610.853 331.411h-49.723l-2.686-13.197c-3.773-18.551-11.039-36.048-21.632-52.046l-7.43-11.236 35.208-35.208-23.296-23.296-35.208 35.208-11.236-7.43c-15.981-10.594-33.495-17.859-52.046-21.632l-13.18-2.669v-49.723h-32.951v49.723l-13.197 2.686c-18.551 3.773-36.048 11.039-52.046 21.632l-11.236 7.43-35.208-35.208-23.296 23.296 35.208 35.208-7.43 11.236c-10.594 15.981-17.859 33.495-21.632 52.046l-2.669 13.18h-49.723v32.951h49.723l2.686 13.197c3.773 18.551 11.039 36.048 21.632 52.046l7.43 11.236-35.208 35.208 23.296 23.296 35.208-35.208 11.236 7.43c15.981 10.594 33.495 17.859 52.046 21.632l13.18 2.669v49.723h32.951v-49.723l13.197-2.686c18.551-3.773 36.048-11.039 52.046-21.632l11.236-7.43 35.208 35.208 23.296-23.296-35.208-35.208 7.43-11.236c10.594-15.981 17.859-33.495 21.632-52.046l2.669-13.18h49.723v-32.951zM413.147 430.264c-45.423 0-82.377-36.954-82.377-82.377s36.954-82.377 82.377-82.377c45.423 0 82.377 36.954 82.377 82.377s-36.954 82.377-82.377 82.377zM413.147 298.46c-27.25 0-49.426 22.176-49.426 49.426s22.176 49.426 49.426 49.426 49.426-22.176 49.426-49.426-22.176-49.426-49.426-49.426zM396.672 644.445h32.951v-32.951h-32.951v32.951zM330.77 644.445h32.951v-32.951h-32.951v32.951zM264.868 644.445h32.951v-32.951h-32.951v32.951zM198.966 644.445h32.951v-32.951h-32.951v32.951zM594.377 84.279h32.951v-32.951h-32.951v32.951zM528.475 84.279h32.951v-32.951h-32.951v32.951zM462.574 84.279h32.951v-32.951h-32.951v32.951zM396.672 84.279h32.951v-32.951h-32.951v32.951z" />
<glyph unicode="&#xe928;" glyph-name="apus-brick" d="M1022.122 477.27c-0.426 1.024-0.854 1.962-1.45 2.944-1.024 1.706-2.346 3.158-3.84 4.522-0.598 0.554-0.854 1.322-1.536 1.792-0.298 0.214-0.726 0.214-1.024 0.426-0.384 0.256-0.598 0.64-1.024 0.896l-95.786 54.742c12.8 12.33 21.206 29.014 21.206 47.872 0 25.472-14.208 48.426-37.034 59.904l-156.33 78.166 18.134 45.354 12.288 6.144c6.358-3.84 13.696-5.93 21.334-5.93 3.882 0 7.85 0.512 11.776 1.622l164.438 47.018c29.862 8.576 50.726 36.224 50.726 67.284 0 38.572-31.402 69.974-69.974 69.974h-19.626c-15.872 0-31.402-5.462-43.734-15.318l-119.638-95.702c-9.898-7.936-14.762-19.37-15.19-31.19l-18.73-9.344c-4.694-2.346-8.362-6.314-10.282-11.178l-19.84-49.578-59.606 29.782c-45.526 22.784-103.894 10.454-136.362-28.502l-181.76-218.112-313.386-83.584c-1.194-0.342-2.090-1.066-3.2-1.578-0.64-0.298-1.408-0.17-2.048-0.554-0.384-0.214-0.554-0.682-0.896-0.896-2.688-1.792-5.034-3.968-6.656-6.698-0.17-0.298-0.256-0.598-0.426-0.896-1.408-2.646-2.134-5.59-2.304-8.662 0-0.47-0.342-0.854-0.342-1.322v-298.668c0-7.638 4.096-14.72 10.752-18.518l298.666-170.666c3.286-1.878 6.954-2.816 10.582-2.816 2.090 0 4.266 0.298 6.358 0.982l682.666 213.334c8.918 2.774 14.976 11.008 14.976 20.352v298.666c0 0.726-0.426 1.322-0.47 2.048-0.212 2.048-0.64 3.968-1.408 5.888zM917.376 911.36c4.778 3.84 10.838 5.974 17.024 5.974h19.67c15.062 0 27.306-12.246 27.306-27.306 0-12.118-8.15-22.912-19.798-26.24l-153.13-43.776c-0.042 0.086-0.042 0.128-0.042 0.214-0.47 0.982-1.322 1.578-1.92 2.432l110.89 88.702zM543.83 721.664c13.27 15.872 32.726 25.002 53.418 25.002 10.71 0 21.462-2.56 31.19-7.296l62.678-31.318-4.31-10.752-207.146-124.33c-10.070-6.058-13.354-19.158-7.296-29.27 4.010-6.698 11.050-10.368 18.304-10.368 3.754 0 7.552 0.982 10.966 3.072l213.334 128c4.010 2.39 7.082 6.016 8.832 10.368l5.632 14.080 153.216-76.586c8.278-4.182 13.44-12.502 13.44-21.93 0-11.178-7.594-20.864-18.432-23.594l-10.368-2.602c-0.042 0-0.128-0.042-0.17-0.042l-574.166-143.53 250.878 301.096zM298.666-5.888l-256 146.262v249.514l256-146.262v-249.514zM322.518 279.126l-245.504 140.288 204.97 54.656-63.702-76.416c-5.888-7.126-6.57-17.194-1.664-25.002 3.926-6.314 10.838-9.984 18.048-9.984 1.706 0 3.456 0.214 5.206 0.682l71.68 17.92 61.482-36.906c3.456-2.048 7.254-3.030 10.966-3.030 7.21 0 14.294 3.67 18.304 10.326 6.058 10.112 2.816 23.21-7.296 29.27l-24.96 14.976 82.006 20.48 48.982-29.354c3.456-2.048 7.254-3.030 10.966-3.030 7.21 0 14.294 3.67 18.304 10.326 6.058 10.112 2.816 23.21-7.296 29.27l-12.416 7.424 82.048 20.522 36.352-21.846c3.498-2.048 7.296-3.030 11.008-3.030 7.21 0 14.294 3.67 18.304 10.326 6.016 10.070 2.816 23.082-7.168 29.184l82.048 20.522 23.85-14.294c3.456-2.090 7.254-3.072 10.966-3.072 7.21 0 14.294 3.67 18.304 10.326 3.882 6.486 3.584 14.080 0.426 20.394l82.902 20.736 79.958-45.696-627.074-195.968zM981.334 186.368l-640-200.022v253.996l640 199.978v-253.952z" />
<glyph unicode="&#xe929;" glyph-name="apus-bricklayer" d="M47.999-32.003h928c0 0 0 0 0 0 8.836 0 16 7.163 16 16 0 0 0 0 0 0.001v0 265.824c0 0 0 0 0 0 0 51.005-41.348 92.352-92.352 92.352-11.649 0-22.795-2.157-33.059-6.093l0.633 0.213-43.912-16.468c-4.987-1.905-10.754-3.009-16.779-3.009-15.678 0-29.611 7.471-38.433 19.047l-0.086 0.118c-14.794 19.482-37.949 31.951-64.019 32.015h-28.934l27.371 57.082c0.992 2.023 1.572 4.402 1.572 6.917 0 2.609-0.624 5.071-1.731 7.247l0.042-0.091-64 128c-2.685 5.286-8.082 8.845-14.31 8.845 0 0 0 0-0.001 0h-64v80c0 0 0 0 0 0 8.836 0 16 7.163 16 16 0 0 0 0 0 0.001v0 192.001c0 35.346-28.654 64-64 64s-64-28.654-64-64v0-82.884l-10.503-2.1c-13.090-2.726-28.133-4.287-43.541-4.287-21.758 0-42.789 3.113-62.672 8.917l1.578-0.395c-13.753 4.095-29.556 6.452-45.91 6.452-27.209 0-52.894-6.524-75.576-18.093l0.944 0.437c-10.587-5.377-23.084-8.527-36.318-8.527s-25.733 3.15-36.786 8.742l0.466-0.214c-14.754 7.516-32.174 11.928-50.622 11.951h-41.059c0 0 0 0 0 0-8.836 0-16-7.163-16-16 0 0 0 0 0-0.001v0-784c0 0 0 0 0 0 0-8.836 7.163-16 16-16 0 0 0 0 0.001 0v0zM543.999 687.997h-64v144h64zM463.999 639.997v-64h-64c0 0 0 0-0.001 0-6.228 0-11.625-3.559-14.268-8.754l-0.042-0.091-59.578-119.155h-6.112v192zM191.999 223.997v192h133.875l90.948-192zM63.999 223.997v192h96v-192zM287.999 447.997h-224v192h224zM63.999 191.997h224v-192h-224zM319.999 191.997h111.981l20.19-42.623c10.731-22.277 33.132-37.377 59.061-37.377 26.789 0 49.814 16.119 59.903 39.188l0.164 0.421 19.368 40.392h113.333v-192h-384zM959.999-0.003h-224v192h224zM703.98 335.997c15.653-0.038 29.55-7.521 38.343-19.095l0.087-0.119c14.845-19.483 38.060-31.93 64.183-31.93 10.036 0 19.644 1.837 28.504 5.194l-0.553-0.184 43.911 16.468c6.295 2.433 13.579 3.843 21.192 3.843 33.331 0 60.352-27.021 60.352-60.352 0 0 0-0.001 0-0.001v0-25.824h-353.99l53.703 112zM614.11 543.997l56.074-112.147-127.898-266.733q-0.167-0.352-0.318-0.709c-5.187-12.093-16.991-20.41-30.738-20.41-13.232 0-24.665 7.706-30.054 18.876l-0.087 0.199-127.297 268.735 56.095 112.189h54.111v-80c0-26.51 21.49-48 48-48s48 21.49 48 48v0 80zM527.999 463.997c0-8.837-7.163-16-16-16s-16 7.163-16 16v0 192h32zM511.999 895.997c17.665-0.020 31.979-14.335 32-31.997v-0.003l-64 0.001c0.021 17.664 14.335 31.979 31.998 31.999h0.002zM89.051 751.997c13.239-0.017 25.735-3.182 36.784-8.787l-0.465 0.214c14.758-7.497 32.181-11.889 50.629-11.889s35.871 4.392 51.279 12.187l-0.65-0.298c17.572 8.998 38.334 14.271 60.328 14.271 13.22 0 25.994-1.905 38.065-5.456l-0.952 0.24c20.941-6.189 45-9.75 69.891-9.75 17.626 0 34.836 1.786 51.457 5.186l-1.645-0.281 4.228 0.845v-76.483h-384v80z" />
<glyph unicode="&#xe92a;" glyph-name="apus-bricklayer-2" d="M47.999-32.003h928c0 0 0 0 0 0 8.836 0 16 7.163 16 16 0 0 0 0 0 0.001v0 265.824c0 0 0 0 0 0 0 51.005-41.348 92.352-92.352 92.352-11.649 0-22.795-2.157-33.059-6.093l0.633 0.213-43.912-16.468c-4.987-1.905-10.754-3.009-16.779-3.009-15.678 0-29.611 7.471-38.433 19.047l-0.086 0.118c-14.794 19.482-37.949 31.951-64.019 32.015h-28.934l27.371 57.082c0.992 2.023 1.572 4.402 1.572 6.917 0 2.609-0.624 5.071-1.731 7.247l0.042-0.091-64 128c-2.685 5.286-8.082 8.845-14.31 8.845 0 0 0 0-0.001 0h-64v80c0 0 0 0 0 0 8.836 0 16 7.163 16 16 0 0 0 0 0 0.001v0 192.001c0 35.346-28.654 64-64 64s-64-28.654-64-64v0-82.884l-10.503-2.1c-13.090-2.726-28.133-4.287-43.541-4.287-21.758 0-42.789 3.113-62.672 8.917l1.578-0.395c-13.753 4.095-29.556 6.452-45.91 6.452-27.209 0-52.894-6.524-75.576-18.093l0.944 0.437c-10.587-5.377-23.084-8.527-36.318-8.527s-25.733 3.15-36.786 8.742l0.466-0.214c-14.754 7.516-32.174 11.928-50.622 11.951h-41.059c0 0 0 0 0 0-8.836 0-16-7.163-16-16 0 0 0 0 0-0.001v0-784c0 0 0 0 0 0 0-8.836 7.163-16 16-16 0 0 0 0 0.001 0v0zM543.999 687.997h-64v144h64zM463.999 639.997v-64h-64c0 0 0 0-0.001 0-6.228 0-11.625-3.559-14.268-8.754l-0.042-0.091-59.578-119.155h-6.112v192zM191.999 223.997v192h133.875l90.948-192zM63.999 223.997v192h96v-192zM287.999 447.997h-224v192h224zM63.999 191.997h224v-192h-224zM319.999 191.997h111.981l20.19-42.623c10.731-22.277 33.132-37.377 59.061-37.377 26.789 0 49.814 16.119 59.903 39.188l0.164 0.421 19.368 40.392h113.333v-192h-384zM959.999-0.003h-224v192h224zM703.98 335.997c15.653-0.038 29.55-7.521 38.343-19.095l0.087-0.119c14.845-19.483 38.060-31.93 64.183-31.93 10.036 0 19.644 1.837 28.504 5.194l-0.553-0.184 43.911 16.468c6.295 2.433 13.579 3.843 21.192 3.843 33.331 0 60.352-27.021 60.352-60.352 0 0 0-0.001 0-0.001v0-25.824h-353.99l53.703 112zM614.11 543.997l56.074-112.147-127.898-266.733q-0.167-0.352-0.318-0.709c-5.187-12.093-16.991-20.41-30.738-20.41-13.232 0-24.665 7.706-30.054 18.876l-0.087 0.199-127.297 268.735 56.095 112.189h54.111v-80c0-26.51 21.49-48 48-48s48 21.49 48 48v0 80zM527.999 463.997c0-8.837-7.163-16-16-16s-16 7.163-16 16v0 192h32zM511.999 895.997c17.665-0.020 31.979-14.335 32-31.997v-0.003l-64 0.001c0.021 17.664 14.335 31.979 31.998 31.999h0.002zM89.051 751.997c13.239-0.017 25.735-3.182 36.784-8.787l-0.465 0.214c14.758-7.497 32.181-11.889 50.629-11.889s35.871 4.392 51.279 12.187l-0.65-0.298c17.572 8.998 38.334 14.271 60.328 14.271 13.22 0 25.994-1.905 38.065-5.456l-0.952 0.24c20.941-6.189 45-9.75 69.891-9.75 17.626 0 34.836 1.786 51.457 5.186l-1.645-0.281 4.228 0.845v-76.483h-384v80z" />
<glyph unicode="&#xe92b;" glyph-name="apus-build" d="M66.065 233.29h231.226v-33.032h-231.226v33.032zM66.065 299.355h231.226v-33.032h-231.226v33.032zM66.065 365.419h231.226v-33.032h-231.226v33.032zM66.065 431.484h231.226v-33.032h-231.226v33.032zM66.065 497.548h231.226v-33.032h-231.226v33.032zM957.935 827.871v66.065h-33.032v66.065h-165.161v-66.065h-33.032v-66.065h-66.065v-198.194h-66.065v132.129h-33.032v57.047l-148.645 130.065-148.645-130.065v-57.047h-33.032v-66.065h-33.032v99.097h-33.032v-99.097h-66.065v-66.065h-33.032v-66.065h-66.065v-627.613h1024v891.871h-66.065zM792.774 926.968h99.097v-33.032h-99.097v33.032zM412.903 905.018l88.18-77.147h-176.359l88.18 77.147zM132.129 662.71h99.097v-33.032h-99.097v33.032zM231.226-30.968h-99.097v165.161h99.097v-165.161zM330.323-30.968h-66.065v198.194h-165.161v-198.194h-66.065v561.548h165.161v33.032h-99.097v33.032h165.161v-33.032h-33.032v-33.032h99.097v-561.548zM462.452-30.968h-99.097v594.581h-66.065v66.065h-33.032v99.097h198.194v33.032h-165.161v33.032h231.226v-33.032h-33.032v-33.032h66.065v-99.097h-33.032v-66.065h-66.065v-594.581zM693.677-30.968h-99.097v165.161h99.097v-165.161zM792.774-30.968h-66.065v198.194h-165.161v-198.194h-66.065v561.548h165.161v33.032h-99.097v33.032h165.161v-33.032h-33.032v-33.032h99.097v-561.548zM990.968-30.968h-165.161v33.032h132.129v33.032h-132.129v66.065h132.129v33.032h-132.129v66.065h132.129v33.032h-132.129v66.065h132.129v33.032h-132.129v66.065h132.129v33.032h-132.129v66.065h132.129v33.032h-132.129v33.032h-66.065v33.032h198.194v33.032h-264.258v165.161h165.161v33.032h-99.097v33.032h165.161v-33.032h-33.032v-33.032h99.097v-825.806zM528.516 233.29h231.226v-33.032h-231.226v33.032zM528.516 299.355h231.226v-33.032h-231.226v33.032zM528.516 365.419h231.226v-33.032h-231.226v33.032zM528.516 431.484h231.226v-33.032h-231.226v33.032zM528.516 497.548h231.226v-33.032h-231.226v33.032zM726.71 728.774h231.226v-33.032h-231.226v33.032z" />
<glyph unicode="&#xe92c;" glyph-name="apus-car-parts" d="M974.452 960h-620.329c-21.355 0-40.25-13.609-47.021-33.875l-5.203-15.674h-54.156c-27.318 0-49.548-22.231-49.548-49.548v-21.388c-47.682-14.253-82.581-58.484-82.581-110.741 0-34.502 15.277-65.437 39.325-86.644-36.947-28.094-62.233-69.615-69.682-115.745-49.036-13.362-85.256-58.186-85.256-111.418 0-63.736 51.877-115.613 115.613-115.613v-99.097h74.405c6.144-23.866 15.624-46.691 28.309-68.096l-52.67-52.686 93.432-93.432 52.686 52.67c21.405-12.684 44.23-22.165 68.096-28.309v-74.405h132.129v74.405c23.866 6.144 46.691 15.624 68.096 28.309l52.686-52.67 93.432 93.432-52.67 52.686c12.684 21.405 22.165 44.23 28.309 68.096h74.405v132.129h-74.405c-6.144 23.866-15.624 46.691-28.309 68.096l47.5 47.517h203.859v247.742h49.548c27.318 0 49.548 22.231 49.548 49.548v165.161c0 27.318-22.231 49.548-49.548 49.548zM743.226 926.968c27.318 0 49.548-22.231 49.548-49.548s-22.231-49.548-49.548-49.548-49.548 22.231-49.548 49.548 22.231 49.548 49.548 49.548zM627.613 926.968h49.978c-10.488-13.841-16.946-30.885-16.946-49.548 0-45.535 37.046-82.581 82.581-82.581 18.663 0 35.708 6.458 49.548 16.946v-116.042h-165.161v231.226zM492.445 926.968c-6.838-19.175-25.005-33.032-46.509-33.032s-39.672 13.857-46.509 33.032h93.019zM148.645 728.774c0 45.535 37.046 82.581 82.581 82.581s82.581-37.046 82.581-82.581c0-45.535-37.046-82.581-82.581-82.581-16.929 0-32.685 5.153-45.799 13.94l-0.446 0.908c-0.165-0.083-0.297-0.182-0.462-0.264-21.62 14.914-35.873 39.804-35.873 67.997zM184.749 622.988c4.344-1.916 8.836-3.584 13.444-4.971v-122.318c-20.662 21.058-48.888 33.643-78.865 34.618 8.671 38.086 32.372 71.63 65.42 92.672zM115.613 332.387c-45.535 0-82.581 37.046-82.581 82.581s37.046 82.581 82.581 82.581c24.923 0 48.359-11.479 63.917-30.489l-13.89-13.89 52.67-52.686c-12.684-21.405-22.165-44.23-28.309-68.096h-74.389zM677.161 450.824l-45.816-45.816 7.449-11.247c16.516-24.956 27.879-52.257 33.726-81.177l2.692-13.229h68.013v-66.065h-68.013l-2.692-13.229c-5.847-28.92-17.21-56.221-33.726-81.177l-7.449-11.247 48.178-48.178-46.724-46.724-48.178 48.178-11.247-7.449c-24.956-16.516-52.257-27.879-81.177-33.726l-13.229-2.692v-68.013h-66.065v68.013l-13.229 2.692c-28.92 5.847-56.221 17.21-81.177 33.726l-11.247 7.449-48.178-48.178-46.724 46.724 48.178 48.178-7.449 11.247c-16.516 24.956-27.879 52.257-33.726 81.177l-2.692 13.229h-68.013v66.065h68.013l2.692 13.229c5.847 28.92 17.21 56.221 33.726 81.177l7.449 11.247-48.178 48.178 46.724 46.724 48.178-48.178 11.247 7.449c24.956 16.516 52.257 27.879 81.177 33.726l13.229 2.692v68.013h66.065v-68.013l13.229-2.692c28.92-5.847 56.221-17.21 81.177-33.726l11.247-7.449 48.178 48.178 44.362-44.379v-4.707zM891.871 481.032h-193.503l-65.586 65.586-52.686-52.67c-21.405 12.684-44.23 22.165-68.096 28.309v74.389h-132.129v-74.405c-23.866-6.144-46.691-15.624-68.096-28.309l-52.686 52.67-27.863-27.846v94.406c63.736 0 115.613 51.877 115.613 115.613s-51.877 115.613-115.613 115.613v16.516c0 9.117 7.399 16.516 16.516 16.516h77.973l12.734 38.251c2.263 6.772 8.572 11.297 15.674 11.297h10.901c7.68-37.64 41.043-66.065 80.913-66.065s73.233 28.424 80.913 66.065h67.733v-182.107c-13.841 10.488-30.885 16.946-49.548 16.946-45.535 0-82.581-37.046-82.581-82.581s37.046-82.581 82.581-82.581c39.87 0 73.233 28.424 80.913 66.065h265.926v-181.677zM594.581 679.226c0-27.318-22.231-49.548-49.548-49.548s-49.548 22.231-49.548 49.548 22.231 49.548 49.548 49.548 49.548-22.231 49.548-49.548zM990.968 745.29c0-9.117-7.399-16.516-16.516-16.516h-49.548v33.032h-33.032v-66.065h-66.065v181.677c0 18.663-6.458 35.708-16.946 49.548h83.010v-132.129h33.032v132.129h49.548c9.117 0 16.516-7.399 16.516-16.516v-165.161zM115.613 464.516c-27.318 0-49.548-22.231-49.548-49.548s22.231-49.548 49.548-49.548 49.548 22.231 49.548 49.548-22.231 49.548-49.548 49.548zM115.613 398.452c-9.117 0-16.516 7.399-16.516 16.516s7.399 16.516 16.516 16.516 16.516-7.399 16.516-16.516c0-9.117-7.399-16.516-16.516-16.516zM231.226 679.226c27.318 0 49.548 22.231 49.548 49.548s-22.231 49.548-49.548 49.548-49.548-22.231-49.548-49.548 22.231-49.548 49.548-49.548zM231.226 745.29c9.117 0 16.516-7.399 16.516-16.516s-7.399-16.516-16.516-16.516-16.516 7.399-16.516 16.516 7.399 16.516 16.516 16.516zM445.935 431.484c-91.070 0-165.161-74.091-165.161-165.161s74.091-165.161 165.161-165.161c31.315 0 61.82 8.82 88.213 25.517l-17.672 27.896c-21.091-13.329-45.469-20.381-70.54-20.381-72.853 0-132.129 59.276-132.129 132.129s59.276 132.129 132.129 132.129c72.853 0 132.129-59.276 132.129-132.129 0-35.113-13.626-68.162-38.367-93.101l23.453-23.255c30.918 31.149 47.946 72.473 47.946 116.356 0 91.070-74.091 165.161-165.161 165.161zM445.935 365.419c-54.652 0-99.097-44.445-99.097-99.097s44.445-99.097 99.097-99.097 99.097 44.445 99.097 99.097-44.445 99.097-99.097 99.097zM445.935 200.258c-36.435 0-66.065 29.63-66.065 66.065s29.63 66.065 66.065 66.065 66.065-29.63 66.065-66.065-29.63-66.065-66.065-66.065z" />
<glyph unicode="&#xe92d;" glyph-name="apus-cement" d="M367.070 749.218c-20.555-35.906-37.367-84.969-48.961-143.172-1.617-8.125 3.656-16.023 11.789-17.641 0.984-0.195 1.969-0.289 2.945-0.289 7.008 0 13.273 4.937 14.695 12.070 12.422 62.391 30.805 113.023 53.164 146.43 2.414 3.609 3.148 8.094 2.008 12.289-1.141 4.187-4.039 7.68-7.961 9.57-4.094 1.969-8.18 4.125-12.133 6.406-24.523 14.133-34.586 27.125-38.703 35.547-4.336 8.859-4.328 17.18 0.016 24.719 10.289 17.852 37.031 16.633 71.539-3.242 14.664-8.453 27.766-18.633 37.891-29.43 4.117-4.391 10.453-5.898 16.109-3.828 98.992 36.305 286.195 36.305 385.203 0 5.648-2.070 11.992-0.57 16.109 3.828 10.125 10.797 23.227 20.977 37.891 29.43 24.523 14.125 40.82 16.297 50.148 15.656 9.844-0.695 17.039-4.867 21.391-12.414 10.281-17.852-4.18-40.375-38.687-60.258-3.969-2.289-8.055-4.453-12.141-6.414-3.914-1.891-6.812-5.383-7.961-9.57-1.141-4.195-0.406-8.68 2.008-12.289 17.687-26.422 32.648-62.852 44.461-108.273 2.086-8.016 10.266-12.812 18.289-10.742 8.016 2.086 12.828 10.273 10.742 18.289-10.734 41.266-24.109 75.937-39.844 103.336 59.25 34.383 64.258 74.641 49.117 100.898-9.359 16.25-25.437 25.969-45.273 27.359-19.664 1.367-42.273-5.211-67.227-19.594-14.047-8.094-26.961-17.633-37.82-27.898-104.742 34.703-282.875 34.703-387.609 0-10.867 10.266-23.773 19.805-37.828 27.898-59.797 34.461-97.32 18.586-112.5-7.766-9.367-16.25-9.711-35.031-0.969-52.891 8.602-17.562 25.453-33.711 50.102-48.016zM1010.093 584.008c-1.398 8.164-9.141 13.648-17.312 12.266-8.164-1.398-13.656-9.148-12.258-17.312 30.672-179.75 7.758-388.382-52.164-474.976-2.461-3.547-3.266-7.977-2.219-12.164s3.844-7.719 7.672-9.703c2.656-1.367 5.25-2.781 7.711-4.195 34.508-19.891 48.969-42.414 38.687-60.266-4.352-7.547-11.547-11.719-21.391-12.414-9.344-0.656-25.625 1.531-50.148 15.664-14.141 8.148-26.883 17.945-36.852 28.328-4.047 4.211-10.164 5.695-15.687 3.805-9.875-3.383-20.805-6.523-32.477-9.328-8.062-1.937-13.023-10.031-11.086-18.086 1.93-8.055 10.023-13.008 18.078-11.086 9.234 2.219 18.055 4.633 26.344 7.219 10.633-9.867 23.164-19.047 36.703-26.844 22.797-13.141 43.641-19.781 62.055-19.773 1.742 0 3.469 0.055 5.172 0.18 19.836 1.391 35.914 11.109 45.281 27.359 14.719 25.539 10.391 64.312-44.367 98.047 35.562 60.391 50.641 145.648 57.023 208.75 9.133 90.344 6.023 187.844-8.766 274.531zM857.671 485.695v87.812c0 38.094-30.992 69.086-69.094 69.086h-253.023c-38.094 0-69.086-30.992-69.086-69.086v-87.812c0-38.094 30.992-69.086 69.086-69.086h253.031c38.094 0 69.086 30.992 69.086 69.086zM827.671 485.695c0-21.555-17.539-39.086-39.094-39.086h-253.023c-21.555 0-39.086 17.531-39.086 39.086v87.812c0 21.547 17.531 39.086 39.086 39.086h253.031c21.547 0 39.086-17.539 39.086-39.086zM709.452 107.703h-24.516c-6.266 71.328-56.781 131.891-126.039 150.594-4.617 48.406-26.305 93.148-61.82 127-37.648 35.898-86.82 55.656-138.781 55.852l-122.25 335.851c29.695 30.398 43.812 73.961 37.070 116.125-1.625 10.125-7.633 18.922-16.484 24.125-8.859 5.211-19.477 6.187-29.133 2.672l-186.648-67.937c-9.656-3.516-17.164-11.086-20.602-20.773-3.437-9.672-2.383-20.273 2.883-29.078 21.937-36.625 60.742-60.922 103.023-65.125l119.898-329.445c-23.703-15.742-44.242-36.602-60.016-61.68-4.414-7.016-2.305-16.273 4.711-20.687 7.008-4.406 16.266-2.297 20.68 4.711 58.781 93.453 186.531 108.437 264.953 33.68 32.625-31.109 51.555-72.992 53.312-117.945 0.266-6.937 5.258-12.781 12.070-14.133 65.953-13.078 113.828-71.461 113.836-138.812 0-8.281 6.711-15 15-15h38.852c23.32 0 42.289-18.969 42.289-42.281v-30.273h-721.742v30.273c0 23.312 18.969 42.281 42.281 42.281h28.461c8.281 0 15 6.719 15 15 0 39.336 26.484 74.062 64.406 84.445 7.914 2.164 12.617 10.289 10.555 18.227-4.383 16.883-6.172 34.375-5.32 51.992 0.516 10.656 2.047 21.305 4.539 31.641 1.945 8.047-3.016 16.148-11.062 18.094-8.055 1.937-16.156-3.008-18.102-11.062-2.93-12.164-4.727-24.687-5.336-37.219-0.773-15.961 0.305-31.836 3.211-47.375-38.945-16.008-66.531-51.992-71.922-93.742h-14.422c-39.859 0.008-72.289-32.422-72.289-72.281v-38.648c0-11.922 9.703-21.617 21.625-21.617h738.492c11.922 0 21.625 9.695 21.625 21.617v38.648c0 39.859-32.43 72.289-72.289 72.289zM48.875 817.547c-0.898 1.5-0.609 2.922-0.359 3.633 0.258 0.719 0.93 2.016 2.594 2.617l186.648 67.937c2.539 0.93 5.305-0.695 5.734-3.352 7.922-49.523-20.344-98.242-68.117-115.625-12.344-4.492-25.195-6.609-38.172-6.383-36.023 0.727-69.867 20.336-88.328 51.172zM157.859 737.64c9.43 1.312 18.719 3.625 27.781 6.922 9.070 3.297 17.672 7.5 25.727 12.547l115.828-318.234c-19.047-2.875-37.414-8.453-54.625-16.453zM476.718 148.867c6.211 4.195 13.477 6.414 21.016 6.414 20.742 0 37.617-16.875 37.617-37.617 0-8.281 6.719-15 15-15 8.289 0 15 6.719 15 15 0 37.289-30.328 67.617-67.617 67.617-13.547 0-26.625-3.992-37.812-11.555-6.859-4.641-8.664-13.961-4.031-20.828 4.641-6.859 13.961-8.664 20.828-4.031zM206.992 117.039c-5.008-6.602-3.711-16.008 2.898-21.008 2.703-2.055 5.883-3.047 9.039-3.047 4.539 0 9.023 2.047 11.969 5.945 6.469 8.531 16.305 13.422 27 13.422 8.266 0 16.227-3.008 22.414-8.477 6.203-5.492 15.68-4.906 21.164 1.297 5.492 6.203 4.914 15.68-1.297 21.172-11.672 10.32-26.687 16.008-42.281 16.008-20.164 0-38.719-9.227-50.906-25.312zM305.679 269.313c5.703 0 11.148 3.273 13.664 8.797 1.695 3.742 4.109 7.070 7.164 9.883 12.469 11.492 31.961 10.687 43.453-1.781 5.609-6.086 15.102-6.477 21.195-0.867 6.094 5.617 6.484 15.102 0.867 21.195-22.695 24.633-61.203 26.211-85.844 3.516-6.023-5.555-10.789-12.125-14.148-19.539-3.43-7.547-0.086-16.437 7.453-19.859 2.016-0.914 4.117-1.344 6.195-1.344z" />
<glyph unicode="&#xe92e;" glyph-name="apus-chat" d="M672 416h-320c-17.664 0-32-14.336-32-32s14.336-32 32-32h320c17.664 0 32 14.336 32 32s-14.336 32-32 32zM736 608h-448c-17.664 0-32-14.336-32-32s14.336-32 32-32h448c17.664 0 32 14.336 32 32s-14.336 32-32 32zM512 960c-282.751 0-512-200.575-512-448 0-141.409 75.040-267.296 192-349.408v-226.592l224.288 136.097c31.041-5.122 62.976-8.097 95.712-8.097 282.785 0 512 200.575 512 448s-229.215 448-512 448zM512 128c-37.376 0-73.472 4.352-108.161 11.744l-150.657-90.559 2.016 148.415c-115.486 69.471-191.199 184.287-191.199 314.4 0 212.063 200.575 384 448 384s448-171.937 448-384-200.575-384-448-384z" />
<glyph unicode="&#xe92f;" glyph-name="apus-city" d="M563.2 789.333h153.6v-34.133h-153.6v34.133zM563.2 686.933h153.6v-34.133h-153.6v34.133zM563.2 584.533h153.6v-34.133h-153.6v34.133zM563.2 482.133h153.6v-34.133h-153.6v34.133zM563.2 379.733h153.6v-34.133h-153.6v34.133zM563.2 277.333h153.6v-34.133h-153.6v34.133zM563.2 174.933h153.6v-34.133h-153.6v34.133zM563.2 72.533h153.6v-34.133h-153.6v34.133zM307.2 789.333h153.6v-34.133h-153.6v34.133zM307.2 686.933h153.6v-34.133h-153.6v34.133zM307.2 584.533h153.6v-34.133h-153.6v34.133zM307.2 482.133h153.6v-34.133h-153.6v34.133zM307.2 379.733h153.6v-34.133h-153.6v34.133zM307.2 277.333h153.6v-34.133h-153.6v34.133zM307.2 174.933h153.6v-34.133h-153.6v34.133zM307.2 72.533h153.6v-34.133h-153.6v34.133zM938.667-29.867v88.354c32.777 13.826 53.289 46.801 51.2 82.313 0 47.053-30.618 85.333-68.267 85.333s-68.267-38.281-68.267-85.333c-2.089-35.511 18.423-68.486 51.2-82.313v-88.354h-119.467v887.467h17.067c9.425 0 17.067 7.642 17.067 17.067v68.267c0 9.425-7.642 17.067-17.067 17.067h-580.267c-9.425 0-17.067-7.642-17.067-17.067v-68.267c0-9.425 7.642-17.067 17.067-17.067h17.067v-887.467h-119.467v88.354c32.777 13.826 53.289 46.801 51.2 82.313 0 47.053-30.618 85.333-68.267 85.333s-68.267-38.281-68.267-85.333c-2.089-35.511 18.423-68.486 51.2-82.313v-88.354h-85.333v-34.133h1024v34.133h-85.333zM85.333 96.939c-11.462 11.663-17.632 27.52-17.067 43.861 0 27.75 15.633 51.2 34.133 51.2s34.133-23.45 34.133-51.2c0.553-16.339-5.615-32.192-17.067-43.861v26.795h-34.133v-26.795zM238.933 925.867h546.133v-34.133h-546.133v34.133zM494.933-29.867h-221.867v887.467h221.867v-887.467zM750.933-29.867h-221.867v887.467h221.867v-887.467zM904.533 96.939c-11.462 11.663-17.632 27.52-17.067 43.861 0 27.75 15.633 51.2 34.133 51.2s34.133-23.45 34.133-51.2c0.553-16.339-5.615-32.192-17.067-43.861v26.795h-34.133v-26.795z" />
<glyph unicode="&#xe930;" glyph-name="apus-cityscape" d="M648.534 294.4c0 9.42-7.646 17.066-17.066 17.066s-17.066-7.646-17.066-17.066v-34.134c0-9.42 7.646-17.066 17.066-17.066s17.066 7.646 17.066 17.066v34.134zM631.466 106.666c-9.42 0-17.066-7.646-17.066-17.066v-68.266c0-9.42 7.646-17.066 17.066-17.066s17.066 7.646 17.066 17.066v68.266c0.002 9.42-7.644 17.066-17.066 17.066zM716.8 499.2c0 9.42-7.646 17.066-17.066 17.066s-17.066-7.646-17.066-17.066v-34.134c0-9.42 7.646-17.066 17.066-17.066s17.066 7.646 17.066 17.066v34.134zM648.534 396.8c0 9.42-7.646 17.066-17.066 17.066s-17.066-7.646-17.066-17.066v-34.134c0-9.42 7.646-17.066 17.066-17.066s17.066 7.646 17.066 17.066v34.134zM648.534 192c0 9.42-7.646 17.066-17.066 17.066s-17.068-7.646-17.068-17.066v-34.134c0-9.42 7.646-17.066 17.066-17.066s17.066 7.646 17.066 17.066v34.134zM716.8 396.8c0 9.42-7.646 17.066-17.066 17.066s-17.066-7.646-17.066-17.066v-34.134c0-9.42 7.646-17.066 17.066-17.066s17.066 7.646 17.066 17.066v34.134zM580.266 499.2c0 9.42-7.646 17.066-17.066 17.066s-17.066-7.646-17.066-17.066v-34.134c0-9.42 7.646-17.066 17.066-17.066s17.066 7.646 17.066 17.066v34.134zM648.534 499.2c0 9.42-7.646 17.066-17.066 17.066s-17.066-7.646-17.066-17.066v-34.134c0-9.42 7.646-17.066 17.066-17.066s17.066 7.646 17.066 17.066v34.134zM716.8 669.866v34.134c0 9.42-7.646 17.066-17.066 17.066s-17.066-7.646-17.066-17.066v-34.134c0-9.42 7.646-17.066 17.066-17.066s17.066 7.646 17.066 17.066zM580.266 396.8c0 9.42-7.646 17.066-17.066 17.066s-17.066-7.646-17.066-17.066v-34.134c0-9.42 7.646-17.066 17.066-17.066s17.066 7.646 17.066 17.066v34.134zM785.066 704c0 9.42-7.646 17.066-17.066 17.066s-17.066-7.646-17.066-17.066v-34.134c0-9.42 7.646-17.066 17.066-17.066s17.066 7.646 17.066 17.066v34.134zM563.2 311.466c-9.42 0-17.066-7.646-17.066-17.066v-34.134c0-9.42 7.646-17.066 17.066-17.066s17.066 7.646 17.066 17.066v34.134c0 9.42-7.646 17.066-17.066 17.066zM853.334 192c0 9.42-7.646 17.066-17.066 17.066s-17.068-7.646-17.068-17.066v-34.134c0-9.42 7.646-17.066 17.066-17.066s17.066 7.646 17.066 17.066v34.134zM836.266 106.666c-9.42 0-17.066-7.646-17.066-17.066v-68.266c0-9.42 7.646-17.066 17.066-17.066s17.066 7.646 17.066 17.066v68.266c0.002 9.42-7.644 17.066-17.066 17.066zM904.534 311.466c-9.42 0-17.066-7.646-17.066-17.066v-34.134c0-9.42 7.646-17.066 17.066-17.066s17.066 7.646 17.066 17.066v34.134c0 9.42-7.646 17.066-17.066 17.066zM631.466 652.8c9.42 0 17.066 7.646 17.066 17.066v72.004l170.668 42.668v-285.338c0-7.116 4.42-13.482 11.076-15.992l125.458-47.036v-175.906c0-9.42 7.646-17.066 17.066-17.066s17.066 7.646 17.066 17.066v187.734c0 7.116-4.42 13.482-11.076 15.992l-125.458 47.036v329.506c0 9.42-7.646 17.066-17.066 17.066s-17.066-7.646-17.066-17.066v-20.804l-191.88-47.974c-7.594-1.894-12.92-8.722-12.92-16.554v-85.334c0-9.422 7.646-17.068 17.066-17.068zM921.6 396.8c0 9.42-7.646 17.066-17.066 17.066s-17.066-7.646-17.066-17.066v-34.134c0-9.42 7.646-17.066 17.066-17.066s17.066 7.646 17.066 17.066v34.134zM853.334 396.8c0 9.42-7.646 17.066-17.066 17.066s-17.066-7.646-17.066-17.066v-34.134c0-9.42 7.646-17.066 17.066-17.066s17.066 7.646 17.066 17.066v34.134zM716.8 192c0 9.42-7.646 17.066-17.066 17.066s-17.066-7.646-17.066-17.066v-34.134c0-9.42 7.646-17.066 17.066-17.066s17.066 7.646 17.066 17.066v34.134zM853.334 294.4c0 9.42-7.646 17.066-17.066 17.066s-17.066-7.646-17.066-17.066v-34.134c0-9.42 7.646-17.066 17.066-17.066s17.066 7.646 17.066 17.066v34.134zM699.734 106.666c-9.42 0-17.066-7.646-17.066-17.066v-68.266c0-9.42 7.646-17.066 17.066-17.066s17.066 7.646 17.066 17.066v68.266c0 9.42-7.646 17.066-17.066 17.066zM716.8 294.4c0 9.42-7.646 17.066-17.066 17.066s-17.066-7.646-17.066-17.066v-34.134c0-9.42 7.646-17.066 17.066-17.066s17.066 7.646 17.066 17.066v34.134zM768 4.266c9.42 0 17.066 7.646 17.066 17.066v546.134c0 7.834-5.342 14.66-12.92 16.554l-273.066 68.268c-5.068 1.28-10.514 0.12-14.644-3.106-4.148-3.226-6.57-8.192-6.57-13.448v-375.466c0-9.42 7.646-17.066 17.066-17.066s17.066 7.646 17.066 17.066v353.602l238.934-59.734v-532.804c0.002-9.42 7.648-17.066 17.068-17.066zM375.466 601.6c0 9.42-7.646 17.066-17.066 17.066s-17.066-7.646-17.066-17.066v-34.134c0-9.42 7.646-17.066 17.066-17.066s17.066 7.646 17.066 17.066v34.134zM375.466 704c0 9.42-7.646 17.066-17.066 17.066s-17.066-7.646-17.066-17.066v-34.134c0-9.42 7.646-17.066 17.066-17.066s17.066 7.646 17.066 17.066v34.134zM238.934 192c0 9.42-7.646 17.066-17.066 17.066s-17.068-7.646-17.068-17.066v-34.134c0-9.42 7.646-17.066 17.066-17.066s17.066 7.646 17.066 17.066v34.134zM85.334 345.6c9.42 0 17.066 7.646 17.066 17.066v85.334h170.666v-426.666c0-9.42 7.646-17.066 17.066-17.066s17.066 7.646 17.066 17.066v443.732c0 9.42-7.646 17.066-17.066 17.066h-204.8c-9.42 0-17.066-7.646-17.066-17.066v-102.4c0-9.42 7.646-17.066 17.068-17.066zM273.066 601.6v-34.134c0-9.42 7.646-17.066 17.066-17.066s17.066 7.646 17.066 17.066v34.134c0 9.42-7.646 17.066-17.066 17.066s-17.066-7.646-17.066-17.066zM375.466 806.4c0 9.42-7.646 17.066-17.066 17.066s-17.066-7.646-17.066-17.066v-34.134c0-9.42 7.646-17.066 17.066-17.066s17.066 7.646 17.066 17.066v34.134zM221.866 106.666c-9.42 0-17.066-7.646-17.066-17.066v-68.266c0-9.42 7.646-17.066 17.066-17.066s17.066 7.646 17.066 17.066v68.266c0.002 9.42-7.644 17.066-17.066 17.066zM1006.934-29.866h-34.134v104.824c29.354 7.628 51.2 34.134 51.2 65.844 0 37.65-30.618 68.266-68.266 68.266s-68.266-30.618-68.266-68.266c0-31.71 21.846-58.214 51.2-65.844v-104.824h-426.668v69.99c38.894 7.936 68.266 42.394 68.266 83.61 0 47.052-38.28 85.334-85.334 85.334-47.052 0-85.334-38.28-85.334-85.334 0-41.216 29.372-75.674 68.266-83.61v-69.99h-375.464v172.39c38.894 7.936 68.266 42.394 68.266 83.61 0 47.052-38.28 85.334-85.334 85.334-47.052-0.002-85.332-38.282-85.332-85.334 0-41.216 29.372-75.674 68.266-83.61v-172.39h-51.2c-9.42 0-17.066-7.646-17.066-17.066s7.646-17.068 17.066-17.068h989.866c9.42 0 17.066 7.646 17.066 17.066s-7.644 17.068-17.064 17.068zM34.134 226.134c0 28.228 22.972 51.2 51.2 51.2s51.2-22.972 51.2-51.2-22.972-51.2-51.2-51.2-51.2 22.972-51.2 51.2zM443.734 123.734c0 28.228 22.972 51.2 51.2 51.2s51.2-22.972 51.2-51.2-22.972-51.2-51.2-51.2-51.2 22.972-51.2 51.2zM921.6 140.8c0 18.824 15.308 34.134 34.134 34.134s34.134-15.308 34.134-34.134c0-18.824-15.308-34.134-34.134-34.134s-34.134 15.31-34.134 34.134zM136.534 89.6v-68.266c0-9.42 7.646-17.066 17.066-17.066s17.066 7.646 17.066 17.066v68.266c0 9.42-7.646 17.066-17.066 17.066s-17.066-7.646-17.066-17.066zM238.934 396.8c0 9.42-7.646 17.066-17.066 17.066s-17.066-7.646-17.066-17.066v-34.134c0-9.42 7.646-17.066 17.066-17.066s17.066 7.646 17.066 17.066v34.134zM238.934 294.4c0 9.42-7.646 17.066-17.066 17.066s-17.066-7.646-17.066-17.066v-34.134c0-9.42 7.646-17.066 17.066-17.066s17.066 7.646 17.066 17.066v34.134zM136.534 396.8v-34.134c0-9.42 7.646-17.066 17.066-17.066s17.066 7.646 17.066 17.066v34.134c0 9.42-7.646 17.066-17.066 17.066s-17.066-7.646-17.066-17.066zM375.466 294.4c0 9.42-7.646 17.066-17.066 17.066s-17.066-7.646-17.066-17.066v-34.134c0-9.42 7.646-17.066 17.066-17.066s17.066 7.646 17.066 17.066v34.134zM443.734 499.2c0 9.42-7.646 17.066-17.066 17.066s-17.066-7.646-17.066-17.066v-34.134c0-9.42 7.646-17.066 17.066-17.066s17.066 7.646 17.066 17.066v34.134zM443.734 601.6c0 9.42-7.646 17.066-17.066 17.066s-17.066-7.646-17.066-17.066v-34.134c0-9.42 7.646-17.066 17.066-17.066s17.066 7.646 17.066 17.066v34.134zM443.734 396.8c0 9.42-7.646 17.066-17.066 17.066s-17.066-7.646-17.066-17.066v-34.134c0-9.42 7.646-17.066 17.066-17.066s17.066 7.646 17.066 17.066v34.134zM426.666 311.466c-9.42 0-17.066-7.646-17.066-17.066v-34.134c0-9.42 7.646-17.066 17.066-17.066s17.066 7.646 17.066 17.066v34.134c0.002 9.42-7.644 17.066-17.066 17.066zM443.734 704c0 9.42-7.646 17.066-17.066 17.066s-17.066-7.646-17.066-17.066v-34.134c0-9.42 7.646-17.066 17.066-17.066s17.066 7.646 17.066 17.066v34.134zM375.466 192c0 9.42-7.646 17.066-17.066 17.066s-17.066-7.646-17.066-17.066v-34.134c0-9.42 7.646-17.066 17.066-17.066s17.066 7.646 17.066 17.066v34.134zM221.866 516.266c9.42 0 17.066 7.646 17.066 17.066v125.988l58.828 29.406c5.786 2.902 9.438 8.806 9.438 15.274v143.052l85.334 42.666 85.334-42.666v-143.052c0-9.42 7.646-17.066 17.066-17.066s17.068 7.646 17.068 17.066v153.6c0 6.468-3.652 12.374-9.438 15.274l-92.962 46.474v23.586c0 9.42-7.646 17.066-17.066 17.066s-17.066-7.646-17.066-17.066v-23.586l-92.962-46.472c-5.786-2.902-9.438-8.806-9.438-15.274v-143.052l-58.828-29.406c-5.786-2.902-9.438-8.806-9.438-15.274v-136.534c-0.002-9.424 7.644-17.070 17.064-17.070zM375.466 396.8c0 9.42-7.646 17.066-17.066 17.066s-17.066-7.646-17.066-17.066v-34.134c0-9.42 7.646-17.066 17.066-17.066s17.066 7.646 17.066 17.066v34.134zM358.4 106.666c-9.42 0-17.066-7.646-17.066-17.066v-68.266c0-9.42 7.646-17.066 17.066-17.066s17.066 7.646 17.066 17.066v68.266c0 9.42-7.646 17.066-17.066 17.066zM443.734 806.4c0 9.42-7.646 17.066-17.066 17.066s-17.066-7.646-17.066-17.066v-34.134c0-9.42 7.646-17.066 17.066-17.066s17.066 7.646 17.066 17.066v34.134zM375.466 499.2c0 9.42-7.646 17.066-17.066 17.066s-17.066-7.646-17.066-17.066v-34.134c0-9.42 7.646-17.066 17.066-17.066s17.066 7.646 17.066 17.066v34.134z" />
</font>
</defs>
</svg>
