<?xml version="1.0" encoding="UTF-8"?>
<svg xmlns="http://www.w3.org/2000/svg" xmlns:xlink="http://www.w3.org/1999/xlink" version="1.2" >
<font id="Peter Jhons">
<font-face  font-family="Peter Jhons" units-per-em="1000" ascent="750" descent="-250" font-style="normal" font-weight="400" font-stretch="normal" cap-height="700" x-height="500" underline-position="-75" underline-thickness="50" />
<missing-glyph  horiz-adv-x="157" d="" />
<glyph glyph-name="NULL" d="" />
<glyph glyph-name="nonmarkingreturn" unicode="&#xd;" horiz-adv-x="157" d="" />
<glyph glyph-name="space" unicode="&#x20;" horiz-adv-x="157" d="" />
<glyph glyph-name="e" unicode="e" horiz-adv-x="105" d="M121 321 Q119 320 118.5 319 Q118 318 116 316 Q111 312 99 302 Q87 292 72.5 280.5 Q58 269 44 258 Q30 247 21 241 L12 235 Q4 230 -4 224.5 Q-12 219 -22 217 Q-33 214 -41.5 220.5 Q-50 227 -52 238 Q-54 246 -51 256 Q-48 266 -45 274 Q-38 292 -29 307 Q-24 315 -18 322.5 Q-12 330 -4 336 Q4 343 12.5 345.5 Q21 348 29 343 Q38 338 38 331 Q40 321 38.5 314 Q37 307 35 302 Q27 287 10.5 278 Q-6 269 -22 264 Q-27 253 -28 243 Q-28 242 -28.5 241.5 Q-29 241 -29 240 Q-21 243 -15 247.5 Q-9 252 -3 256 Q54 293 105 337 Q111 342 119 336 Q121 335 122 333 Q125 328 122 324 Q122 323 121.5 322.5 Q121 322 121 321 Z M13 317 Q9 314 6 310 Q3 306 0 302 Q9 309 13 317 Z " />
<glyph glyph-name="f" unicode="f" horiz-adv-x="100" d="M133 661 Q135 666 139.5 666 Q144 666 148 663 Q152 660 154.5 655.5 Q157 651 155 647 Q138 606 121 565.5 Q104 525 87 483 Q66 432 44.5 382 Q23 332 2 281 L-23 222 Q8 251 38.5 279.5 Q69 308 100 337 Q106 343 115 335 Q116 335 118 331 Q120 327 115 321 Q112 317 88.5 294 Q65 271 37 244 Q4 212 -35 174 Q-34 170 -33 166 Q-32 162 -31 159 Q-30 155 -30 152 Q-28 134 -30.5 116 Q-33 98 -38 81 Q-43 63 -50.5 45.5 Q-58 28 -66 11 Q-74 -6 -83 -23 Q-92 -40 -103 -56 Q-108 -63 -112 -69.5 Q-116 -76 -121 -82 Q-124 -86 -128 -90.5 Q-132 -95 -137 -100 Q-146 -106 -151.5 -106.5 Q-157 -107 -160 -104.5 Q-163 -102 -164.5 -98 Q-166 -94 -166 -92 Q-168 -82 -166 -69.5 Q-164 -57 -160.5 -45.5 Q-157 -34 -153.5 -24.5 Q-150 -15 -148 -11 Q-139 11 -130 32.5 Q-121 54 -112 75 L-67 183 L-63 192 L-63 194 L-52 220 Q-36 258 -20.5 294.5 Q-5 331 10 368 Q41 442 71.5 515 Q102 588 133 661 Z M-58 102 Q-56 110 -53 124 Q-50 138 -52 152 L-138 -60 L-139 -61 Q-134 -56 -131 -50.5 Q-128 -45 -124 -39 Q-108 -15 -96 10.5 Q-84 36 -73 63 L-58 102 Z " />
<glyph glyph-name="g" unicode="g" horiz-adv-x="125" d="M141 335 Q142 333 142.5 331 Q143 329 140 324 Q139 322 132.5 314.5 Q126 307 116 295.5 Q106 284 94 270 Q82 256 69 242 Q39 209 2 167 Q-21 115 -42.5 63 Q-64 11 -86 -42 Q-86 -42 -87 -44 Q-89 -48 -94.5 -59.5 Q-100 -71 -108 -83 Q-116 -95 -126 -104 Q-136 -113 -146 -112 L-146 -111 Q-153 -110 -156.5 -105 Q-160 -100 -161 -99 Q-166 -88 -165.5 -76 Q-165 -64 -165 -62 Q-163 -46 -157 -31 Q-151 -16 -145 -2 Q-97 96 -28 176 Q-26 178 -24.5 180 Q-23 182 -21 184 L-19 186 Q-10 208 -1 229 Q8 250 17 271 L14 269 Q9 265 3.5 261 Q-2 257 -8 254 Q-21 247 -36 251 Q-40 253 -44.5 257 Q-49 261 -48 266 Q-46 277 -41 287.5 Q-36 298 -30 307 Q-18 326 0 340 Q5 344 10 342 Q15 340 18 335 Q25 327 28 314 Q30 316 33 318.5 Q36 321 38 323 Q38 323 39 324 Q39 324 40 325 Q43 327 47 326 Q51 325 54.5 322 Q58 319 59.5 315 Q61 311 60 307 Q53 290 46 273.5 Q39 257 32 240 Q37 246 42.5 251 Q48 256 52 260 Q56 264 60 269 L125 337 Q130 341 139 336 Q140 336 140 335.5 Q140 335 141 335 Z M1 293 Q7 297 10 300 Q6 304 6 309 Q2 304 -1.5 300.5 Q-5 297 -8 292 Q-10 288 -14 282 Q-10 284 -6.5 287 Q-3 290 1 293 Z M-57 96 L-75 69 Q-89 47 -101 24.5 Q-113 2 -124 -21 Q-126 -23 -126 -26 Q-132 -39 -137 -52.5 Q-142 -66 -141 -80 Q-136 -76 -130.5 -67 Q-125 -58 -119 -47.5 Q-113 -37 -108 -25.5 Q-103 -14 -99 -6 Q-97 0 -95 3 L-94 6 L-57 96 Z " />
<glyph glyph-name="h" unicode="h" horiz-adv-x="172" d="M182 334 Q184 331 181 327 Q180 325 169 313 Q158 301 144.5 286 Q131 271 118.5 257.5 Q106 244 103 241 L93 232 Q90 229 84.5 225.5 Q79 222 74 224 Q73 224 72 224.5 Q71 225 70 225 L70 226 Q69 226 68 227 Q62 233 60 236 Q56 243 55.5 250 Q55 257 53 265 L53 268 L-26 198 Q-28 196 -30 196 L-31 196 L-32 196 Q-40 197 -45 202.5 Q-50 208 -51 210 Q-53 216 -52 219 Q-40 246 -28.5 273 Q-17 300 -6 327 Q14 376 34.5 424 Q55 472 75 521 Q95 569 116 617.5 Q137 666 157 714 Q159 719 163.5 719 Q168 719 172 716 Q176 713 178.5 708.5 Q181 704 179 700 Q168 673 156.5 646 Q145 619 133 591 Q113 543 92.5 494.5 Q72 446 52 398 Q47 385 41.5 373 Q36 361 31 348 L-12 246 Q-8 251 -4 255 Q0 259 4 262.5 Q8 266 12 270 Q20 277 27.5 284 Q35 291 43 298 Q44 299 44.5 299 Q45 299 46 300 Q48 302 52.5 304.5 Q57 307 61 305 L62 304 L63 304 Q66 301 68.5 297.5 Q71 294 72 291 L75 264 Q76 260 76 256.5 Q76 253 77 250 L77 249 L172 338 Q178 342 182 334 Z " />
<glyph glyph-name="i" unicode="i" horiz-adv-x="88" d="M31 379 Q26 379 23 383 Q20 387 20 392 Q22 403 33 403 Q38 403 41.5 399 Q45 395 44 390 Q44 379 31 379 Z M100 337 Q101 337 103 334.5 Q105 332 102 326 Q100 323 90 311.5 Q80 300 67 285 Q54 270 41.5 256 Q29 242 22 235 Q18 231 15.5 228.5 Q13 226 11 224 L10 223 Q7 220 4 217 Q1 214 -3 211 Q-5 209 -8 206.5 Q-11 204 -15 203 Q-23 200 -31.5 204.5 Q-40 209 -43 217 Q-46 224 -44 231 Q-42 238 -40 245 Q-38 251 -36 255 Q-35 257 -34.5 260 Q-34 263 -32 265 L-5 329 L-2 336 L-1 337 Q1 339 1 339 Q8 341 15 337 Q16 337 18.5 335 Q21 333 21 331 Q24 327 21 324 L13 304 L-16 235 Q-15 236 -14 236.5 Q-13 237 -12 238 L8 258 L12 262 L88 337 Q94 341 100 337 Z " />
<glyph glyph-name="j" unicode="j" horiz-adv-x="103" d="M117 337 Q119 336 120.5 332.5 Q122 329 118 323 Q117 320 105.5 303.5 Q94 287 78 263.5 Q62 240 43 213 Q24 186 8 163 Q-1 150 -9.5 137.5 Q-18 125 -26 112 Q-28 110 -28.5 109 Q-29 108 -30 107 Q-47 82 -62.5 58 Q-78 34 -93 8 Q-124 -44 -151.5 -97.5 Q-179 -151 -202 -208 Q-204 -213 -208 -213 Q-212 -213 -216 -210.5 Q-220 -208 -223 -204 Q-226 -200 -225 -196 Q-225 -195 -224.5 -194.5 Q-224 -194 -224 -193 Q-212 -164 -200 -135 Q-188 -106 -175 -77 Q-153 -26 -131.5 25.5 Q-110 77 -88 129 Q-68 178 -47 227 Q-26 276 -5 326 L0 338 L1 338 Q2 338 2.5 338.5 Q3 339 4 339 L8 339 Q9 339 9 338 L10 338 Q15 336 19 330.5 Q23 325 21 320 Q9 291 -3.5 262.5 Q-16 234 -28 205 L-82 76 L103 336 Q109 343 117 337 Z M27 379 Q22 379 19 383 Q16 387 16 392 Q18 403 29 403 Q34 403 37 399 Q40 395 40 390 Q38 379 27 379 Z " />
<glyph glyph-name="k" unicode="k" horiz-adv-x="160" d="M160 725 Q162 730 166.5 730 Q171 730 175 727 Q179 724 181.5 719.5 Q184 715 182 711 Q170 682 158.5 654 Q147 626 135 598 Q114 547 93 497.5 Q72 448 51 398 Q49 393 47 388.5 Q45 384 43 379 L10 300 L85 345 Q89 347 93.5 344.5 Q98 342 100 340 Q102 338 104 333 Q106 328 102 325 Q102 325 101 324 L6 263 Q9 237 13 218 Q16 201 19.5 188.5 Q23 176 27 179 Q31 183 33 186 Q38 191 42.5 196.5 Q47 202 52 207 L88 249 Q102 266 115.5 282 Q129 298 142 315 L151 326 L160 337 Q163 340 167.5 338.5 Q172 337 175 335 Q177 333 177.5 330 Q178 327 175 322 Q174 321 172 318 Q170 315 166 310 Q140 276 119 248 Q100 224 83 202.5 Q66 181 61 175 L51 165 Q49 163 46 160.5 Q43 158 40 156 Q33 153 25 155 L23 155 Q22 155 21.5 155.5 Q21 156 20 156 Q20 156 19 157 Q8 162 2 176.5 Q-4 191 -7 207 Q-11 225 -12 247 L-33 196 Q-51 153 -69 110.5 Q-87 68 -105 24 L-120 -11 Q-122 -17 -123 -19 Q-125 -24 -129 -24 Q-133 -24 -137 -21.5 Q-141 -19 -144 -15 Q-147 -11 -146 -7 L-146 -4 L-132 27 Q-122 51 -112.5 75 Q-103 99 -92 123 L-55 211 Q-44 240 -32 268 Q-20 296 -8 324 Q13 375 34 424.5 Q55 474 76 524 L160 725 L160 725 Z " />
<glyph glyph-name="l" unicode="l" horiz-adv-x="108" d="M161 726 Q163 730 167.5 730 Q172 730 176 727.5 Q180 725 182.5 720.5 Q185 716 183 712 L135 598 Q121 565 107.5 531.5 Q94 498 80 465 L79 465 Q69 441 55 405 Q41 369 25 329 Q9 289 -7.5 248.5 Q-24 208 -37 174 Q-39 169 -41 163.5 Q-43 158 -45 153 Q-50 141 -55 127 Q-60 113 -64 102 Q-62 104 -54 114 Q-46 124 -38 135 Q-28 147 -17 163 L108 336 Q111 340 115.5 338.5 Q120 337 123 335 Q125 334 126.5 331.5 Q128 329 126 325 Q126 323 118 312 Q118 312 107 295.5 Q96 279 79 254 Q62 229 42 200.5 Q22 172 4 147 Q-9 130 -21 115 Q-32 101 -43.5 87.5 Q-55 74 -64 66 Q-73 58 -79 58.5 Q-85 59 -87 61 Q-90 64 -94 70 Q-97 77 -96 83.5 Q-95 90 -93 98 Q-86 127 -76 154.5 Q-66 182 -55 210 L-55 211 L-7 325 Q14 375 34.5 424.5 Q55 474 76 525 Q97 576 118 625.5 Q139 675 161 726 Z " />
<glyph glyph-name="m" unicode="m" horiz-adv-x="209" d="M223 336 Q225 335 226.5 332.5 Q228 330 226 326 Q225 324 212.5 307 Q200 290 184 269.5 Q168 249 154 230.5 Q140 212 136 208 Q132 204 130 201 Q129 199 125 195 Q125 194 124 193 Q121 189 111 181 Q101 173 91 179 L90 179 Q80 186 80 196 Q79 204 81.5 212 Q84 220 86 228 Q88 236 91 244.5 Q94 253 97 261 Q67 226 36 188 Q33 185 28.5 186.5 Q24 188 21 190 Q18 192 15.5 196 Q13 200 15 205 Q23 225 30 245.5 Q37 266 44 286 Q24 269 6 250 Q-12 231 -29 211 Q-30 207 -36 209 L-37 209 Q-40 209 -43 212 Q-45 213 -48 216 L-48 217 Q-52 222 -50 227 Q-39 255 -28 282.5 Q-17 310 -3 336 Q-1 341 3 340.5 Q7 340 11 338 Q15 336 18 331 Q21 326 19 322 Q14 312 9.5 302.5 Q5 293 0 282 Q31 312 64 334 Q67 336 71.5 334 Q76 332 78 330 Q86 324 83 317 Q78 303 73.5 290.5 Q69 278 64 264 Q78 281 91.5 297 Q105 313 119 330 Q122 334 126.5 332.5 Q131 331 134 329 Q141 323 140 314 Q136 297 130.5 281 Q125 265 120 249 Q117 241 114.5 233.5 Q112 226 110 218 L190 314 Q195 319 199.5 325 Q204 331 209 337 Q211 340 215 339 Q219 338 222 336 L223 336 L223 336 Z " />
<glyph glyph-name="n" unicode="n" horiz-adv-x="142" d="M156 336 Q158 334 159.5 331 Q161 328 157 323 Q155 320 143 304.5 Q131 289 115.5 270.5 Q100 252 84.5 233.5 Q69 215 62 206 Q60 203 57 200 Q52 194 42 186 Q32 178 24 181 Q23 181 22 182 L21 182 Q10 189 10 200 Q10 217 18 233 Q26 249 30 265 Q14 246 -2 228 Q-18 210 -34 192 Q-37 188 -41.5 189.5 Q-46 191 -49 193 Q-57 199 -54 208 Q-52 214 -49.5 220 Q-47 226 -45 231 L-1 337 L0 338 Q1 338 2.5 338.5 Q4 339 6 339 Q7 339 13 337 Q17 335 19.5 331.5 Q22 328 19 321 L19 320 Q14 307 8.5 294 Q3 281 -2 268 Q11 283 24 298 Q37 313 50 328 Q52 330 52 331 Q54 333 58 334.5 Q62 336 67 334 L68 334 L68 333 Q69 333 70 332 Q78 326 75 317 Q70 293 59.5 269.5 Q49 246 41 222 Q43 224 45 226.5 Q47 229 49 231 Q57 240 65 249 Q73 258 81 267 Q92 281 105.5 296 Q119 311 142 337 Q144 340 148.5 339 Q153 338 156 336 Z " />
<glyph glyph-name="o" unicode="o" horiz-adv-x="105" d="M113 334 Q115 324 106 321 Q104 320 90 317.5 Q76 315 61 313 Q59 313 57.5 312.5 Q56 312 54 312 L32 308 Q39 298 37 286 Q37 269 27.5 254.5 Q18 240 7 228 Q2 222 -3.5 216.5 Q-9 211 -17 208 Q-37 201 -47 218 Q-52 225 -52 233.5 Q-52 242 -50 251 Q-48 260 -44 268.5 Q-40 277 -36 284 Q-31 294 -24.5 303.5 Q-18 313 -12 323 L-2 337 Q1 341 5 347 Q8 352 13.5 349.5 Q19 347 21 345 Q28 338 25 331 L105 339 L109 339 Q113 337 113 334 Z M-6 252 Q2 261 8.5 272.5 Q15 284 15 295 Q15 298 14.5 299.5 Q14 301 13 303 Q13 304 12 304 Q12 304 11 306 L10 307 L9 308 Q-4 289 -13 273 Q-21 260 -25 248 Q-27 243 -29 235 L-29 231 L-23 234 Q-18 238 -14 242.5 Q-10 247 -6 252 Z " />
<glyph glyph-name="p" unicode="p" horiz-adv-x="178" d="M188 333 Q190 326 184 324 Q171 319 154 312 Q137 305 121 298 Q103 290 84 281 Q84 279 83 279 Q78 267 70 256.5 Q62 246 53 236 Q44 228 33 220.5 Q22 213 10 209 Q3 207 -3.5 206 Q-10 205 -17 209 Q-22 212 -23 214 Q-27 208 -30 198 Q-53 144 -75 91 Q-97 38 -120 -16 Q-143 -70 -165 -123.5 Q-187 -177 -210 -231 Q-212 -236 -216.5 -236 Q-221 -236 -225 -233 Q-229 -230 -231.5 -225.5 Q-234 -221 -232 -217 Q-219 -187 -206.5 -156.5 Q-194 -126 -181 -95 Q-158 -41 -136.5 12 Q-115 65 -92 119 Q-69 173 -47 226.5 Q-25 280 -2 334 Q-1 334 -1 336.5 Q-1 339 2 339 Q4 339 8.5 339 Q13 339 15 338 Q19 336 21 334 Q22 329 21 325 Q23 327 25.5 327.5 Q28 328 30 330 Q36 334 42 336.5 Q48 339 54 341 Q64 344 72 342 Q81 339 86 331 Q92 323 92 312 Q132 327 173 338 Q179 339 183 338 Q184 337 185.5 336 Q187 335 188 333 Z M13 239 Q15 237 20.5 241 Q26 245 33 251 Q41 257 50 267 Q39 259 30 254 Q22 249 16.5 245 Q11 241 13 239 Z M68 319 Q59 316 48 311 Q39 306 27 297 Q15 288 2 273 L-5 258 Q0 263 6 266.5 Q12 270 17 274 Q41 290 64 300 Q65 302 65 303 Q65 304 66 305 Q67 307 67 310 Q67 313 68 315 L68 319 Z " />
<glyph glyph-name="q" unicode="q" horiz-adv-x="116" d="M60 343 Q62 342 65 340.5 Q68 339 71 334 Q73 331 71 326 Q58 295 45 264 Q32 233 19 202 Q-4 147 -27 92.5 Q-50 38 -73 -18 Q-96 -73 -119 -127.5 Q-142 -182 -165 -238 Q-167 -243 -171.5 -242.5 Q-176 -242 -180 -239.5 Q-184 -237 -187 -232.5 Q-190 -228 -188 -224 Q-174 -192 -161.5 -161.5 Q-149 -131 -136 -99 Q-113 -44 -90 10.5 Q-67 65 -44 120 Q-32 149 -20 176.5 Q-8 204 3 233 Q3 232 2.5 232 Q2 232 2 231 Q-11 220 -25 221 Q-33 223 -39 228.5 Q-45 234 -49 241 Q-57 256 -50.5 270.5 Q-44 285 -36 297 Q-21 321 1 340 Q6 345 15 340 Q30 331 32 311 Q36 317 37 320 L46 335 Q48 338 50 340 Q54 344 60 343 Z M9 279 Q14 285 18 291 Q22 297 26 303 Q24 302 23 302.5 Q22 303 20 303 Q13 307 10 312 Q2 304 -5 295 Q-12 286 -18 276 Q-22 270 -25.5 263.5 Q-29 257 -29 250 L-29 245 L-28 244 L-27 244 Q-21 246 -16.5 251 Q-12 256 -8 260 Q-3 265 1 269.5 Q5 274 9 279 Z " />
<glyph glyph-name="r" unicode="r" horiz-adv-x="128" d="M73 230 Q72 229 72 228 Q61 215 49 206 Q43 202 35.5 199 Q28 196 20 199 Q10 204 7 212.5 Q4 221 4 231 Q4 245 8 258 Q12 271 19 283 Q2 278 -8 288 Q-14 295 -13.5 302 Q-13 309 -10 317 Q-8 322 -5.5 327 Q-3 332 -1 337 Q0 342 5 341.5 Q10 341 13 339 Q24 332 21 323 Q20 317 16 312 Q17 312 18 313 Q26 319 32.5 326 Q39 333 46 340 Q48 342 50 342 Q55 343 60 338.5 Q65 334 67 329 Q68 326 67 323 L66 322 Q55 301 46 283 Q38 267 32.5 251 Q27 235 28 224 Q37 229 46 240 Q57 252 66.5 264 Q76 276 87 288 Q98 301 108 312.5 Q118 324 128 337 Q131 340 135.5 338.5 Q140 337 143 335 Q144 334 146 331.5 Q148 329 146 325 Q145 323 136.5 312 Q128 301 117 286.5 Q106 272 95 258 Q84 244 78 236 Q76 234 75.5 233 Q75 232 73 230 Z " />
<glyph glyph-name="s" unicode="s" horiz-adv-x="125" d="M134 338 Q136 336 136 332.5 Q136 329 136 327 Q136 325 135.5 325 Q135 325 135 324 L132 322 L20 230 Q16 217 7.5 206.5 Q-1 196 -10 187 Q-11 186 -12 185.5 Q-13 185 -14 184 Q-18 181 -22 179 Q-26 177 -31 180 Q-44 187 -37 198 Q-30 209 -22 219 Q-14 229 -5 239 Q-4 240 -4 241 Q1 253 1 263 Q1 273 -6 284 Q-11 295 -14.5 307 Q-18 319 -10 331 Q-3 340 9 343 Q21 346 32 344 Q40 342 45.5 336.5 Q51 331 52 323 Q52 310 45 300 Q39 291 30 298 Q27 300 23.5 304.5 Q20 309 22 314 Q24 316 26 322 Q18 320 12 316 Q5 309 9 299 L12 293 Q15 287 18 281 Q21 275 22 267 Q23 266 23 263 L23 262 L125 338 Q126 339 128 339 Q132 339 134 338 Z " />
<glyph glyph-name="t" unicode="t" horiz-adv-x="68" d="M472 464 Q474 461 474.5 457 Q475 453 471 451 Q467 449 464 448 Q461 447 457 445 Q454 443 450 445 Q446 447 442 450 L316 447 Q253 445 190.5 440.5 Q128 436 65 430 Q60 417 54.5 404.5 Q49 392 44 380 Q13 306 -17.5 233.5 Q-48 161 -79 87 Q-110 13 -140.5 -60 Q-171 -133 -201 -206 Q-203 -211 -207.5 -211 Q-212 -211 -216 -208 Q-220 -205 -223 -200.5 Q-226 -196 -224 -192 Q-207 -150 -189.5 -110 Q-172 -70 -155 -28 Q-124 46 -93.5 118.5 Q-63 191 -32 265 Q-15 306 1.5 346 Q18 386 35 427 Q5 423 -25 420 Q-55 417 -85 412 Q-119 407 -152 403 Q-185 399 -219 400 Q-224 400 -227.5 403.5 Q-231 407 -232 411.5 Q-233 416 -231.5 419 Q-230 422 -224 422 Q-186 421 -149.5 427 Q-113 433 -76 438 Q-46 442 -15.5 445 Q15 448 46 452 Q57 478 68 505 Q79 532 90 558 Q92 563 96.5 563 Q101 563 105 560 Q109 557 111.5 552.5 Q114 548 113 544 Q103 521 94 499 Q85 477 75 454 Q104 457 132.5 459.5 Q161 462 190 464 Q323 471 457 473 Q467 473 472 464 Z " />
<glyph glyph-name="u" unicode="u" horiz-adv-x="136" d="M152 335 Q153 334 154.5 331 Q156 328 153 322 L153 321 Q149 313 146 309 Q143 304 140 298 Q137 292 134 287 Q129 280 125.5 273 Q122 266 117 259 Q112 251 107.5 244 Q103 237 98 229 Q93 222 88 215.5 Q83 209 77 202 Q72 197 67.5 191.5 Q63 186 58 181 Q53 177 48.5 174 Q44 171 38 170 L35 170 Q25 170 17.5 177 Q10 184 8 194 Q6 203 6.5 212.5 Q7 222 9 232 Q8 231 7.5 230 Q7 229 6 228 Q1 223 -4 219.5 Q-9 216 -17 218 Q-25 219 -30.5 225 Q-36 231 -37 239 Q-38 246 -36 251.5 Q-34 257 -32 263 Q-29 271 -26.5 277.5 Q-24 284 -21 291 Q-15 305 -9 319 Q-3 333 3 347 Q5 351 9.5 351 Q14 351 18.5 348 Q23 345 25.5 341 Q28 337 26 333 L2 279 Q0 273 -2.5 267 Q-5 261 -7 256 Q-7 254 -7.5 253.5 Q-8 253 -8 252 Q-4 258 0 262 Q28 297 51 339 Q53 343 57.5 343 Q62 343 66 340 Q70 337 72.5 333 Q75 329 73 325 Q64 308 56 290.5 Q48 273 42 255 Q37 240 33.5 224.5 Q30 209 31 194 L37 197 Q43 202 48.5 208 Q54 214 59 220 Q70 233 79 247 Q88 261 98 275 Q108 290 117.5 305 Q127 320 136 335 Q140 342 151 337 Q151 336 152 335 Z " />
<glyph glyph-name="v" unicode="v" horiz-adv-x="126" d="M85 372 Q87 377 91.5 377 Q96 377 100 374 Q104 371 106.5 366.5 Q109 362 108 358 Q104 349 98 340.5 Q92 332 86 324 Q80 316 74.5 307 Q69 298 63 290 Q52 275 42 260 Q32 245 22 230 Q17 222 12 215 Q7 208 1 200 Q-5 192 -11 191 Q-21 190 -28 200 Q-33 208 -32 216.5 Q-31 225 -29 233 Q-27 241 -25.5 250 Q-24 259 -22 268 Q-17 285 -12 301.5 Q-7 318 -1 335 Q1 340 5.5 339.5 Q10 339 14 337 Q18 334 20.5 329.5 Q23 325 21 320 Q16 306 11.5 290.5 Q7 275 2 260 Q1 255 0.5 251 Q0 247 -2 243 Q1 246 3 250 Q11 261 17.5 270.5 Q24 280 31 291 Q39 302 45.5 312 Q52 322 60 333 Q63 338 66.5 343 Q70 348 73 353 Q81 363 85 372 Z " />
<glyph glyph-name="w" unicode="w" horiz-adv-x="145" d="M161 330 Q161 327 160 326 Q158 322 154 318 Q147 312 135 305 Q123 298 111 293 Q99 288 90.5 284 Q82 280 81 280 L81 275 Q80 271 79.5 267 Q79 263 78 258 Q76 249 73 240.5 Q70 232 65 224 Q60 216 53 208.5 Q46 201 36 199 Q25 198 15.5 204.5 Q6 211 1 221 Q0 223 0 224.5 Q0 226 -1 228 L-27 202 Q-30 199 -34 199.5 Q-38 200 -41 202 Q-49 207 -49 216 Q-50 224 -47 231.5 Q-44 239 -42 247 L-30 277 Q-24 292 -17 307 Q-10 322 -2 336 Q0 340 4.5 340 Q9 340 13 338 Q16 336 19 331 Q22 326 20 322 Q4 292 -7 264 L-10 258 L2 270 Q7 276 14.5 270 Q22 264 23 259 Q25 252 24 246 Q23 240 22 234 Q22 231 21.5 228.5 Q21 226 22 224 Q23 223 23 222 L24 222 L26 222 Q31 225 32 226 Q36 230 39.5 234 Q43 238 45 243 Q50 251 52 260 Q54 269 56 278 Q51 278 48 279 Q34 284 33 297 Q32 310 36 321 Q39 330 46.5 338 Q54 346 65 341 Q75 337 79 323 Q79 322 80 319 Q81 317 81 313.5 Q81 310 82 306 Q85 307 87.5 308 Q90 309 92 310 Q100 314 107.5 317 Q115 320 123 325 Q127 327 131 329.5 Q135 332 143 337 L144 338 Q145 338 145.5 338.5 Q146 339 148 339 L152 339 Q153 339 157 337 Q157 336 158 336 Q159 335 159 334.5 Q159 334 160 333 Q160 331 161 331 L161 330 L161 330 Z " />
<glyph glyph-name="x" unicode="x" horiz-adv-x="131" d="M146 323 Q144 320 131 301.5 Q118 283 102 261 Q86 239 72 219.5 Q58 200 54 195 L51 192 Q47 187 42.5 182 Q38 177 31 174 Q22 171 14 175 Q6 179 1 187 Q-4 191 -5 199 Q-19 181 -31.5 163.5 Q-44 146 -57 129 Q-60 125 -65.5 127 Q-71 129 -74 132 Q-82 140 -77 148 Q-60 171 -43 193 Q-26 215 -9 238 Q-9 243 -9 247.5 Q-9 252 -8 257 Q-8 266 -7 275.5 Q-6 285 -5 294 Q-4 304 -4 313.5 Q-4 323 -2 333 Q-1 339 3 339.5 Q7 340 11 338 Q15 336 18.5 332 Q22 328 21 324 Q19 314 19 304.5 Q19 295 18 285 Q18 282 17.5 279 Q17 276 17 273 Q31 291 44 309 Q57 327 71 344 Q74 349 79.5 346.5 Q85 344 87 342 Q90 339 92 334.5 Q94 330 91 326 Q71 300 52.5 275 Q34 250 14 224 Q14 217 15 214 Q15 204 17 199 L17 197 Q19 197 20 198 Q23 200 27 206 Q32 211 36.5 217 Q41 223 46 229 Q57 243 66.5 256 Q76 269 87 282 Q98 296 109 309.5 Q120 323 131 337 Q133 340 137.5 339 Q142 338 145 336 Q147 334 148 331 Q149 328 146 323 Z " />
<glyph glyph-name="y" unicode="y" horiz-adv-x="131" d="M70 333 Q76 333 82 326.5 Q88 320 85 314 Q73 284 60.5 253.5 Q48 223 35 193 Q12 139 -10 85.5 Q-32 32 -55 -22 Q-78 -76 -100 -129 Q-122 -182 -145 -236 Q-147 -241 -151.5 -241 Q-156 -241 -160 -238 Q-164 -235 -166.5 -230.5 Q-169 -226 -167 -222 Q-154 -192 -142 -161.5 Q-130 -131 -117 -101 Q-94 -47 -72 6.5 Q-50 60 -27 114 L27 243 Q19 234 9 225 Q3 220 -3 217.5 Q-9 215 -17 218 Q-34 225 -34 242 Q-34 254 -31 267 Q-28 280 -23 291 Q-19 303 -13 314.5 Q-7 326 0 337 Q2 339 4 339 L6 339 Q16 339 22 333 Q24 332 25 328.5 Q26 325 21 319 L19 317 Q12 306 6.5 294 Q1 282 -3 270 Q-8 258 -9 245 Q2 254 10.5 264 Q19 274 28 285 Q37 296 46 307.5 Q55 319 63 330 Q65 333 70 333 Z " />
<glyph glyph-name="z" unicode="z" horiz-adv-x="177" d="M195 325 Q194 324 188 318 Q182 312 173 302.5 Q164 293 152.5 282 Q141 271 129 259 Q101 232 66 197 Q71 182 67.5 165.5 Q64 149 58 135 Q39 87 5 45 Q-11 25 -28.5 8.5 Q-46 -8 -69 -21 Q-80 -27 -93.5 -32 Q-107 -37 -120 -32 Q-135 -25 -139 -11 Q-141 -5 -140 2 Q-139 9 -137 15 Q-132 27 -124.5 37.5 Q-117 48 -109 58 Q-100 69 -90 79 Q-80 89 -70 99 Q-50 120 -30 140 Q-10 160 10 180 Q18 188 25 195 Q32 202 40 209 L38 211 L37 212 L35 214 L33 214 Q32 215 31.5 215 Q31 215 30 216 L21 216 Q10 216 1 222 Q-13 231 -10 245 Q-8 250 -3.5 254 Q1 258 5 262 Q10 267 14.5 271 Q19 275 24 280 Q36 292 47.5 304.5 Q59 317 66 332 Q36 326 12 313 Q8 311 3 313.5 Q-2 316 -5 320 Q-8 324 -8.5 328 Q-9 332 -4 334 Q14 343 33.5 349.5 Q53 356 73 358 Q85 360 91 350 Q96 342 93.5 333 Q91 324 90 322 Q90 321 89 320 Q78 297 60.5 279.5 Q43 262 26 245 L20 239 L22 239 Q41 236 53 222 Q84 251 115 279.5 Q146 308 177 337 Q185 343 193 335 Q195 333 196 331 Q197 329 195 325 Z M43 173 Q43 174 43.5 174.5 Q44 175 44 176 Q37 169 30.5 163 Q24 157 18 150 Q-2 131 -20.5 112 Q-39 93 -58 73 Q-67 63 -76 53.5 Q-85 44 -93 34 Q-101 25 -108 15 Q-115 5 -117 -6 L-117 -11 L-116 -11 Q-104 -9 -94 -4 Q-72 5 -55 21 Q-36 37 -21 55.5 Q-6 74 7 94 Q21 116 31 137 Q35 145 38 154.5 Q41 164 43 173 Z " />
<glyph glyph-name="d" unicode="d" horiz-adv-x="116" d="M170 630 Q172 635 176.5 635 Q181 635 185 632 Q189 629 191.5 624.5 Q194 620 192 616 Q178 581 164.5 547 Q151 513 137 478 Q128 456 119.5 434 Q111 412 101 390 Q99 384 91.5 367 Q84 350 74 329 Q52 280 34 237 Q18 200 3 164.5 Q-12 129 -19 113 Q-30 88 -40 63.5 Q-50 39 -60 15 Q-68 -3 -75 -21 Q-82 -39 -88 -58 Q-92 -68 -93 -72 Q-95 -76 -98 -80 Q-104 -88 -112 -85 Q-120 -83 -119 -73 Q-118 -63 -116 -58 Q-115 -57 -115 -56 Q-113 -51 -111.5 -46.5 Q-110 -42 -108 -37 Q-105 -27 -101.5 -18 Q-98 -9 -94 1 Q-86 20 -78.5 38.5 Q-71 57 -63 76 Q-46 116 -30 155 Q-14 194 3 233 Q2 233 0 231 Q-11 220 -26 221 Q-34 223 -40 228.5 Q-46 234 -50 241 Q-58 256 -51.5 270.5 Q-45 285 -37 297 Q-22 321 0 340 Q6 346 13 340 Q29 331 31 311 Q35 317 36 320 Q43 330 48 341 Q50 344 51 347.5 Q52 351 54 354 Q83 423 112 492 Q141 561 170 630 Z M-9 260 Q-4 265 0 269.5 Q4 274 8 279 Q13 285 17 291 Q21 297 25 303 Q23 302 22 302.5 Q21 303 19 303 Q12 307 9 312 Q1 304 -6 295 Q-13 286 -19 276 Q-23 270 -26.5 263.5 Q-30 257 -30 250 L-30 245 Q-30 245 -29 244 L-28 244 Q-22 246 -17.5 251 Q-13 256 -9 260 Z " />
<glyph glyph-name="A" unicode="A" horiz-adv-x="812" d="M923 711 Q923 709 921 707 Q917 699 913.5 690.5 Q910 682 907 674 Q903 666 900 659.5 Q897 653 894 646 Q890 636 886 626.5 Q882 617 877 607 Q866 583 855 559 Q844 535 833 510 Q811 461 790.5 412 Q770 363 750 313 Q730 264 712.5 215 Q695 166 679 115 Q663 66 651.5 15.5 Q640 -35 638 -87 Q638 -110 640 -134 Q642 -158 653 -179 Q663 -197 676 -207 Q681 -212 691 -216 Q696 -218 700 -218.5 Q704 -219 709 -220 Q713 -220 717 -224 Q721 -228 722.5 -232 Q724 -236 722.5 -239.5 Q721 -243 715 -242 Q709 -242 703.5 -241 Q698 -240 693 -238 Q670 -230 653.5 -212.5 Q637 -195 628 -173 Q618 -149 616 -123 Q614 -97 615 -71 Q617 -17 629.5 35 Q642 87 659 138 Q676 190 695 240.5 Q714 291 734 342 Q736 347 737.5 351.5 Q739 356 741 361 Q724 329 705.5 299 Q687 269 669 239 Q650 209 630.5 179.5 Q611 150 590 121 Q548 64 502.5 11 Q457 -42 403 -88 Q389 -99 375 -110 Q361 -121 347 -131 Q332 -142 317 -151 Q302 -160 285 -168 Q252 -182 215 -187.5 Q178 -193 143 -184 Q108 -176 80 -155.5 Q52 -135 29 -108 Q7 -80 -7 -48 Q-21 -16 -29 19 Q-45 94 -36 171.5 Q-27 249 -4 321 Q18 390 52 453 Q86 516 132 571 Q155 599 181 624 Q207 649 236 669 Q295 710 363 729 Q432 748 503 743 Q537 741 571 734.5 Q605 728 636 714 Q665 702 692 683 Q719 664 740 640 Q761 616 773.5 587 Q786 558 787 525 Q788 520 783.5 518.5 Q779 517 775 519 Q764 523 764 534 Q762 563 752 587 Q749 594 745 601 Q742 607 739 611 L730 623 Q729 625 728 626 Q727 627 726 629 Q725 629 723 631 Q723 631 722 633 Q717 638 711.5 643 Q706 648 701 653 Q695 658 690.5 661 Q686 664 679 669 Q653 686 625.5 696.5 Q598 707 569 713 Q501 726 432.5 717.5 Q364 709 303 678 Q240 647 191.5 597 Q143 547 105 490 Q67 431 39.5 365.5 Q12 300 -2 230 Q-10 194 -13 157 Q-16 120 -14 83 Q-12 48 -5 13.5 Q2 -21 17 -52 Q31 -81 51 -104 Q70 -128 96 -143 Q125 -161 156 -165 Q173 -167 190 -166 Q207 -165 224 -161 Q258 -153 287.5 -136.5 Q317 -120 345 -100 Q372 -80 397.5 -57 Q423 -34 446 -10 Q495 40 537 95 Q579 150 617 208 Q656 268 691.5 328.5 Q727 389 759 453 Q777 489 794.5 525.5 Q812 562 831 598 L831 599 Q833 603 835 606.5 Q837 610 839 615 Q846 629 853 642 Q860 655 867 669 Q873 680 879 692 Q885 704 891 716 Q893 718 893.5 720.5 Q894 723 896 725 Q898 727 903 729 Q908 731 913 729 Q918 727 921 722 Q923 718 924 717 Q924 713 923 711 Z " />
<glyph glyph-name="B" unicode="B" horiz-adv-x="584" d="M494 383 Q506 358 509.5 330.5 Q513 303 511 276 Q509 244 501.5 211.5 Q494 179 481 149 Q457 91 419.5 41 Q382 -9 337 -54 Q292 -97 239 -138 Q213 -158 185.5 -177 Q158 -196 129 -211 Q100 -226 68.5 -234 Q37 -242 5 -237 Q-21 -233 -44 -220 Q-67 -207 -84 -187 Q-119 -146 -124.5 -91 Q-130 -36 -114 14 Q-97 66 -62.5 109.5 Q-28 153 14 187 Q61 224 114.5 250.5 Q168 277 225 293 Q284 310 344.5 315 Q405 320 466 312 Q476 312 480 299 Q482 288 471 290 Q457 292 443 292.5 Q429 293 415 294 Q357 296 300 285.5 Q243 275 189 255 Q137 235 89 206.5 Q41 178 1 140 Q-36 105 -64 60 Q-92 15 -100 -36 Q-103 -55 -102.5 -75 Q-102 -95 -98 -114.5 Q-94 -134 -85 -152 Q-76 -170 -62 -183 Q-38 -206 -5.5 -212 Q27 -218 58 -211 Q89 -203 116 -188 Q143 -173 169 -156 Q221 -121 268.5 -80 Q316 -39 358 8 Q398 53 429.5 104.5 Q461 156 477 215 Q485 244 487.5 275 Q490 306 486 335 Q483 359 472.5 381.5 Q462 404 440 416 Q427 424 412.5 426.5 Q398 429 383 427 Q359 424 331 416 Q305 409 273 393 Q245 379 208 354.5 Q171 330 126 292 Q125 291 123 290 Q121 289 119.5 288 Q118 287 116 286 Q108 283 105 286 Q102 289 101 291 Q98 297 101 305 Q104 313 110 321 Q116 329 122.5 336 Q129 343 134 348 Q143 356 152.5 365 Q162 374 172 382 Q194 401 215.5 420.5 Q237 440 258 460 Q299 501 334.5 544.5 Q370 588 399 638 Q409 655 417.5 677 Q426 699 420 719 L419 720 L418 720 Q414 720 408 718 Q393 713 378 705 Q363 697 349 689 Q299 661 255.5 625 Q212 589 173 547 Q153 526 134.5 503.5 Q116 481 98 458 Q87 443 76 427.5 Q65 412 56 395 Q53 390 47.5 380.5 Q42 371 34 371 Q32 370 28 372 Q21 376 19.5 381 Q18 386 19.5 392 Q21 398 24 404 Q27 410 29 415 Q34 428 40 441 Q46 454 51 467 Q80 536 108 603 Q136 670 165 739 Q167 744 171.5 744 Q176 744 180 741 Q184 738 186.5 733.5 Q189 729 187 725 Q179 705 171 686 Q163 667 155 648 Q138 608 122 568.5 Q106 529 89 490 Q129 542 176 589 Q217 630 262 664 Q307 698 358 724 Q369 729 379.5 734.5 Q390 740 401 742 Q415 745 426 738 Q437 731 442 717 Q450 691 439.5 664.5 Q429 638 416 615 Q385 563 347 517.5 Q309 472 265 430 Q257 422 249.5 415 Q242 408 234 401 Q254 413 276.5 423 Q299 433 322 439 Q348 447 375 450 Q402 453 428 444 Q450 436 467 419.5 Q484 403 494 383 Z " />
<glyph glyph-name="C" unicode="C" horiz-adv-x="669" d="M556 268 Q576 245 581.5 216 Q587 187 582 158 Q577 129 565.5 102 Q554 75 540 49 Q526 23 509 -0.5 Q492 -24 473 -46 Q397 -136 293 -190 Q237 -219 176 -231 Q115 -243 53 -226 Q25 -218 0 -203.5 Q-25 -189 -45 -167 Q-66 -144 -79.5 -117 Q-93 -90 -100 -60 Q-107 -28 -106 5.5 Q-105 39 -100 71 Q-95 103 -86.5 133.5 Q-78 164 -67 195 Q-47 250 -22 302.5 Q3 355 35 404 Q66 454 102.5 499 Q139 544 181 585 Q203 605 225.5 625 Q248 645 272 662 Q296 680 322 695 Q348 710 377 720 Q406 731 435 735 Q450 737 465 737 Q480 737 495 733 Q527 725 544 697 Q551 686 552 672 Q553 658 546 646 Q541 638 532 644 Q528 646 525 651 Q522 656 524 660 Q529 671 528 679 Q528 684 526 688 Q525 693 522 696 Q521 697 521 697.5 Q521 698 520 699 L519 699 Q518 701 516 703 Q514 703 514 704 Q513 704 512 705 Q510 706 509.5 706.5 Q509 707 507 708 Q495 712 481 714 Q467 715 453.5 713 Q440 711 426 708 Q398 703 372.5 691 Q347 679 323 665 Q299 650 276.5 632.5 Q254 615 233 596 Q191 559 154 517 Q80 434 26 338 Q-1 289 -22.5 238.5 Q-44 188 -59 134 Q-68 105 -74.5 75 Q-81 45 -82.5 14.5 Q-84 -16 -80 -46.5 Q-76 -77 -63 -105 Q-53 -131 -36 -150 Q-20 -169 2 -183 Q25 -197 50 -204 Q75 -211 101 -213 Q161 -217 216.5 -195.5 Q272 -174 321 -143 Q413 -84 479 5 Q496 27 510.5 50.5 Q525 74 536 99 Q547 123 555 149.5 Q563 176 561 203 Q559 229 547 249 Q532 271 509 284 Q484 298 455.5 301 Q427 304 400 296 Q390 293 384 302 Q382 305 380.5 310 Q379 315 384 317 Q415 326 446 323 Q478 321 507 307 Q536 293 556 268 Z " />
<glyph glyph-name="D" unicode="D" horiz-adv-x="608" d="M591 635 Q597 599 598.5 562 Q600 525 596 489 Q588 414 565.5 343 Q543 272 508 206 Q474 141 431 82.5 Q388 24 338 -30 Q317 -53 294.5 -75 Q272 -97 249 -118 Q223 -141 186.5 -168 Q150 -195 111 -212 Q86 -223 65.5 -225 Q45 -227 29.5 -223.5 Q14 -220 2.5 -212.5 Q-9 -205 -16 -198 Q-27 -187 -35 -174 Q-43 -161 -50 -147 Q-72 -98 -75.5 -44.5 Q-79 9 -67 61 Q-55 113 -30.5 160 Q-6 207 28 249 Q64 294 108.5 331 Q153 368 206 393 Q259 418 317 427 Q375 436 432 426 Q437 425 441 424 Q445 423 448 420 Q451 417 451.5 412 Q452 407 448 405 Q446 403 442.5 403 Q439 403 436 403 Q380 413 325 403.5 Q270 394 219 370 Q168 346 125 310 Q82 274 47 230 Q10 184 -16 131 Q-42 78 -50 19 L-50 18 Q-55 -14 -52 -43 Q-52 -46 -50 -62.5 Q-48 -79 -42 -101.5 Q-36 -124 -25 -147 Q-14 -170 4 -186 Q8 -190 10 -191 Q18 -197 23 -199 Q41 -207 63.5 -202 Q86 -197 110 -185 Q134 -173 157.5 -156.5 Q181 -140 200 -125 Q218 -109 235.5 -93.5 Q253 -78 270 -61 Q296 -36 319.5 -10 Q343 16 366 43 Q411 97 448.5 156 Q486 215 514 280 Q535 329 550 379 Q567 437 572.5 495 Q578 553 571 613 Q569 627 567 643.5 Q565 660 559 675 Q553 690 542.5 700.5 Q532 711 514 713 Q505 715 496 714 Q487 713 478 711 Q443 704 411 689 Q379 674 350 657 Q292 622 235 579 Q221 568 208 557 Q195 546 181 535 Q159 516 138 496 Q117 476 97 453 Q88 443 79.5 432.5 Q71 422 63 410 Q55 399 48.5 386.5 Q42 374 36 361 Q34 358 33 356 Q32 354 29 353 Q22 352 15.5 358.5 Q9 365 12 372 Q20 392 28.5 411.5 Q37 431 45 451 Q74 522 104 592 Q134 662 163 733 Q165 738 169.5 738 Q174 738 178 735 Q182 732 184.5 727.5 Q187 723 185 719 Q177 699 168.5 679.5 Q160 660 152 640 L86 481 Q103 501 121.5 518 Q140 535 160 552 Q188 577 217.5 599 Q247 621 278 642 Q308 662 339 680.5 Q370 699 403 713 Q420 721 438 726.5 Q456 732 474 735 Q491 737 508 735.5 Q525 734 541 725 Q565 711 575.5 686 Q586 661 591 635 Z " />
<glyph glyph-name="E" unicode="E" horiz-adv-x="610" d="M555 340 Q556 324 553.5 308.5 Q551 293 547 277 Q536 236 518 198.5 Q500 161 479 126 Q450 76 414.5 31 Q379 -14 340 -56 Q302 -98 259 -134 Q216 -170 166 -196 Q128 -217 85 -228 Q42 -239 -3 -238 Q-48 -236 -89 -217.5 Q-130 -199 -152 -157 Q-166 -131 -168 -101.5 Q-170 -72 -164 -43 Q-159 -14 -148 13 Q-137 40 -123 66 Q-97 115 -64.5 158.5 Q-32 202 6 241 Q46 282 91 316.5 Q136 351 184 383 Q213 401 242 418 Q271 435 301 450 Q280 450 258.5 452.5 Q237 455 216 460 Q197 465 179.5 473 Q162 481 151 497 Q137 516 139.5 537 Q142 558 151 578 Q167 611 191.5 639 Q216 667 246 688 Q276 708 311 721 Q346 734 382 736 Q400 738 417.5 733 Q435 728 448 714 Q463 698 467.5 676.5 Q472 655 461 635 Q459 630 454.5 630.5 Q450 631 446 633 Q443 635 440 639.5 Q437 644 439 649 Q449 669 443 686 Q440 694 436 700 L434 702 Q432 704 431 704 L430 705 Q429 705 429 706 Q428 707 427.5 707 Q427 707 426 708 Q422 710 414 712 Q404 714 399 714 Q390 714 381 713 Q372 712 363 710 Q331 703 301.5 689 Q272 675 247 655 Q233 644 222 632.5 Q211 621 200 608 Q190 594 181.5 580 Q173 566 167 550 Q165 542 163.5 533.5 Q162 525 164 517 Q164 511 167 507 Q167 508 166.5 508.5 Q166 509 167 507 Q168 505 170 503 L170 502 L171 502 L173 500 Q175 498 176 498 L178 496 Q182 493 190 489 Q194 487 197.5 486.5 Q201 486 205 484 Q213 482 221.5 480.5 Q230 479 239 477 Q279 471 319.5 474 Q360 477 398 490 Q408 493 415 483 Q417 481 418 476 Q419 471 414 469 Q400 464 387.5 459.5 Q375 455 363 449 Q309 426 258.5 397 Q208 368 160 334 Q115 303 74.5 268.5 Q34 234 -2 194 Q-37 155 -65.5 112 Q-94 69 -116 21 Q-128 -5 -136 -33 Q-144 -61 -145 -90 Q-145 -104 -143.5 -117 Q-142 -130 -137 -142 Q-132 -156 -126 -163 Q-122 -169 -119 -172 Q-119 -172 -118 -174 L-115 -177 Q-113 -179 -111 -180.5 Q-109 -182 -107 -184 Q-106 -184 -105.5 -185 Q-105 -186 -104 -186 L-102 -188 Q-93 -194 -85 -198 Q-85 -198 -84 -199 Q-83 -199 -82 -200 Q-80 -200 -78 -202 L-69 -205 Q-64 -207 -60.5 -208 Q-57 -209 -52 -210 Q-32 -215 -12 -215 Q8 -215 28 -213 Q73 -208 113.5 -191.5 Q154 -175 191 -150 Q236 -121 275 -83.5 Q314 -46 350 -6 Q386 36 418 81 Q450 126 476 175 Q487 195 496.5 215 Q506 235 514 256 Q516 262 517.5 267.5 Q519 273 521 279 Q522 283 523 286.5 Q524 290 525 293 Q526 298 526.5 301 Q527 304 528 307 Q531 322 531 337 Q533 345 531 351 L531 353 L531 356 Q530 358 530 362 Q529 363 529 365 L529 366 Q530 366 527 369 Q527 370 526 370 L526 371 L525 372 L524 373 L523 373 Q522 374 520 374 L521 374 L520 374 Q519 374 518.5 374.5 Q518 375 516 375 Q514 375 512 374.5 Q510 374 508 374 Q503 373 499 376.5 Q495 380 493 384 Q491 388 492 392 Q493 396 498 397 Q515 399 529 392 Q543 384 548.5 369.5 Q554 355 555 340 Z M524 373 L525 372 Q524 372 524 373 Z M527 370 L526 370 L527 369 L527 370 Z " />
<glyph glyph-name="F" unicode="F" horiz-adv-x="625" d="M900 639 Q902 631 897.5 625 Q893 619 887 614 Q862 597 832 595 Q802 593 773 595 Q707 601 644 616 Q619 621 594.5 627.5 Q570 634 545 640 Q542 629 538.5 618 Q535 607 532 596 Q516 545 499.5 495 Q483 445 465 394 Q452 359 439 324.5 Q426 290 412 255 Q466 255 520 252 Q524 252 528 248 Q532 244 533 239.5 Q534 235 532 232 Q530 229 524 229 Q489 232 454 232 Q441 233 428.5 233 Q416 233 402 233 Q398 223 394 213.5 Q390 204 386 194 Q344 97 290 1 Q265 -45 236.5 -90 Q208 -135 173 -173 Q156 -191 137 -206.5 Q118 -222 95 -231 Q73 -240 50 -239 Q26 -237 4 -225 Q-17 -214 -33 -196 Q-49 -178 -61 -158 Q-74 -138 -83.5 -115.5 Q-93 -93 -98 -69 Q-110 -20 -107.5 30 Q-105 80 -91 128 Q-77 177 -53.5 223.5 Q-30 270 1 311 Q16 330 33.5 348 Q51 366 71.5 380 Q92 394 115 403 Q138 412 163 414 Q176 415 189 413.5 Q202 412 213 407 Q234 398 247 377 Q258 359 260.5 338 Q263 317 264 296 Q264 291 260 289.5 Q256 288 252 290 Q241 294 241 305 Q240 314 239.5 323.5 Q239 333 237 342 Q237 345 235 351 Q235 357 233 359 Q231 365 230 367 Q228 371 228 372 Q227 372 227 373 Q226 374 225.5 375 Q225 376 224 377 Q223 378 223 379 L222 379 Q222 381 220 381 L218 383 Q214 385 210 387 Q206 389 201 390 Q179 395 156 389.5 Q133 384 113 373 Q71 352 39.5 315.5 Q8 279 -15 238 Q-40 195 -57 148.5 Q-74 102 -81 53 Q-87 8 -82 -37.5 Q-77 -83 -57 -125 Q-48 -145 -36 -162 Q-24 -179 -9 -193 Q-4 -197 -1 -199.5 Q2 -202 7 -205 Q12 -207 16 -209 Q20 -211 25 -213 Q43 -219 64 -214 Q86 -209 105 -196 Q124 -183 140 -168 Q174 -134 202 -92 Q231 -50 256 -6 Q281 38 304 84 Q323 120 340 157 Q357 194 374 232 Q289 231 205 220 Q200 220 195.5 223 Q191 226 189 230 Q187 234 188 238 Q189 242 194 243 Q212 245 230 246.5 Q248 248 266 250 Q295 252 324.5 253.5 Q354 255 384 255 Q386 260 387 263.5 Q388 267 390 272 Q410 320 428 368 Q446 416 463 465 Q478 510 492.5 555.5 Q507 601 521 647 Q488 656 455.5 665.5 Q423 675 390 683 Q324 700 258.5 710.5 Q193 721 125 722 Q66 723 6 716.5 Q-54 710 -108 686 Q-134 675 -157.5 658.5 Q-181 642 -198 619 Q-216 596 -216 570 Q-216 545 -199 531 Q-196 529 -194 524 Q-192 519 -196 515 Q-199 511 -204 513 Q-209 515 -212 517 Q-221 525 -230 539 Q-244 565 -237.5 593.5 Q-231 622 -213 644 Q-194 666 -169.5 682 Q-145 698 -119 709 Q-62 733 -1 739.5 Q60 746 120 744 Q155 744 189.5 741 Q224 738 259 733 Q292 728 324 720.5 Q356 713 388 705 Q453 688 516 669.5 Q579 651 645 637 Q677 630 709 625 Q741 620 773 617 Q787 616 802 616.5 Q817 617 831 619 Q845 622 859 628 Q867 632 871 635 Q873 636 875 638 Q877 640 877 642 Q875 647 878 649.5 Q881 652 886 652 Q896 650 900 639 Z " />
<glyph glyph-name="G" unicode="G" horiz-adv-x="653" d="M664 505 Q671 497 669 490 Q665 480 661.5 471 Q658 462 655 452 Q625 376 592 301.5 Q559 227 521 154 Q502 117 482.5 81 Q463 45 442 10 Q424 -22 404.5 -53.5 Q385 -85 364 -115 Q368 -117 371.5 -118.5 Q375 -120 380 -122 Q412 -134 449 -140 Q487 -146 524.5 -143.5 Q562 -141 597 -127 Q602 -125 606 -127.5 Q610 -130 613 -134 Q615 -137 616 -142 Q617 -147 612 -149 Q603 -152 594.5 -154.5 Q586 -157 577 -159 Q541 -168 504 -167.5 Q467 -167 432 -159 Q413 -154 395.5 -148.5 Q378 -143 361 -136 Q359 -135 356 -134 Q353 -133 351 -132 Q341 -146 329.5 -160 Q318 -174 306 -188 Q295 -201 280.5 -212 Q266 -223 250 -230 Q221 -243 188.5 -237 Q156 -231 138 -205 Q129 -192 127 -177 Q125 -162 129.5 -147 Q134 -132 143 -119 Q152 -106 166 -97 Q183 -87 201 -82.5 Q219 -78 237.5 -78.5 Q256 -79 274 -83 Q292 -87 308 -93 Q316 -96 323.5 -99 Q331 -102 339 -105 Q346 -94 353 -84.5 Q360 -75 367 -64 Q411 3 449 72 Q487 141 522 212 Q548 266 573 321 Q598 376 621 432 Q590 398 559.5 364.5 Q529 331 499 298 Q467 263 433.5 229.5 Q400 196 363 165 Q328 136 288.5 109.5 Q249 83 203 71 Q156 58 111 72 Q92 77 76 88.5 Q60 100 46 115 Q17 148 8 190 Q-1 232 1 277 Q4 323 18 368 Q32 413 52 456 Q71 497 95 536.5 Q119 576 149 612 Q176 647 210 675 Q244 703 285 720 Q323 737 366 741 Q409 745 446 729 Q465 721 479.5 707 Q494 693 502 674 Q510 654 510 632.5 Q510 611 509 589 Q507 584 503 582.5 Q499 581 495 583 Q491 585 488 589 Q485 593 486 598 Q487 608 487.5 618 Q488 628 488 638 Q486 647 485 656 Q484 665 481 673 Q477 681 473 686.5 Q469 692 462 697 L461 698 Q460 698 459 699 Q459 699 456 702 Q455 702 453 704 L450 705 Q445 707 441.5 708.5 Q438 710 434 712 Q420 716 401 718 Q361 721 322.5 708 Q284 695 251 672 Q216 649 187.5 617.5 Q159 586 135 551 Q109 513 89 474 Q69 435 53 393 Q45 373 39 352 Q33 331 30 309 Q25 287 22.5 265 Q20 243 22 221 Q24 201 29 183 Q34 165 45 149 Q63 120 92 102 Q127 82 170 89 Q213 96 250 116 Q288 138 323 166 Q358 194 390 225 Q425 257 456 290.5 Q487 324 519 358 Q551 395 584 431.5 Q617 468 649 506 Q652 510 656.5 508.5 Q661 507 664 505 Z M323 -127 Q324 -125 324.5 -124.5 Q325 -124 326 -122 Q317 -118 308.5 -115 Q300 -112 289 -109 Q275 -105 259 -103 Q243 -101 227 -102.5 Q211 -104 196.5 -110 Q182 -116 170 -128 Q149 -148 149 -176 Q150 -178 150 -182 Q151 -185 150 -186 Q150 -187 151 -187 Q152 -193 156 -197 L156 -198 Q156 -200 157 -200 Q158 -200 159 -201 Q159 -203 161 -203 Q163 -205 163 -205 Q165 -206 165.5 -206.5 Q166 -207 168 -208 Q169 -208 169 -209 Q170 -209 170 -210 L171 -210 Q194 -220 222 -214 Q237 -210 251 -201.5 Q265 -193 276 -182 Q289 -169 300.5 -155 Q312 -141 323 -127 Z " />
<glyph glyph-name="H" unicode="H" horiz-adv-x="878" d="M969 711 Q980 691 975 668.5 Q970 646 962 626 Q939 574 911.5 524 Q884 474 849 429 Q815 385 775.5 347 Q736 309 689 279 Q645 251 594 231 Q574 223 553.5 218 Q533 213 512 208 Q503 186 494.5 164.5 Q486 143 478 121 Q470 94 462.5 67 Q455 40 450 12 Q444 -18 440 -48.5 Q436 -79 434 -109 Q433 -124 433 -139 Q433 -154 435 -169 Q436 -176 436.5 -182 Q437 -188 439 -195 Q440 -196 440 -197 Q440 -198 441 -200 Q441 -202 442 -202 Q442 -204 442.5 -204.5 Q443 -205 443 -207 Q443 -207 444 -209 Q444 -210 445 -210 Q446 -211 446 -211.5 Q446 -212 447 -213 Q447 -213 448 -214 Q449 -214 449 -214.5 Q449 -215 450 -215 L450 -216 L451 -216 L452 -216 L453 -216 L457 -216 Q459 -216 461 -215 Q463 -214 465 -213 Q476 -208 483.5 -198 Q491 -188 498 -178 Q500 -173 506 -175.5 Q512 -178 514 -180 Q517 -184 518.5 -188 Q520 -192 517 -196 Q510 -207 502 -217 Q494 -227 483 -233 Q459 -248 438 -230 Q429 -222 424 -212 Q419 -202 416 -191 Q413 -177 412 -161.5 Q411 -146 410 -131 Q410 -101 413 -69 Q425 53 467 167 Q471 176 474 184.5 Q477 193 481 201 Q454 196 427 190.5 Q400 185 374 177 Q370 168 366.5 159 Q363 150 358 141 Q338 99 314.5 59 Q291 19 262 -17 Q233 -53 199 -85.5 Q165 -118 123 -141 Q103 -152 80 -159.5 Q57 -167 34 -166 Q10 -166 -11.5 -157 Q-33 -148 -51 -132 Q-89 -98 -102.5 -48.5 Q-116 1 -110 50 Q-107 76 -99.5 102 Q-92 128 -83 153 Q-74 177 -63 200 Q-52 223 -37 243 Q-23 262 -5 277 Q13 292 35 300 Q79 317 120 294 Q141 280 151.5 258.5 Q162 237 160 212 Q158 186 147 163 Q136 140 123 117 Q118 109 109 115 Q105 117 102 122 Q99 127 101 131 Q107 142 112.5 152 Q118 162 123 173 Q132 193 136 216 Q140 239 129 259 Q126 265 121 270 Q119 272 118 272 Q118 272 117 273 L116 274 Q115 274 115 275 Q110 276 109 278 Q93 285 75 284 Q55 283 36.5 272.5 Q18 262 3 248 Q-14 232 -25.5 212.5 Q-37 193 -47 172 Q-57 149 -65.5 126 Q-74 103 -80 79 Q-85 56 -87.5 31.5 Q-90 7 -87 -17 Q-84 -39 -76.5 -60 Q-69 -81 -56 -98 Q-50 -107 -45 -112 Q-43 -115 -37 -119 L-34 -122 L-32 -124 L-31 -124 Q-16 -136 1 -140 Q21 -146 42 -142.5 Q63 -139 83 -131 Q104 -123 123 -110.5 Q142 -98 159 -84 Q192 -57 220.5 -24.5 Q249 8 273 43 Q293 72 309.5 102 Q326 132 340 164 Q335 162 330.5 159.5 Q326 157 321 155 Q310 150 301 142 Q292 134 287 122 Q285 117 280.5 117.5 Q276 118 272 120.5 Q268 123 265 127.5 Q262 132 264 136 Q269 148 277.5 156.5 Q286 165 297 172 Q322 188 354 197 Q372 242 387 286.5 Q402 331 413 378 Q418 403 421.5 427.5 Q425 452 423 478 Q420 521 396 552 Q384 567 371 576 Q356 587 337 591 Q292 601 250 581 Q246 579 241 581.5 Q236 584 233 588 Q230 592 229.5 596.5 Q229 601 234 603 Q255 613 281 616 Q305 619 329 614.5 Q353 610 374 597 Q393 585 407.5 567.5 Q422 550 432 530 Q443 507 445 482 Q447 457 445 432 Q443 405 438 378 Q433 351 426 325 Q418 295 407.5 265 Q397 235 386 206 Q390 207 393 208 Q396 209 400 210 Q423 215 446 219 Q469 223 492 228 Q509 268 529 305.5 Q549 343 572 379 Q604 431 639 480 Q674 529 714 575 Q734 598 753.5 620 Q773 642 795 663 Q806 674 817 684 Q828 694 840 704 Q859 720 879 730 Q890 736 902 739.5 Q914 743 926 741 Q940 739 951 730.5 Q962 722 969 711 Z M945 656 Q953 676 952 694 Q952 696 950 702 L950 703 L950 704 Q948 706 948 707 Q948 708 947 709 L946 710 Q946 711 945 711 L943 713 Q941 714 937 716 Q928 719 920 718 Q915 717 910 715 Q905 713 900 711 Q881 703 863 688 Q840 669 819.5 649 Q799 629 779 608 Q739 565 703 520 Q666 475 634 427 Q602 379 573 328 Q547 285 525 236 Q619 260 698 317 Q741 349 777.5 387.5 Q814 426 845 469 Q861 492 875 515.5 Q889 539 903 563 Q909 575 915 587 Q921 599 927 612 Q932 623 936.5 634 Q941 645 945 656 Z " />
<glyph glyph-name="I" unicode="I" horiz-adv-x="455" d="M566 742 Q574 744 579.5 736.5 Q585 729 581 722 Q567 700 556 681 Q530 636 508 591 Q486 546 466 499 Q446 451 427.5 404 Q409 357 390 309 Q371 261 352 214.5 Q333 168 311 121 Q290 74 266.5 29.5 Q243 -15 216 -58 Q202 -79 188 -99 Q174 -119 158 -139 Q144 -156 129.5 -173.5 Q115 -191 98 -205 Q80 -219 58 -228.5 Q36 -238 13 -236 Q-10 -234 -28 -221.5 Q-46 -209 -60 -192 Q-74 -176 -83.5 -157.5 Q-93 -139 -101 -119 Q-112 -92 -117.5 -63 Q-123 -34 -123 -5 Q-123 49 -104.5 99.5 Q-86 150 -56 195 Q-28 237 8 271 Q44 305 87 331 Q130 357 177.5 370 Q225 383 276 380 Q280 380 284 376 Q288 372 289 367.5 Q290 363 288.5 360 Q287 357 281 357 Q255 359 235 356 Q187 351 144 331.5 Q101 312 63 283 Q25 254 -7 216 Q-39 178 -61 134 Q-85 87 -94.5 35 Q-104 -17 -94 -70 Q-85 -114 -62 -156 Q-61 -157 -60.5 -158 Q-60 -159 -59 -160 L-59 -162 L-59 -161 Q-59 -162 -58.5 -162 Q-58 -162 -58 -163 L-52 -172 Q-50 -174 -46 -180 Q-44 -182 -43 -184 Q-43 -184 -41 -186 L-39 -188 Q-39 -188 -38 -190 Q-36 -191 -34 -193 Q-30 -197 -27 -199 L-27 -200 Q-26 -200 -25 -201 Q-24 -202 -23 -202.5 Q-22 -203 -21 -204 Q-21 -204 -17 -206 Q-17 -206 -15 -207 Q3 -214 20 -213 Q40 -210 59 -199 Q79 -188 94 -172 Q109 -156 123 -139 Q154 -102 180.5 -63 Q207 -24 230 18 Q254 61 275 105.5 Q296 150 316 196 Q336 242 354 288.5 Q372 335 390 382 Q409 428 427.5 474 Q446 520 467 565 Q484 603 503 640 Q522 677 544 712 Q525 707 507 701.5 Q489 696 471 689 Q448 681 425.5 670.5 Q403 660 382 649 Q362 638 342 626 Q322 614 305 599 Q289 583 281 566 Q273 551 275 533 Q276 531 276 529 Q276 527 277 525 Q278 523 278 521.5 Q278 520 279 518 Q280 514 283 510 L283 508 Q283 507 284 507 Q286 505 286 505 Q287 503 289 501 L289 500 L290 499 Q291 498 291.5 498 Q292 498 293 497 Q293 496 294 496 L295 495 Q296 494 296.5 494 Q297 494 298 493 Q299 493 300 492 Q301 491 303 491 L304 490 L306 490 Q317 486 320 477 Q321 472 318.5 469 Q316 466 311 467 Q287 473 271 493 Q255 513 252 537 Q250 560 258.5 580 Q267 600 284 615 Q302 632 323 645.5 Q344 659 366 670 Q413 696 463 713.5 Q513 731 566 742 Z " />
<glyph glyph-name="J" unicode="J" horiz-adv-x="607" d="M579 600 Q589 549 586 494 Q583 429 566 362 Q547 289 513 222 Q479 155 434 93 Q390 32 339.5 -23.5 Q289 -79 234 -132 Q207 -158 176.5 -182.5 Q146 -207 111 -222 Q80 -236 45 -238.5 Q10 -241 -21 -226 Q-53 -210 -69 -181 Q-78 -166 -81.5 -148 Q-85 -130 -85 -112 Q-83 -75 -67 -41.5 Q-51 -8 -26 19 Q-5 42 21 61 Q47 80 74 96 Q101 111 132 121 Q163 131 194 122 Q199 120 202.5 116 Q206 112 206 107 Q205 102 201.5 100.5 Q198 99 193 101 L192 101 Q191 102 189 102 Q187 102 186 102.5 Q185 103 183 103 L172 103 Q159 103 144 98 Q115 90 88.5 74.5 Q62 59 39 40 Q13 20 -9 -3 Q-31 -26 -45 -55 Q-52 -71 -56 -87.5 Q-60 -104 -61 -121 Q-61 -129 -60.5 -137.5 Q-60 -146 -58 -154 Q-57 -163 -54 -168 L-51 -174 Q-49 -178 -49 -178 L-49 -179 L-48 -179 Q-47 -181 -46 -182.5 Q-45 -184 -44 -186 L-41 -189 Q-39 -191 -37 -193 Q-35 -195 -32 -197 Q-33 -197 -32.5 -197.5 Q-32 -198 -31 -198 L-30 -199 Q-28 -201 -28 -201 Q-26 -202 -24.5 -202.5 Q-23 -203 -21 -204 Q-21 -205 -20 -205 L-18 -206 Q-14 -208 -11 -209 Q1 -214 15 -215 Q28 -216 43 -215 Q79 -212 111.5 -193.5 Q144 -175 171 -152 Q199 -129 224.5 -104 Q250 -79 276 -53 Q326 -1 371.5 55 Q417 111 455 173 Q493 235 519.5 302 Q546 369 557 441 Q564 493 563 547 Q562 560 561 571 Q560 582 558 595 Q556 602 555 608 Q554 614 552 620 L549 632 Q549 632 548 634 Q548 634 547 636 Q547 638 546.5 638.5 Q546 639 546 641 Q544 646 541 651.5 Q538 657 536 662 L534 664 Q534 665 533 666 Q532 667 531.5 668 Q531 669 530 670 L524 679 Q523 680 521.5 682 Q520 684 521 682 Q520 684 518 686 Q516 688 514 689.5 Q512 691 510 693 Q508 695 508 695 Q507 695 507 696 Q505 697 504.5 697.5 Q504 698 502 699 Q500 701 497.5 701.5 Q495 702 493 704 L492 705 Q491 705 490.5 705.5 Q490 706 489 706 Q485 708 484 708 Q481 710 478 710.5 Q475 711 473 712 L471 712 Q470 712 469 713 L467 713 Q465 714 463.5 714 Q462 714 460 715 Q457 716 453.5 716 Q450 716 447 716 Q430 718 413 716.5 Q396 715 379 712 Q309 698 250.5 656 Q192 614 144 563 Q119 536 95.5 507 Q72 478 54 446 Q37 414 28 379 Q19 344 25 308 Q31 273 51 247 Q55 242 61 236.5 Q67 231 72 227 Q77 223 84.5 218.5 Q92 214 97 211 Q127 196 159.5 190 Q192 184 225 179 Q235 177 239 166 Q241 156 230 156 Q197 160 163 168 Q128 176 95 191 Q62 206 38 234 Q12 263 4 300.5 Q-4 338 2 375 Q8 415 27 450 Q46 485 70 517 Q116 577 172 628 Q227 677 295 710 Q363 743 439 739 Q467 737 492 726 Q517 715 536 693 Q554 673 564 649.5 Q574 626 579 600 Z " />
<glyph glyph-name="K" unicode="K" horiz-adv-x="715" d="M921 685 Q925 683 928 678.5 Q931 674 929 669 Q927 664 922 664.5 Q917 665 914 667 Q902 676 885 676 Q868 675 850 668 Q832 660 815.5 650 Q799 640 783 628 Q754 606 727 581 Q700 556 674 530 Q647 503 620.5 476.5 Q594 450 566 424 Q507 370 446 322 Q431 310 415.5 298 Q400 286 383 277 Q372 271 360.5 267.5 Q349 264 337 265 Q354 231 367.5 195.5 Q381 160 395 125 Q420 60 450.5 -4.5 Q481 -69 528 -121 Q550 -145 575.5 -164.5 Q601 -184 632 -198 Q661 -212 693.5 -217.5 Q726 -223 759 -218 Q764 -217 768 -220.5 Q772 -224 774 -228 Q776 -232 775 -236 Q774 -240 769 -241 Q731 -246 692.5 -238 Q654 -230 619 -213 Q553 -181 506.5 -124.5 Q460 -68 428 -3 Q396 61 372 128 Q348 195 317 261 Q311 247 305.5 234 Q300 221 293 207 Q252 117 206 30 Q183 -10 160 -49 Q137 -88 108 -124 Q80 -160 48 -189 Q31 -204 12 -216.5 Q-7 -229 -29 -237 Q-49 -245 -70.5 -244.5 Q-92 -244 -112 -233 Q-129 -223 -142 -207 Q-155 -191 -162 -172 Q-170 -149 -171 -125 Q-172 -101 -169 -78 Q-165 -35 -151 7 Q-139 45 -118.5 81 Q-98 117 -68 145 Q-52 160 -32 172 Q-12 184 11 185 Q32 185 51 172 Q70 159 73 137 Q74 131 70.5 129 Q67 127 63 128 Q59 129 55 132 Q51 135 50 140 Q50 142 49.5 143.5 Q49 145 49 146 Q46 149 47 149 L46 152 L45 152 L45 153 Q44 154 43.5 154 Q43 154 42 155 L40 157 L38 158 Q21 166 1.5 158.5 Q-18 151 -32 140 Q-62 118 -84 86 Q-106 55 -119 19.5 Q-132 -16 -140 -53 Q-145 -74 -147.5 -96.5 Q-150 -119 -147 -141 Q-145 -162 -137 -179 Q-135 -183 -133.5 -185.5 Q-132 -188 -130 -192 Q-129 -193 -125 -199 Q-125 -200 -124 -200 L-123 -201 L-121 -203 Q-117 -207 -115 -208.5 Q-113 -210 -108 -213 Q-100 -217 -95 -219 Q-80 -223 -61 -220 Q-41 -216 -23 -206.5 Q-5 -197 11 -184 Q44 -158 71.5 -126 Q99 -94 122 -59 Q146 -23 167.5 15.5 Q189 54 209 93 Q251 174 287.5 257.5 Q324 341 354 428 Q362 450 368.5 471.5 Q375 493 382 515 Q389 538 394.5 560 Q400 582 404 605 Q407 627 407.5 649.5 Q408 672 403 694 Q401 704 397 711 Q393 718 390 720 Q389 720 387.5 721 Q386 722 384 722 Q382 723 377 723 Q369 723 364 718 Q356 713 347 720 Q345 722 342.5 727.5 Q340 733 344 736 Q361 750 382 744 Q406 738 416 716.5 Q426 695 429 673 Q432 648 430.5 624 Q429 600 424 576 Q419 551 412.5 527 Q406 503 398 479 Q390 456 382.5 433 Q375 410 367 387 Q349 337 328 288 Q343 285 359.5 293.5 Q376 302 387 310 Q420 335 455 363 Q486 389 515.5 415 Q545 441 574 468 Q601 494 627 521 Q653 548 680 574 Q706 600 733.5 623.5 Q761 647 792 667 Q806 676 822 684 Q838 692 855 696 Q872 700 889 698 Q906 696 921 685 Z " />
<glyph glyph-name="L" unicode="L" horiz-adv-x="528" d="M869 -137 Q876 -146 868 -152 Q845 -169 820 -182 Q767 -211 709.5 -225.5 Q652 -240 592 -241 Q563 -241 533 -238 Q503 -235 474 -228 Q445 -221 417.5 -211 Q390 -201 364 -188 Q314 -164 268 -135 Q222 -106 174 -80 Q157 -100 139.5 -119 Q122 -138 102 -155 Q78 -177 50.5 -194 Q23 -211 -9 -219 Q-41 -227 -73.5 -225 Q-106 -223 -134 -206 Q-160 -191 -177.5 -165.5 Q-195 -140 -198 -111 Q-201 -81 -186 -56 Q-171 -31 -147 -14 Q-120 4 -87 8.5 Q-54 13 -22 11 Q28 6 73.5 -11 Q119 -28 162 -51 Q189 -18 213 18 Q248 71 277 127 Q306 183 331 242 Q358 304 382.5 366 Q407 428 433 491 Q453 542 475.5 592 Q498 642 524 691 Q520 689 516.5 687.5 Q513 686 509 684 Q479 671 446.5 663.5 Q414 656 381.5 648.5 Q349 641 318 631.5 Q287 622 259 604 Q254 601 249 604 Q244 607 242 610 Q240 614 239 618.5 Q238 623 243 625 Q259 635 275.5 642 Q292 649 309 655 Q341 666 374 672.5 Q407 679 439 688 Q469 696 498 708 Q527 720 551 741 Q558 747 566 739 Q569 737 571.5 732.5 Q574 728 572 724 Q564 710 556 695 Q548 680 540 665 Q508 603 481 539 Q454 475 428 410 Q403 347 377.5 284.5 Q352 222 323 161 Q295 102 262.5 46.5 Q230 -9 190 -60 Q189 -63 186 -64 Q188 -66 190 -66.5 Q192 -67 194 -69 Q245 -98 294.5 -128.5 Q344 -159 398 -182 Q510 -229 631 -215 Q691 -208 747.5 -186.5 Q804 -165 853 -130 Q857 -128 862 -131 Q867 -134 869 -137 Z M43 -167 Q69 -150 92 -127.5 Q115 -105 136 -82 Q140 -78 143 -74.5 Q146 -71 150 -66 Q104 -42 54 -25.5 Q4 -9 -50 -11 Q-80 -13 -108 -23.5 Q-136 -34 -156 -58 Q-174 -80 -175 -106 Q-176 -118 -172.5 -130 Q-169 -142 -163 -153 Q-150 -174 -127 -188 Q-116 -195 -101.5 -198.5 Q-87 -202 -73 -203 Q-41 -205 -12 -194.5 Q17 -184 43 -167 Z " />
<glyph glyph-name="M" unicode="M" horiz-adv-x="833" d="M981 736 Q988 729 983 722 L959 686 Q910 614 867 538.5 Q824 463 786 384 Q766 344 747 304.5 Q728 265 710 224 Q691 183 675 142 Q659 101 645 58 Q634 21 626 -15.5 Q618 -52 615 -90 Q614 -102 613.5 -113.5 Q613 -125 613 -137 Q614 -148 615 -159 Q616 -170 620 -182 Q620 -184 620.5 -185 Q621 -186 621 -188 L622 -188 Q622 -190 623 -191 Q625 -197 627 -201 L628 -202 Q628 -202 629 -203 Q629 -205 631 -207 Q631 -207 633 -209 L636 -212 Q636 -212 637 -213 L638 -213 Q639 -214 640 -214.5 Q641 -215 642 -216 Q643 -216 644 -217 Q646 -217 646.5 -217.5 Q647 -218 649 -218 L648 -218 Q649 -218 650 -219 L652 -219 Q654 -219 655 -219.5 Q656 -220 658 -220 Q664 -220 668 -219 Q699 -216 726.5 -201.5 Q754 -187 777 -167 Q825 -123 853 -63 Q866 -35 874 -3 Q876 4 876.5 10.5 Q877 17 878 24 Q879 28 879 32 Q879 36 879 39 Q878 41 878 44 L876 44 Q875 44 875 45 Q871 47 868 51.5 Q865 56 867 61 Q869 66 873.5 65.5 Q878 65 882 63 Q902 52 902 29 Q903 21 902 13.5 Q901 6 899 -2 Q897 -10 895.5 -17.5 Q894 -25 892 -33 Q883 -64 866 -96 Q849 -126 827.5 -152.5 Q806 -179 779 -200 Q765 -210 751 -218.5 Q737 -227 721 -232 Q707 -237 691.5 -240.5 Q676 -244 660 -242 Q633 -239 617 -218.5 Q601 -198 595 -173 Q590 -149 590 -124 Q590 -99 592 -75 Q596 -33 605 7 Q614 47 627 87 Q642 132 659.5 174.5 Q677 217 697 260 Q717 302 736.5 343.5 Q756 385 777 427 Q810 493 846.5 557 Q883 621 924 683 Q895 662 867 639.5 Q839 617 812 594 Q776 562 742.5 528 Q709 494 677 459 Q612 385 553 305 Q522 263 493 220 Q464 177 435 133 Q407 89 379.5 45.5 Q352 2 326 -43 Q323 -48 318.5 -47.5 Q314 -47 310 -44.5 Q306 -42 303.5 -37.5 Q301 -33 303 -29 Q317 8 332 44.5 Q347 81 362 118 Q417 247 479 373 Q501 421 526 470 Q482 409 439 348 Q396 287 352 225 Q296 147 237.5 72 Q179 -3 110 -69 Q94 -85 76.5 -100.5 Q59 -116 39 -126 Q20 -136 -0.5 -137.5 Q-21 -139 -40 -131 Q-62 -123 -74.5 -105.5 Q-87 -88 -92 -65 Q-97 -43 -97.5 -20.5 Q-98 2 -96 25 Q-93 72 -83 117 Q-73 162 -57 207 Q-49 228 -39.5 248.5 Q-30 269 -19 289 Q-11 306 -2 322 Q7 338 20 351 Q34 364 53.5 367.5 Q73 371 90 360 Q107 349 114 330 Q121 311 123 292 Q128 251 117 213 Q109 176 88 147 Q85 142 79.5 144.5 Q74 147 72 149 Q68 152 66.5 156.5 Q65 161 68 165 Q76 176 83 191 Q91 208 94.5 225.5 Q98 243 100 261 Q102 278 101 295.5 Q100 313 93 328 Q90 335 86 339 L84 341 L83 342 Q82 342 82 343 L81 343 Q80 344 78 344 Q76 345 74 345 Q73 345 72.5 345.5 Q72 346 71 346 Q69 346 67.5 345.5 Q66 345 64 345 Q57 344 50 340 Q36 332 26.5 316.5 Q17 301 9 287 Q-11 249 -27 211 Q-43 173 -54 131 Q-65 88 -70 44.5 Q-75 1 -72 -43 Q-72 -63 -66 -81 Q-60 -98 -48 -105 Q-35 -113 -17.5 -114 Q0 -115 15 -109 Q35 -101 51.5 -86.5 Q68 -72 84 -58 Q117 -27 147 8 Q210 76 263.5 149 Q317 222 370 297 Q429 380 487 461.5 Q545 543 604 626 Q606 630 611 628 Q616 626 619 624 Q622 622 624.5 618 Q627 614 625 609 Q607 574 589.5 538.5 Q572 503 555 468 Q523 405 493 342 Q463 279 434 215 Q421 187 408.5 159 Q396 131 384 103 Q395 120 406 137 Q417 154 428 171 Q457 216 486.5 258.5 Q516 301 548 343 Q578 383 609 421 Q640 459 674 495 Q706 531 740.5 564 Q775 597 811 629 Q848 660 886 688 Q924 716 966 742 Q970 744 974.5 741.5 Q979 739 981 736 Z " />
<glyph glyph-name="N" unicode="N" horiz-adv-x="643" d="M745 737 Q747 735 749.5 731 Q752 727 750 723 Q747 716 743.5 709.5 Q740 703 736 696 Q709 641 683 586.5 Q657 532 631 476 Q605 420 581.5 364.5 Q558 309 535 252 Q512 195 490 138.5 Q468 82 448 24 Q438 -5 429.5 -34 Q421 -63 413 -93 Q409 -107 405.5 -121.5 Q402 -136 400 -151 Q398 -164 399 -177 Q400 -190 405 -201 Q406 -202 406 -202.5 Q406 -203 407 -204 L407 -205 Q410 -208 411 -210 Q412 -210 413.5 -212 Q415 -214 416 -214 Q423 -220 434 -220 Q447 -220 458.5 -215 Q470 -210 480 -203 Q491 -195 501 -186 Q511 -177 519 -168 Q529 -157 537.5 -146.5 Q546 -136 554 -124 Q556 -120 562 -122.5 Q568 -125 570 -127 Q579 -134 574 -143 Q569 -148 565.5 -154 Q562 -160 557 -165 Q538 -189 518 -206 Q507 -216 496 -224 Q485 -232 472 -237 Q459 -242 445.5 -242.5 Q432 -243 419 -237 Q406 -232 396.5 -221.5 Q387 -211 382 -198 Q376 -184 375.5 -169 Q375 -154 377 -139 Q379 -123 382.5 -108 Q386 -93 391 -78 Q399 -47 408 -16.5 Q417 14 428 44 Q448 104 471 162 Q494 220 517 279 Q541 338 566.5 395.5 Q592 453 618 510 Q637 552 656 592 Q675 632 695 673 Q691 669 687.5 665 Q684 661 680 657 Q670 646 660 636 Q650 626 640 615 L559 531 Q518 489 477.5 446.5 Q437 404 397 360 Q357 316 319 272 Q281 228 244 182 Q207 136 172.5 89 Q138 42 106 -8 L79 -50 Q58 -92 36.5 -132 Q15 -172 -7 -213 Q-10 -218 -14.5 -217.5 Q-19 -217 -22.5 -214 Q-26 -211 -28.5 -206.5 Q-31 -202 -29 -198 Q-26 -192 -23 -185.5 Q-20 -179 -17 -172 Q0 -137 18.5 -103.5 Q37 -70 57 -36 L63 -24 Q104 54 142.5 132.5 Q181 211 219 290 Q253 361 285 431 Q317 501 348 573 L276 528 Q228 497 181.5 464.5 Q135 432 90 398 Q79 390 68.5 381.5 Q58 373 48 365 Q39 357 31 349 Q23 341 18 330 Q9 313 14 294 L16 286 Q18 284 18 283 L20 280 L21 279 L22 278 L23 277 Q24 276 24.5 276 Q25 276 26 275 L29 274 Q34 272 37.5 268 Q41 264 40 259 Q40 254 36 252.5 Q32 251 28 253 Q15 257 6.5 267 Q-2 277 -6.5 289.5 Q-11 302 -11 315 Q-11 328 -6 340 Q4 362 25 380 Q36 390 46.5 398.5 Q57 407 68 415 Q93 433 117 451 Q141 469 166 486 Q216 521 266.5 553 Q317 585 369 616 Q375 620 383 612.5 Q391 605 388 598 Q368 552 348 506.5 Q328 461 307 416 Q275 345 242 275.5 Q209 206 174 136 Q191 158 207.5 179.5 Q224 201 241 222 Q279 268 318 312 Q357 356 398 400 Q438 444 478.5 486.5 Q519 529 561 572 L642 656 Q663 679 684 701 Q705 723 731 741 Q734 743 738.5 741 Q743 739 745 737 Z " />
<glyph glyph-name="O" unicode="O" horiz-adv-x="560" d="M585 667 Q591 623 584 580 Q581 559 575.5 538 Q570 517 562 497 Q555 479 548 460.5 Q541 442 533 424 Q517 386 499.5 349.5 Q482 313 462 277 Q419 204 371 138 Q347 106 320 75 Q293 44 264 15 Q208 -41 140 -89 Q131 -96 118 -102 Q121 -106 124 -110.5 Q127 -115 131 -119 Q132 -121 133 -123 Q134 -125 136 -127 Q137 -127 139 -129 Q139 -130 140 -131 Q142 -133 144.5 -136 Q147 -139 150 -141 Q158 -149 162 -152 Q164 -154 165 -154.5 Q166 -155 168 -157 Q168 -158 169 -158 L170 -159 Q171 -159 171 -159.5 Q171 -160 172 -160 Q179 -165 185 -169 Q191 -173 198 -177 Q206 -182 211.5 -184.5 Q217 -187 225 -190 Q285 -214 346 -207 Q380 -203 412.5 -188.5 Q445 -174 465 -146 Q468 -142 473.5 -144 Q479 -146 481 -149 Q485 -152 486.5 -156 Q488 -160 485 -165 Q474 -181 458 -192 Q442 -203 424 -211 Q393 -225 359.5 -229.5 Q326 -234 293 -229 Q259 -225 227.5 -213 Q196 -201 168 -181 Q126 -150 101 -110 Q94 -112 87.5 -113.5 Q81 -115 74 -117 Q39 -122 10 -107 Q-9 -97 -22 -81.5 Q-35 -66 -43 -47.5 Q-51 -29 -55 -8.5 Q-59 12 -60 32 Q-63 76 -58.5 120 Q-54 164 -44 207 Q-26 291 12 370 Q50 451 102 519 Q105 524 110.5 521.5 Q116 519 118 517 Q122 514 123.5 509.5 Q125 505 122 501 Q98 469 77 435 Q33 363 4.5 284.5 Q-24 206 -33 123 Q-35 101 -36.5 80 Q-38 59 -37 37 Q-36 16 -33 -5 Q-30 -26 -22 -46 Q-18 -54 -14.5 -59.5 Q-11 -65 -6 -72 L-4 -74 L-2 -76 Q0 -78 1 -78.5 Q2 -79 3 -81 Q4 -81 5 -82 Q6 -83 6.5 -83 Q7 -83 8 -84 Q12 -86 13 -87 Q13 -88 14 -88 Q15 -88 16 -89 Q18 -89 18.5 -89.5 Q19 -90 20 -90 Q24 -92 26 -92 Q27 -92 27 -93 L28 -93 L31 -93 Q33 -94 37 -94 Q45 -96 52 -95.5 Q59 -95 67 -93 Q77 -92 88 -87 Q86 -84 85 -80.5 Q84 -77 82 -74 Q65 -32 60 13 Q55 58 59 103 Q63 150 73.5 195 Q84 240 100 284 Q131 369 180 448 Q227 524 290 592 Q319 623 350.5 650.5 Q382 678 417 702 Q431 712 446 721 Q461 730 477 736 Q493 741 509.5 743 Q526 745 542 738 Q562 728 571.5 708.5 Q581 689 585 667 Z M558 574 Q562 594 563.5 615 Q565 636 563 657 Q562 666 560.5 675.5 Q559 685 556 693 Q554 698 552.5 702 Q551 706 549 709 Q547 711 547 712 Q546 712 545 713 Q544 713 544 714 L544 715 L543 715 Q542 716 541.5 716 Q541 716 540 717 L537 718 Q536 719 534 719 L532 720 L529 720 Q523 721 518 720 Q510 719 503 717 Q496 715 488 712 Q472 706 458 697.5 Q444 689 430 679 Q415 668 400.5 657 Q386 646 372 634 Q338 605 308 573 Q278 541 252 506 Q200 438 161 361 Q141 320 125.5 278 Q110 236 99 192 Q88 149 83 106 Q78 63 82 19 Q85 -22 99 -62 Q101 -67 102.5 -70.5 Q104 -74 106 -79 Q112 -75 117.5 -72 Q123 -69 128 -65 Q144 -54 159 -42 Q174 -30 189 -18 Q249 33 300 93 Q352 153 395 219 Q438 285 473 356 Q508 426 535 498 Q542 517 548 535.5 Q554 554 558 574 Z " />
<glyph glyph-name="P" unicode="P" horiz-adv-x="598" d="M600 652 Q615 628 618 600 Q621 572 618 545 Q610 474 583 407 Q557 345 517.5 291.5 Q478 238 428 193 Q400 167 369.5 144.5 Q339 122 307 100 Q277 80 245 62 Q213 44 179 30 Q164 24 148 19.5 Q132 15 115.5 14.5 Q99 14 84 19 Q69 24 56 36 Q42 49 36 67.5 Q30 86 29 105 Q29 122 33.5 137.5 Q38 153 46 167 Q61 195 83 217.5 Q105 240 130 260 Q194 312 270 340 Q275 342 279.5 339.5 Q284 337 286 333 Q288 330 289 325 Q290 320 285 318 Q268 312 251 304 Q234 296 218 287 Q188 270 160 250 Q132 230 109 205 Q88 183 70.5 156 Q53 129 53 97 Q53 81 58.5 65.5 Q64 50 79 42 Q90 36 103.5 36 Q117 36 130.5 39.5 Q144 43 157 48 Q170 53 180 58 Q196 66 211.5 74 Q227 82 242 90 Q277 110 309 133.5 Q341 157 373 182 Q424 222 465 269 Q509 319 540 377 Q571 435 586 500 Q590 517 592.5 534.5 Q595 552 596 569 Q597 590 592.5 610 Q588 630 577.5 645.5 Q567 661 550 670 Q533 679 509 676 Q477 673 448.5 657.5 Q420 642 394 625 Q312 568 241.5 498 Q171 428 110 350 Q41 261 -14.5 164 Q-70 67 -117 -36 L-165 -144 Q-170 -158 -176 -171 Q-182 -184 -188 -198 Q-192 -208 -196.5 -221 Q-201 -234 -211 -240 Q-225 -248 -231 -237.5 Q-237 -227 -235 -216 Q-233 -204 -227 -192.5 Q-221 -181 -216 -170 Q-210 -156 -204.5 -143.5 Q-199 -131 -193 -117 Q-182 -91 -171.5 -65.5 Q-161 -40 -150 -14 Q-130 34 -111 80 Q-92 126 -72 173 Q-52 220 -32.5 266.5 Q-13 313 7 360 Q27 407 46 453.5 Q65 500 85 547 Q105 594 124 640.5 Q143 687 163 734 Q165 738 169.5 738 Q174 738 178 735.5 Q182 733 184.5 728.5 Q187 724 186 720 Q183 714 180.5 708 Q178 702 176 697 Q156 649 137 603 Q118 557 98 510 Q78 462 59 416 Q40 370 20 323 Q3 281 -14.5 240.5 Q-32 200 -49 159 Q-24 203 3 245 Q30 287 60 328 Q142 442 241 535 Q289 580 345 622 Q369 640 393.5 657 Q418 674 447 685 Q467 693 488.5 696.5 Q510 700 531 696 Q552 693 570.5 681.5 Q589 670 600 652 Z " />
<glyph glyph-name="Q" unicode="Q" horiz-adv-x="660" d="M671 691 Q674 678 674 665 Q674 652 673 638 Q668 595 661 556 Q653 516 643.5 476 Q634 436 622 397 Q599 322 566 251 Q533 180 491 114 Q460 66 425 21.5 Q390 -23 348 -63 Q357 -83 365.5 -103 Q374 -123 384 -142 Q385 -144 386 -145.5 Q387 -147 388 -149 Q388 -150 388.5 -150 Q389 -150 389 -151 Q390 -152 390 -153 Q396 -161 398 -165 Q404 -173 407 -176 Q407 -178 409 -178 Q409 -179 410 -180 Q412 -181 412.5 -182 Q413 -183 415 -185 Q417 -186 421 -190 L423 -192 L424 -192 Q427 -194 429.5 -196 Q432 -198 435 -200 Q439 -202 439 -202 L440 -202 L440 -203 Q446 -205 447 -205 Q449 -206 450.5 -206.5 Q452 -207 454 -208 Q455 -208 456 -208.5 Q457 -209 458 -209 Q459 -209 459 -209.5 Q459 -210 460 -210 Q498 -220 535.5 -204 Q573 -188 595 -154 Q597 -150 603 -152.5 Q609 -155 611 -157 Q619 -165 614 -173 Q609 -182 603 -189 Q575 -220 534.5 -231 Q494 -242 455 -230 Q424 -220 402 -197.5 Q380 -175 365 -147 Q356 -130 348.5 -112.5 Q341 -95 333 -78 Q305 -103 277 -125 Q246 -149 212 -170 Q178 -191 140 -202 Q111 -210 82 -212 Q53 -214 24 -207 Q-5 -201 -30.5 -186 Q-56 -171 -75 -148 Q-98 -120 -107 -85.5 Q-116 -51 -114 -16 Q-113 22 -105 60.5 Q-97 99 -86 136 Q-75 171 -60.5 203.5 Q-46 236 -28 267 Q8 330 57.5 382.5 Q107 435 170 472 Q174 474 178.5 472 Q183 470 186 466.5 Q189 463 189.5 458.5 Q190 454 186 451 Q172 442 158.5 433 Q145 424 131 413 Q76 370 34.5 314 Q-7 258 -36 195 Q-50 163 -60.5 130 Q-71 97 -79 63 Q-87 25 -90.5 -15 Q-94 -55 -83 -93 Q-81 -99 -78.5 -105.5 Q-76 -112 -73 -118 Q-72 -119 -72 -119.5 Q-72 -120 -71 -121 L-70 -123 Q-68 -127 -67 -128 Q-65 -131 -63 -133.5 Q-61 -136 -59 -139 L-56 -142 L-56 -143 Q-53 -144 -52 -147 Q-46 -153 -42 -155 Q-40 -157 -40 -157 L-38 -159 Q-36 -160 -35.5 -160.5 Q-35 -161 -33 -162 Q-31 -164 -28 -165.5 Q-25 -167 -23 -169 Q-19 -171 -19 -171 Q-18 -171 -17 -172 Q-15 -173 -14.5 -173 Q-14 -173 -12 -174 Q-9 -176 -6.5 -176.5 Q-4 -177 -1 -179 Q7 -181 11.5 -182.5 Q16 -184 24 -186 Q51 -190 76 -189 Q109 -187 139 -175.5 Q169 -164 198 -147 Q232 -127 262 -103 Q292 -79 321 -52 Q319 -48 317 -45 Q315 -42 313 -38 Q311 -34 309 -31 Q309 -30 308 -29 Q308 -28 307 -27 Q305 -23 303 -20 Q301 -17 299 -15 L290 -3 Q288 -1 288 0 Q287 0 287 1 Q284 3 282 6 Q280 8 279 8.5 Q278 9 276 11 Q275 12 274.5 12 Q274 12 273 13 Q273 14 272.5 14 Q272 14 272 15 Q268 17 264 19.5 Q260 22 256 24 Q239 33 219 35 Q181 40 143.5 22.5 Q106 5 84 -27 Q82 -30 80.5 -33 Q79 -36 77 -38 Q75 -42 69.5 -40.5 Q64 -39 62 -37 Q59 -35 56.5 -30.5 Q54 -26 56 -22 Q60 -14 63 -10 Q74 7 84 23.5 Q94 40 105 57 Q150 129 192.5 201 Q235 273 280 345 Q325 417 372.5 485.5 Q420 554 475 619 Q488 635 501 649.5 Q514 664 528 679 Q539 691 550.5 702.5 Q562 714 576 723 Q590 732 605 736 Q620 740 636 735 Q650 730 659 717.5 Q668 705 671 691 Z M460 -210 Q459 -210 459 -210 L460 -210 Z M650 666 Q651 673 650.5 678.5 Q650 684 649 690 Q649 692 648.5 693 Q648 694 648 696 Q647 697 647 699 L647 700 L646 700 Q646 701 644 705 L644 707 Q643 707 643 708 Q642 708 642 709 L641 710 L639 712 Q639 712 639 712 L638 712 L639 712 Q638 712 638 712.5 Q638 713 637 713 L636 714 L633 714 Q633 715 632 715 Q620 717 607 711 Q600 707 593.5 703 Q587 699 581 694 Q569 683 558.5 672 Q548 661 537 649 Q509 619 483.5 587.5 Q458 556 433 524 Q384 458 340 390 Q296 322 254 251 Q233 216 212 181.5 Q191 147 171 112 Q160 95 150 78 Q140 61 129 44 Q151 54 175.5 57.5 Q200 61 223 56 Q265 48 294 19 Q316 -2 332 -32 L335 -38 Q388 14 431.5 73 Q475 132 510 197 Q546 264 573 335 Q600 406 619 480 Q640 561 649 643 Q650 648 650 654 Q650 660 650 666 Z " />
<glyph glyph-name="R" unicode="R" horiz-adv-x="545" d="M558 -134 Q559 -129 563.5 -129 Q568 -129 572.5 -132 Q577 -135 579.5 -139.5 Q582 -144 581 -148 Q570 -183 540 -202.5 Q510 -222 476 -230 Q459 -235 442 -236 Q425 -237 408 -236 Q386 -235 365 -231.5 Q344 -228 323 -220 Q286 -206 257.5 -178.5 Q229 -151 207 -117 Q184 -80 170 -40.5 Q156 -1 142 39 Q138 50 134.5 60.5 Q131 71 126 82 Q120 99 110 118 Q93 114 76.5 110.5 Q60 107 43 104 Q40 103 36 105.5 Q32 108 29 111.5 Q26 115 25.5 119 Q25 123 29 126 Q48 137 73 142 Q81 144 88.5 144.5 Q96 145 104 143 Q147 155 188 171 Q229 187 268 209 Q312 233 350 263 Q388 293 419 331 Q484 405 513 499 Q520 522 523.5 546 Q527 570 529 594 Q531 606 531 618.5 Q531 631 530 644 Q530 655 529 668 Q528 681 523 692 Q522 695 517 700 Q516 701 517 701 Q517 701 515 703 L514 703 L513 704 Q509 707 504 708 Q500 710 495 710 Q483 712 471 708 Q459 704 448 698 Q426 686 405.5 672 Q385 658 365 644 Q325 615 288 583 Q251 551 217 516 Q183 481 151 443.5 Q119 406 90 366 Q61 326 34.5 284.5 Q8 243 -14 200 Q-36 162 -55 123.5 Q-74 85 -93 46 Q-104 23 -114.5 -0.5 Q-125 -24 -136 -47 Q-156 -91 -176 -133.5 Q-196 -176 -218 -219 Q-220 -224 -224 -223.5 Q-228 -223 -232 -221 Q-236 -219 -239.5 -214 Q-243 -209 -241 -205 Q-234 -191 -228 -177.5 Q-222 -164 -216 -150 Q-192 -97 -167 -45 Q-142 7 -117 60 Q-105 86 -94 111.5 Q-83 137 -72 163 Q-53 208 -35 251 Q-17 294 0 339 Q17 384 33.5 428.5 Q50 473 67 518 Q84 563 99.5 607.5 Q115 652 131 697 Q133 702 137.5 702 Q142 702 146.5 699 Q151 696 154 691.5 Q157 687 156 683 Q150 673 147 660 Q131 615 115.5 570.5 Q100 526 83 481 Q66 436 48.5 392 Q31 348 14 303 Q13 302 13 301 Q35 335 58 367.5 Q81 400 106 432 Q137 471 171.5 508 Q206 545 243 579 Q279 614 319 644.5 Q359 675 402 702 Q425 716 449 727 Q473 738 502 730 Q515 726 526.5 717 Q538 708 543 695 Q549 682 550.5 669 Q552 656 553 642 Q558 591 549.5 541 Q541 491 521 445 Q483 350 411 281 Q374 245 332 216.5 Q290 188 243 166 Q189 140 129 124 Q134 116 137.5 108.5 Q141 101 144 94 Q149 82 153.5 70 Q158 58 162 46 Q176 7 189.5 -32 Q203 -71 224 -107 Q242 -139 267.5 -163.5 Q293 -188 328 -201 Q366 -214 408 -214 Q439 -214 471 -206 Q500 -198 524 -180.5 Q548 -163 558 -134 Z " />
<glyph glyph-name="S" unicode="S" horiz-adv-x="640" d="M769 701 Q792 672 795 637 Q798 602 790 572 Q786 559 779 547 Q772 535 762 527 Q748 519 731 521.5 Q714 524 698 532 Q693 534 689 538.5 Q685 543 687 548 Q688 553 693 552.5 Q698 552 702 550 L701 549 Q703 549 705 548 Q706 548 706.5 547.5 Q707 547 708 547 Q709 546 710 546 Q711 546 712 545 L713 545 L714 545 Q717 544 722 544 L724 544 L727 544 Q731 544 732 545 L733 545 L734 545 Q735 545 735 545.5 Q735 546 736 546 Q740 548 741 549 Q745 550 747 552 Q756 560 760.5 572 Q765 584 769 598 Q773 626 769 655 Q767 663 764 671 Q761 679 757 686 Q756 688 754.5 689.5 Q753 691 752 693 L751 695 Q749 696 747 698 Q747 698 746 700 L745 701 Q745 701 744 703 Q741 703 741 705 Q740 705 740 706 Q739 707 734 708 L733 709 Q731 710 729.5 710.5 Q728 711 726 712 L725 712 L723 712 Q721 713 718 713 L711 713 Q702 713 695.5 711 Q689 709 682 706 Q653 695 633.5 676 Q614 657 600 633 Q584 607 573.5 578 Q563 549 556 518 Q542 455 538 389 Q529 321 523 254 Q518 205 512 157 Q506 109 495 61 Q485 20 472.5 -19.5 Q460 -59 442 -96 Q426 -128 404.5 -156.5 Q383 -185 354 -206 Q292 -246 213 -236 Q146 -228 92 -182 Q65 -160 46.5 -132.5 Q28 -105 13 -76 Q-2 -46 -11.5 -14.5 Q-21 17 -29 49 Q-36 84 -38 118 Q-40 152 -39 185 Q-37 223 -29 259.5 Q-21 296 -6 330 Q20 397 68 448 Q95 473 126.5 493.5 Q158 514 194 527 Q223 538 257.5 537.5 Q292 537 324 518 Q356 501 375 471 Q394 441 401 408 Q409 361 396 318.5 Q383 276 365 238 Q362 234 356.5 236.5 Q351 239 349 241 Q344 244 341.5 248 Q339 252 341 257 Q351 277 359 297 Q367 317 371 340 Q376 359 378 379 Q380 399 376 419 Q373 427 371.5 434 Q370 441 366 449 Q366 451 365 451.5 Q364 452 363 454 L363 455 L362 456 L362 458 Q360 460 360.5 460.5 Q361 461 360 462 Q358 464 357.5 465.5 Q357 467 355 469 L353 471 L353 473 Q350 476 350 476 Q346 478 347 478 Q345 482 342 484 L342 486 Q341 486 340.5 486.5 Q340 487 339 487 Q338 488 333 492 Q331 494 330 494 Q329 495 328 495 Q328 496 326.5 497 Q325 498 324 499 L316 503 L315 503 L313 504 Q298 511 284 513 Q270 515 255 514 Q237 513 221 508 Q205 503 190 496 Q173 488 157 479 Q141 470 127 459 Q71 417 35 354 Q18 323 7.5 289 Q-3 255 -9 219 Q-21 150 -9 78 Q-5 46 2 16 Q9 -14 21 -44 Q24 -52 26.5 -59.5 Q29 -67 33 -74 Q34 -79 37 -81 Q35 -83 37 -84 Q38 -85 38 -87 Q43 -94 46 -101 Q51 -108 55 -114.5 Q59 -121 64 -127 Q65 -128 65 -129 Q65 -130 66 -131 Q66 -131 68 -132 Q70 -134 70 -135 Q70 -136 72 -138 Q80 -146 83 -150 Q84 -152 87 -155 Q90 -158 93 -161 Q94 -161 94 -162 Q96 -164 97 -164 Q101 -168 104 -169 Q108 -175 115 -179 Q115 -179 119 -181 Q119 -182 120 -182 Q121 -183 122.5 -184 Q124 -185 125 -186 Q129 -189 139 -193 Q140 -195 146 -197 L147 -198 Q148 -198 149 -198.5 Q150 -199 151 -199 Q157 -202 166 -205 Q170 -207 172 -207 Q174 -208 176 -208 Q176 -208 178 -209 L179 -209 Q194 -213 211.5 -214.5 Q229 -216 244 -215 Q283 -212 315 -196 Q347 -179 369.5 -153 Q392 -127 409 -96 Q427 -63 440.5 -26 Q454 11 463 49 Q476 96 483 143.5 Q490 191 495 240 Q500 276 503 312.5 Q506 349 510 385 Q513 417 517 448.5 Q521 480 528 512 Q533 544 542.5 574 Q552 604 566 633 Q580 659 597.5 681 Q615 703 641 717 Q653 724 668 729 Q676 732 683 734 Q690 736 699 736 Q740 736 769 701 Z " />
<glyph glyph-name="T" unicode="T" horiz-adv-x="813" d="M1141 689 Q1154 672 1156.5 651 Q1159 630 1148 612 Q1137 593 1118 581 Q1099 569 1079 562 Q1057 554 1034 551.5 Q1011 549 988 548 Q938 548 888.5 555.5 Q839 563 791 575 Q770 544 753.5 510.5 Q737 477 721 443 Q698 392 676.5 341.5 Q655 291 635 240 Q615 190 594 141 Q573 92 552 42 Q532 -5 509 -50 Q486 -95 457 -137 Q442 -160 427 -178 Q412 -198 395 -212 Q360 -239 319 -235 Q278 -231 244.5 -204 Q211 -177 191 -142 Q174 -110 171 -72 Q168 -34 185 -2 Q200 27 226.5 45.5 Q253 64 282 75 Q314 87 347 93 Q380 99 414 101 Q419 101 423 98.5 Q427 96 429 91 Q431 87 430 82.5 Q429 78 424 78 Q408 77 392.5 75.5 Q377 74 361 71 Q331 66 300 55.5 Q269 45 244 26 Q233 17 223 6 Q213 -5 207 -18 Q193 -44 195 -78 Q197 -115 216 -146 Q222 -154 227.5 -161 Q233 -168 240 -175 Q247 -182 253.5 -187 Q260 -192 268 -197 Q282 -205 298.5 -209.5 Q315 -214 332 -212 Q354 -210 370.5 -197 Q387 -184 400 -168 Q432 -130 457 -87.5 Q482 -45 504 0 Q526 46 545.5 93 Q565 140 585 188 Q606 239 626.5 289.5 Q647 340 669 391 Q689 438 710.5 484.5 Q732 531 760 575 Q762 579 764 582 Q714 595 666 610.5 Q618 626 569 640 Q543 648 517 654 Q491 660 465 665 Q442 669 419 671.5 Q396 674 373 673 Q292 670 218 633 Q185 616 155.5 590.5 Q126 565 106 533 Q97 517 90 500 Q83 483 80 465 Q76 446 77 427 Q78 408 83 389 Q94 347 120 314 Q146 281 184 261 Q200 252 218.5 246.5 Q237 241 256 240.5 Q275 240 293.5 244.5 Q312 249 328 261 Q336 267 345 258 Q347 256 349.5 250.5 Q352 245 348 242 Q317 220 277 218 Q232 216 189.5 236.5 Q147 257 117 290 Q87 322 69.5 362.5 Q52 403 54 448 Q55 487 71 522.5 Q87 558 113 587 Q140 617 174 638 Q208 659 246 673 Q326 702 412 694 Q467 689 520 675 Q573 661 625 644 Q663 633 700.5 621.5 Q738 610 776 600 Q799 632 827 659.5 Q855 687 890 705 Q931 727 978 734 Q1025 741 1070 730 Q1090 725 1108.5 715 Q1127 705 1141 689 Z M1133 648 Q1134 655 1132 665 Q1129 673 1125 678 Q1125 678 1124 680 Q1123 680 1123 680.5 Q1123 681 1122 681 Q1122 682 1121 683 Q1118 685 1114 689 Q1114 688 1112 690 L1111 691 Q1109 693 1107 693 Q1105 695 1103 695.5 Q1101 696 1099 698 Q1098 698 1096 699 Q1094 700 1092 701 Q1090 702 1087.5 703 Q1085 704 1083 705 Q1076 707 1066 709 Q1018 718 972 708 Q926 699 888 674 Q850 649 821 614 Q816 609 812 603.5 Q808 598 804 593 Q813 591 822 589.5 Q831 588 840 586 Q866 581 892.5 577.5 Q919 574 946 572 Q969 570 992 571 Q1015 572 1038 577 Q1059 581 1079.5 589.5 Q1100 598 1115 613 Q1132 630 1133 648 Z " />
<glyph glyph-name="U" unicode="U" horiz-adv-x="600" d="M673 735 Q676 740 680.5 740 Q685 740 689 737 Q693 734 695.5 729.5 Q698 725 696 721 Q691 710 685.5 699.5 Q680 689 675 678 Q649 624 624 570 Q599 516 575 461 Q549 402 524 343.5 Q499 285 474 226 Q449 167 427 108.5 Q405 50 387 -11 Q372 -61 363 -114 Q361 -124 360 -133.5 Q359 -143 358 -154 Q356 -175 359 -192 Q360 -193 360 -194 Q360 -195 361 -196 L361 -198 L361 -199 L364 -205 Q364 -204 365 -205.5 Q366 -207 366 -208 Q367 -208 367 -209 Q369 -211 369 -211 Q369 -211 371 -212 L372 -213 L373 -213 Q374 -213 374 -213.5 Q374 -214 375 -214 L378 -214 L381 -214 Q386 -214 389 -212.5 Q392 -211 397 -209 Q413 -201 426 -186.5 Q439 -172 450 -157 Q452 -153 458 -155.5 Q464 -158 466 -160 Q474 -168 469 -176 Q467 -179 464.5 -182.5 Q462 -186 460 -189 Q446 -206 431 -218 Q423 -225 414 -230 Q405 -235 394 -237 Q371 -240 355.5 -222.5 Q340 -205 336 -185 Q332 -165 334 -143.5 Q336 -122 340 -102 Q345 -74 351.5 -46.5 Q358 -19 366 8 Q385 71 408 132 Q431 193 457 253 Q472 288 486.5 321.5 Q501 355 515 389 Q485 336 454 284.5 Q423 233 390 182 Q354 125 313.5 71 Q273 17 227 -34 Q207 -55 187.5 -75.5 Q168 -96 145 -114 Q126 -130 105.5 -144 Q85 -158 61 -166 Q38 -174 14 -172.5 Q-10 -171 -30 -157 Q-52 -141 -64 -117.5 Q-76 -94 -80 -68 Q-85 -42 -83.5 -17 Q-82 8 -77 34 Q-72 64 -65 93.5 Q-58 123 -49 152 Q-29 217 -2 279 Q25 341 54 402 Q68 432 82.5 461.5 Q97 491 111 520 Q125 549 139.5 579 Q154 609 167 640 L167 641 Q165 641 162 640.5 Q159 640 157 640 Q143 638 130 634 Q117 630 104 625 Q82 615 60 599 Q51 593 44 602 Q41 604 38.5 609.5 Q36 615 40 618 Q63 634 85 644 Q109 656 138 662 Q145 663 151.5 663.5 Q158 664 165 663 Q171 663 178 662.5 Q185 662 190 657 Q198 649 194 637.5 Q190 626 186 618 Q172 586 157.5 556 Q143 526 128 495 Q113 463 97.5 431 Q82 399 67 367 Q38 306 12 244 Q-14 182 -33 116 Q-41 89 -47 62 Q-53 35 -56 6 Q-60 -18 -60 -43.5 Q-60 -69 -53 -93 Q-51 -98 -49 -103.5 Q-47 -109 -45 -114 Q-44 -115 -44 -115.5 Q-44 -116 -43 -117 L-43 -118 Q-41 -120 -40 -122 Q-39 -123 -38.5 -124 Q-38 -125 -37 -126 L-34 -129 L-25 -138 L-22 -140 Q-20 -141 -19.5 -141.5 Q-19 -142 -17 -143 Q-16 -143 -16 -143.5 Q-16 -144 -15 -144 Q-15 -144 -13 -145 Q-12 -146 -11 -146 Q-10 -146 -8 -147 Q-7 -147 -6 -147.5 Q-5 -148 -4 -148 L-1 -149 Q10 -151 20 -150 Q30 -149 40 -146 Q52 -143 62.5 -137.5 Q73 -132 84 -126 Q104 -114 121.5 -99 Q139 -84 156 -68 Q181 -44 204 -19 Q227 6 249 32 Q293 84 330.5 139.5 Q368 195 403 252 Q439 311 473.5 370 Q508 429 542 489 Q571 539 598 589 Q625 639 651 691 Q663 713 673 735 Z M375 -214 Q374 -214 373.5 -213.5 Q373 -213 375 -214 L375 -214 Z " />
<glyph glyph-name="V" unicode="V" horiz-adv-x="655" d="M606 513 Q620 453 610.5 391.5 Q601 330 578 274 Q567 245 553 217 Q539 189 523 163 Q508 137 492 112.5 Q476 88 459 64 Q424 16 384 -27.5 Q344 -71 299 -109 Q276 -128 252.5 -145 Q229 -162 204 -178 Q178 -193 154 -206 Q142 -212 130.5 -217 Q119 -222 106 -226 Q64 -240 20 -231.5 Q-24 -223 -57 -192 Q-91 -161 -100 -116 Q-106 -86 -101.5 -56 Q-97 -26 -88 3 Q-70 66 -47.5 128 Q-25 190 -1 252 Q23 314 49 374.5 Q75 435 101 496 L194 709 Q151 694 108 678.5 Q65 663 22 647 Q17 645 12.5 647 Q8 649 5 653 Q3 656 2 661 Q1 666 6 668 Q57 687 108 705.5 Q159 724 210 742 Q217 745 224.5 738.5 Q232 732 229 725 Q223 710 217 695.5 Q211 681 204 667 Q179 608 153.5 550 Q128 492 102 433 Q76 373 52 314 Q28 255 5 195 Q-6 165 -17 135 Q-28 105 -39 74 Q-44 59 -48.5 44 Q-53 29 -58 14 Q-63 -1 -67.5 -16 Q-72 -31 -75 -47 Q-78 -61 -79.5 -75 Q-81 -89 -79 -103 Q-78 -114 -75.5 -124 Q-73 -134 -69 -143 Q-68 -145 -67 -147.5 Q-66 -150 -65 -152 Q-65 -153 -64.5 -153 Q-64 -153 -64 -154 Q-64 -155 -63 -155 Q-61 -159 -61 -159 Q-59 -161 -55 -167 L-52 -170 Q-52 -171 -51.5 -171 Q-51 -171 -51 -172 L-50 -172 Q-47 -176 -43.5 -179 Q-40 -182 -37 -185 Q-36 -185 -36 -186 Q-35 -186 -35 -186.5 Q-35 -187 -34 -187 Q-32 -189 -30 -190 Q-28 -191 -26.5 -192 Q-25 -193 -23 -194 Q-21 -195 -20.5 -195.5 Q-20 -196 -18 -197 Q-17 -198 -16 -198 Q-14 -199 -11.5 -200 Q-9 -201 -7 -202 L2 -205 Q4 -206 4.5 -206 Q5 -206 7 -207 L8 -207 L10 -207 Q30 -212 48 -212 Q69 -210 88 -206 Q99 -202 110.5 -197 Q122 -192 133 -187 Q184 -162 229 -129 Q274 -96 316 -58 Q358 -19 394.5 24.5 Q431 68 463 116 Q495 165 523 217 Q551 269 569 325 Q586 379 590 437 Q594 495 572 549 Q552 598 514 633 Q504 641 494 648.5 Q484 656 472 661 Q461 666 450 666.5 Q439 667 428 660 Q424 658 419 660.5 Q414 663 412 667 Q409 670 408.5 674.5 Q408 679 412 681 Q424 689 437.5 689 Q451 689 464 685 Q479 681 492 673 Q505 665 516 656 Q527 647 537 636.5 Q547 626 556 615 Q573 592 586 566.5 Q599 541 606 513 Z " />
<glyph glyph-name="W" unicode="W" horiz-adv-x="898" d="M823 568 Q835 536 840.5 503.5 Q846 471 846 437 Q846 401 840.5 365 Q835 329 827 294 Q819 261 809 229.5 Q799 198 787 167 Q739 46 655 -55 Q615 -103 567.5 -144 Q520 -185 463 -211 Q436 -225 406 -232 Q386 -237 368 -237 Q334 -237 311 -217 Q288 -196 283.5 -164.5 Q279 -133 282 -104 Q284 -68 292.5 -33 Q301 2 312 37 Q320 62 328.5 86.5 Q337 111 346 137 L379 230 Q377 228 375.5 225 Q374 222 372 220 Q324 152 267 91 Q239 60 209 31 Q179 2 147 -25 Q132 -38 116.5 -51 Q101 -64 85 -76 Q74 -85 62 -93.5 Q50 -102 37 -109 Q23 -116 8.5 -120.5 Q-6 -125 -21 -124 Q-39 -122 -53 -111 Q-67 -100 -75 -84 Q-86 -64 -87.5 -42 Q-89 -20 -86 1 Q-82 24 -77.5 45.5 Q-73 67 -67 89 Q-43 172 -5 253 Q14 293 34 331.5 Q54 370 75 408 Q86 428 96 446.5 Q106 465 117 484 Q126 501 134.5 517.5 Q143 534 153 551 Q163 568 172 584 Q181 600 189 617 Q194 628 198 640 Q202 652 204 665 Q145 653 91 626 Q87 624 82 626.5 Q77 629 74 633 Q71 637 70.5 641.5 Q70 646 75 648 Q107 664 141.5 674.5 Q176 685 211 691 Q216 692 221.5 687 Q227 682 228 677 Q229 662 226 644 Q218 609 199.5 578.5 Q181 548 164 516 L125 444 Q115 425 105 407 Q95 389 85 370 Q43 295 7 217 Q-29 139 -50 55 Q-55 34 -59 13 Q-63 -8 -64 -30 Q-66 -52 -60 -70 Q-55 -84 -44 -95 Q-43 -95 -42 -96 Q-41 -96 -40.5 -96.5 Q-40 -97 -39 -97 L-39 -98 Q-38 -98 -37.5 -98.5 Q-37 -99 -36 -99 Q-34 -99 -34 -100 L-32 -100 Q-30 -101 -25 -101 L-24 -101 L-23 -101 L-20 -101 Q-16 -101 -13 -100 Q-7 -100 -2 -97 Q12 -93 24.5 -85.5 Q37 -78 49 -70 Q62 -61 75 -50.5 Q88 -40 101 -29 Q117 -16 132 -2.5 Q147 11 162 25 Q192 52 221 81 Q250 110 276 141 Q330 204 375 272.5 Q420 341 452 417 Q454 422 458.5 422 Q463 422 467 419 Q471 416 473.5 411.5 Q476 407 474 403 Q467 386 460.5 370.5 Q454 355 448 338 Q425 281 404.5 223.5 Q384 166 363 108 Q343 52 327 -1 Q325 -9 322.5 -18 Q320 -27 318 -35 Q316 -45 314 -52 Q313 -57 312.5 -60 Q312 -63 311 -68 Q308 -84 306 -100.5 Q304 -117 304 -134 L304 -149 Q304 -152 305 -153 L305 -154 L305 -161 Q306 -164 306.5 -167.5 Q307 -171 308 -174 Q309 -176 309 -177.5 Q309 -179 310 -181 L310 -182 L310 -181 Q310 -182 310.5 -182.5 Q311 -183 311 -184 Q313 -189 316 -194 L316 -195 Q318 -197 318 -197 L320 -201 L321 -201 L323 -203 Q325 -205 325 -205 Q327 -206 327.5 -206.5 Q328 -207 330 -208 L331 -208 Q331 -209 332 -209 Q336 -211 339 -212 L341 -212 Q338 -211 339.5 -211.5 Q341 -212 342 -213 Q345 -214 348.5 -214 Q352 -214 355 -214 L356 -214 L358 -214 L361 -214 L369 -214 L387 -211 Q416 -205 442.5 -193 Q469 -181 493 -165 Q544 -133 586 -91 Q628 -49 663 -1 Q701 51 730.5 107.5 Q760 164 781 225 Q803 289 813 351 Q819 386 821.5 422.5 Q824 459 819 494 Q813 551 786 602 Q772 628 755 647 Q748 656 737 666 Q734 670 726 676 Q723 678 721 679.5 Q719 681 717 683 Q711 688 705 691.5 Q699 695 693 699 Q692 699 690 701 L689 701 Q688 702 687 702 Q686 702 685 703 Q683 704 680 705 Q677 706 675 707 Q673 708 672 708 Q671 708 669 709 Q667 710 667 709.5 Q667 709 665 710 Q662 711 659.5 711.5 Q657 712 654 712 Q649 713 643.5 713.5 Q638 714 633 714 Q611 713 592 704 Q573 695 562 675 Q560 670 555.5 670.5 Q551 671 546.5 674 Q542 677 540 681 Q538 685 540 689 Q551 712 571 723 Q592 736 617.5 736.5 Q643 737 666 731 Q693 723 716.5 706.5 Q740 690 759 670 Q802 626 823 568 Z " />
<glyph glyph-name="X" unicode="X" horiz-adv-x="700" d="M574 142 Q575 141 575 141 Q574 142 574 142 Z M761 699 Q768 684 763 665 Q762 660 756.5 660.5 Q751 661 749 663 Q738 670 741 679 Q742 682 742 685.5 Q742 689 742 691 Q742 693 741.5 693.5 Q741 694 741 695 L741 696 L740 696 Q740 698 739 698 L739 699 Q738 700 738 701 L737 701 L737 702 Q737 701 736 702 Q735 702 735 703 Q734 704 733.5 704 Q733 704 732 705 Q732 705 731 706 Q729 706 727 707 Q725 708 721 708 Q701 713 681 711 Q659 709 639 703.5 Q619 698 599 690 Q563 675 529.5 654 Q496 633 466 607 Q403 555 352.5 492 Q302 429 257 360 Q222 306 189.5 250.5 Q157 195 124 139 Q123 136 123 129 Q119 80 120.5 31 Q122 -18 137 -66 Q142 -84 150.5 -101 Q159 -118 170 -133 Q180 -150 193 -162 Q197 -165 200 -168.5 Q203 -172 207 -175 Q208 -176 209 -176.5 Q210 -177 211 -178 L213 -180 Q215 -182 217 -182.5 Q219 -183 221 -185 Q251 -206 288 -212 Q321 -218 354 -212 Q386 -206 414.5 -189.5 Q443 -173 466 -150 Q491 -126 510.5 -97.5 Q530 -69 545 -37 Q560 -6 569 28 Q577 53 582 83 Q582 89 582.5 95 Q583 101 583 107 L583 114 Q583 115 582.5 115.5 Q582 116 582 117 L582 118 Q582 122 580 130 Q580 132 579 133 L579 134 Q578 135 578 136 Q578 137 577 139 L575 141 L575 142 L574 142 L572 142 Q571 142 571 143 Q571 143 570 142 L568 142 Q564 142 563 141 Q558 139 553.5 141.5 Q549 144 546 148 Q544 150 543 155.5 Q542 161 547 163 Q555 165 562 165.5 Q569 166 576 162 Q590 156 596.5 142.5 Q603 129 605 115 Q607 102 606.5 89.5 Q606 77 604 64 Q592 -6 558 -69 Q541 -101 519 -131 Q497 -161 469 -184 Q442 -207 409.5 -221 Q377 -235 342 -238 Q301 -240 262.5 -227 Q224 -214 193 -187 Q160 -159 139 -121 Q118 -83 108 -41 Q100 -7 97.5 26.5 Q95 60 97 94 Q93 89 90 83.5 Q87 78 83 72 Q60 35 35 -1 Q10 -37 -17 -72 Q-37 -98 -58.5 -122.5 Q-80 -147 -106 -167 Q-119 -177 -132.5 -184.5 Q-146 -192 -163 -196 Q-180 -199 -197 -196.5 Q-214 -194 -229 -185 Q-247 -174 -258.5 -158 Q-270 -142 -276.5 -123 Q-283 -104 -286.5 -83.5 Q-290 -63 -292 -43 Q-293 -37 -289.5 -35 Q-286 -33 -282 -34 Q-278 -35 -274 -38.5 Q-270 -42 -269 -46 Q-268 -57 -267 -67 Q-266 -77 -264 -87 Q-262 -98 -259.5 -107.5 Q-257 -117 -253 -127 Q-250 -137 -245 -143 Q-244 -145 -243 -146 Q-242 -147 -241 -149 Q-240 -151 -238 -153 Q-238 -153 -237 -154 Q-226 -167 -212 -171 Q-201 -176 -184 -174 Q-153 -172 -127.5 -151 Q-102 -130 -82 -108 Q-28 -48 15.5 17.5 Q59 83 101 152 Q101 156 101.5 159.5 Q102 163 102 167 Q107 217 113.5 266 Q120 315 129 364 Q138 412 150 460 Q162 508 178 555 Q192 596 208 634 Q224 672 244 710 Q230 706 215 702.5 Q200 699 186 694 Q108 672 31.5 644 Q-45 616 -120 583 Q-124 581 -129 583.5 Q-134 586 -137 590 Q-140 594 -140.5 598 Q-141 602 -136 604 Q-115 614 -93.5 623 Q-72 632 -50 641 Q27 671 105.5 696 Q184 721 265 740 Q268 741 271.5 738.5 Q275 736 277 734 Q279 732 281 728.5 Q283 725 281 722 Q275 711 269.5 701 Q264 691 258 680 Q217 597 189 505 Q175 460 165 414 Q155 368 147 320 Q142 291 137.5 261 Q133 231 130 201 Q166 263 202.5 324 Q239 385 281 443 Q329 509 384 567.5 Q439 626 508 671 Q542 693 579.5 710.5 Q617 728 659 733 Q680 735 703 733 Q712 732 721.5 730 Q731 728 739 723 Q746 719 752 713 Q758 707 761 699 Z " />
<glyph glyph-name="Y" unicode="Y" horiz-adv-x="713" d="M781 735 Q792 729 789 719 Q784 700 779.5 681 Q775 662 769 643 Q747 565 718 489.5 Q689 414 654 340 Q637 304 619 268 Q601 232 581 196 Q562 161 542.5 126 Q523 91 501 56 Q480 22 457 -11 Q434 -44 408 -75 Q385 -102 361 -127 Q337 -152 308 -172 Q279 -193 248 -208.5 Q217 -224 182 -232 Q109 -247 44 -217 Q-3 -195 -39 -157 Q-75 -119 -92 -70 Q-107 -29 -108 14 Q-109 57 -99 99 Q-90 141 -71 179.5 Q-52 218 -26 251 Q-2 282 29 307 Q60 332 96 346 Q132 360 170 358 Q209 357 244 338 Q272 324 294.5 302.5 Q317 281 335 255.5 Q353 230 367 201.5 Q381 173 392 145 Q394 141 393 137 Q392 133 387 132 Q382 132 377.5 135 Q373 138 371 143 Q364 160 357 176.5 Q350 193 341 210 Q324 242 299 271 L299 272 L298 272 Q298 274 296 274 Q295 277 292 278 Q290 281 285 286 Q277 294 268 300 L268 301 Q267 301 266 302 Q265 303 264 303.5 Q263 304 262 305 Q260 307 258 308 Q256 309 254 311 Q251 312 245 316 Q245 316 241 318 Q241 318 239 319 Q231 323 222 326 L213 329 Q212 330 210 330 Q211 330 209.5 330.5 Q208 331 207 331 Q202 332 198.5 333 Q195 334 190 334 Q187 335 181 335 L177 335 L174 335 Q158 336 140 332 Q138 332 136 331.5 Q134 331 132 331 Q131 330 128 330 L127 329 L126 329 Q121 327 117.5 326 Q114 325 109 323 Q101 320 92.5 316 Q84 312 76 307 Q47 290 19 261 Q11 254 5 246.5 Q-1 239 -7 231 Q-11 227 -14 223 Q-17 219 -20 215 Q-22 213 -22.5 210.5 Q-23 208 -25 206 Q-26 205 -26.5 204 Q-27 203 -28 202 Q-28 201 -28.5 201 Q-29 201 -29 200 Q-29 200 -30 199 Q-52 163 -65 125 Q-73 105 -77 86 Q-81 67 -83 46 Q-85 36 -85 26 Q-85 16 -85 5 Q-85 3 -84.5 0.5 Q-84 -2 -84 -5 L-84 -9 L-84 -10 L-84 -12 Q-83 -17 -82.5 -22 Q-82 -27 -81 -32 Q-80 -41 -76 -52 Q-75 -54 -74.5 -57 Q-74 -60 -73 -62 Q-73 -63 -72.5 -64 Q-72 -65 -72 -66 L-72 -67 Q-72 -68 -71.5 -68 Q-71 -68 -71 -69 Q-67 -79 -63 -88 Q-59 -97 -54 -106 L-53 -107 Q-53 -108 -52.5 -108 Q-52 -108 -52 -109 Q-52 -109 -50 -113 L-44 -122 Q-41 -126 -38 -130 Q-35 -134 -31 -138 Q-30 -139 -30 -139.5 Q-30 -140 -29 -141 Q-26 -142 -25 -145 L-18 -152 Q-13 -156 -9.5 -159.5 Q-6 -163 -1 -167 Q1 -169 2 -169 L3 -170 Q4 -171 5 -171.5 Q6 -172 7 -173 Q10 -176 13.5 -178.5 Q17 -181 21 -183 Q38 -193 53 -200 Q86 -212 119 -214 Q152 -215 183.5 -205.5 Q215 -196 244 -181 Q273 -165 299.5 -144.5 Q326 -124 349 -101 Q375 -74 398.5 -44.5 Q422 -15 444 17 Q466 49 486 82.5 Q506 116 526 150 Q564 219 599.5 289 Q635 359 667 432 Q678 457 687.5 481.5 Q697 506 706 532 Q695 513 683 494.5 Q671 476 658 459 Q625 414 589 371 Q553 328 507 296 Q484 279 459 269 Q448 264 435.5 260.5 Q423 257 410 256 Q387 255 365.5 264.5 Q344 274 328 291 Q296 326 288 373 Q283 395 285 418 Q287 434 290 449.5 Q293 465 297 481 Q314 549 340.5 612 Q367 675 398 737 Q400 742 404.5 742 Q409 742 413.5 739 Q418 736 420.5 731.5 Q423 727 421 723 Q417 716 413.5 709 Q410 702 406 694 Q377 634 352.5 572 Q328 510 314 444 Q312 431 310 418.5 Q308 406 308 393 Q308 383 310 373.5 Q312 364 315 353 Q315 351 315.5 350.5 Q316 350 316 348 L317 345 Q319 343 319.5 340 Q320 337 321 335 Q323 333 323.5 330.5 Q324 328 326 326 Q328 324 328 322 L329 321 Q329 320 329.5 319.5 Q330 319 330 318 Q332 316 336 310 L339 307 L341 305 Q344 300 349 297 L352 294 Q353 294 353 293.5 Q353 293 354 293 L363 287 Q363 287 365 286 Q366 285 367 285 Q368 285 369 284 Q371 283 372 283 Q373 283 374 282 Q374 282 376 281 L378 281 Q380 280 382.5 280 Q385 280 387 279 Q407 277 428 285 Q454 293 476 307.5 Q498 322 518 339 Q539 357 557.5 377 Q576 397 593 419 Q610 440 626.5 462 Q643 484 659 507 Q694 559 721 616 Q748 673 767 733 Q769 738 773.5 737.5 Q778 737 781 735 Z M365 286 Q363 287 363.5 286.5 Q364 286 365 286 Z " />
<glyph glyph-name="Z" unicode="Z" horiz-adv-x="755" d="M841 728 Q843 724 843.5 720 Q844 716 840 713 Q825 702 814.5 687 Q804 672 794 657 Q781 639 767.5 621 Q754 603 740 586 Q726 567 712.5 549 Q699 531 685 512 Q657 474 630.5 436.5 Q604 399 577 361 L523 286 Q527 285 533 283 Q590 269 645 291 Q649 293 654 290.5 Q659 288 662 284 Q665 280 665 276 Q665 272 661 270 Q630 257 596 255 Q552 253 511 270 Q473 216 433 165 Q393 114 351 64 Q349 62 347 59.5 Q345 57 343 55 Q348 22 355 -7 Q362 -35 372 -60.5 Q382 -86 399 -108 Q401 -110 403 -112.5 Q405 -115 407 -118 L408 -119 Q410 -121 411 -121 Q413 -124 416 -126 Q420 -132 426 -136 Q427 -136 429 -138 L430 -139 Q432 -140 435 -143 Q438 -145 441 -146.5 Q444 -148 448 -150 Q450 -151 450.5 -152 Q451 -153 453 -154 Q453 -154 455 -155 L456 -155 Q457 -155 457.5 -155.5 Q458 -156 459 -156 Q467 -160 474 -162.5 Q481 -165 489 -167 Q524 -177 560.5 -174.5 Q597 -172 632 -160 Q705 -134 759 -77 Q762 -74 766.5 -75 Q771 -76 775 -79.5 Q779 -83 780 -87.5 Q781 -92 778 -96 Q765 -109 751.5 -120.5 Q738 -132 723 -143 Q693 -164 658 -177.5 Q623 -191 586 -195.5 Q549 -200 512.5 -194 Q476 -188 443 -170 Q416 -155 396.5 -133.5 Q377 -112 363 -86 Q349 -60 340 -31.5 Q331 -3 325 26 Q325 31 324 33 Q301 7 277 -18.5 Q253 -44 227 -69 Q197 -98 165.5 -126.5 Q134 -155 100 -179 Q71 -200 39 -216 Q7 -232 -29 -234 Q-59 -236 -87.5 -224.5 Q-116 -213 -133 -187 Q-143 -172 -147 -155 Q-151 -138 -153 -121 Q-155 -101 -153.5 -82 Q-152 -63 -149 -43 Q-141 -3 -126 35 Q-111 73 -91 108 Q-71 142 -48 173.5 Q-25 205 2 233 Q31 261 64.5 284 Q98 307 136 318 Q165 326 196.5 324.5 Q228 323 254 305 Q277 290 291.5 266.5 Q306 243 314 217 Q323 191 327.5 165 Q332 139 335 112 L338 91 Q367 124 396 161 Q419 191 441.5 221 Q464 251 487 281 Q485 282 484 283 Q483 284 481 285 Q475 289 469 293.5 Q463 298 455 300 Q448 302 441 302 Q434 302 426 301 Q395 298 369 281 Q365 278 360 281 Q355 284 353 287 Q346 296 353 302 Q384 322 420 325 Q428 325 437 324.5 Q446 324 454 322 Q462 319 469 315 Q476 311 483 306 L498 297 Q527 337 555.5 377 Q584 417 613 458 Q640 496 666.5 532.5 Q693 569 721 606 Q735 623 748 640 Q761 657 773 675 Q759 669 745.5 663.5 Q732 658 718 653 Q689 643 659 636 Q629 629 598 626 Q566 622 533 623 Q500 624 467 627 L404 633 Q389 635 373.5 636.5 Q358 638 343 637 Q319 636 295.5 628 Q272 620 257 600 Q254 596 248.5 598 Q243 600 241 602 Q237 605 235.5 609.5 Q234 614 237 618 Q254 642 282.5 651.5 Q311 661 340 660 Q372 660 404.5 656 Q437 652 469 649 Q501 646 534 645.5 Q567 645 599 650 Q659 658 716 679 Q773 700 824 734 Q829 737 834 734 Q839 731 841 728 Z M278 23 Q289 34 298.5 45.5 Q308 57 319 68 Q316 86 314 104 Q312 122 309 139 Q307 153 305 166 Q303 179 299 193 Q297 199 295.5 205.5 Q294 212 292 218 L292 220 L291 220 Q291 222 290 223 Q290 225 288 229 Q287 235 283 240 L277 252 Q277 252 276 254 Q275 255 275 256 Q273 258 273 260 Q271 263 269 265.5 Q267 268 265 270 Q264 271 263.5 272 Q263 273 262 274 L259 277 Q257 279 254.5 281 Q252 283 250 285 L248 287 Q246 288 245.5 288.5 Q245 289 243 290 Q239 292 238 293 L237 293 Q236 294 235.5 294 Q235 294 234 295 Q232 296 229 296.5 Q226 297 224 299 L222 299 L221 299 Q220 299 219.5 299.5 Q219 300 218 300 Q216 300 215 300.5 Q214 301 212 301 Q209 302 205.5 302 Q202 302 199 302 Q186 304 170 300 Q150 297 132.5 290 Q115 283 98 274 Q65 254 36.5 227.5 Q8 201 -16 171 Q-65 112 -97 38 Q-113 2 -122.5 -36 Q-132 -74 -130 -114 Q-130 -131 -127.5 -147 Q-125 -163 -117 -177 L-116 -177 L-116 -178 Q-115 -179 -115 -179.5 Q-115 -180 -114 -181 Q-112 -185 -110 -186 Q-110 -188 -109 -188 Q-108 -188 -108 -188.5 Q-108 -189 -107 -189 Q-106 -192 -103 -193 L-101 -195 Q-100 -195 -100 -195.5 Q-100 -196 -99 -196 Q-96 -199 -94 -200 Q-93 -200 -92.5 -200.5 Q-92 -201 -91 -201 L-90 -202 Q-89 -202 -88 -203 Q-87 -203 -86.5 -203.5 Q-86 -204 -85 -204 Q-63 -213 -35 -211 Q-4 -208 22 -195 Q60 -178 92 -152.5 Q124 -127 154 -100 Q186 -71 217.5 -40 Q249 -9 278 23 Z " />
<glyph glyph-name="grave" unicode="&#x60;" horiz-adv-x="204" d="M201 618 Q203 614 202 610 Q201 606 196 605 Q191 604 186.5 607.5 Q182 611 180 615 Q174 628 168.5 640.5 Q163 653 157 666 Q155 671 156 674.5 Q157 678 162 679 Q172 680 178 669 Q184 656 189.5 643.5 Q195 631 201 618 Z " />
<glyph glyph-name="asciitilde" unicode="&#x7e;" horiz-adv-x="267" d="M194 297 Q197 295 199 289.5 Q201 284 198 281 Q188 272 177.5 264.5 Q167 257 154 254 Q131 248 111 264 Q104 270 99 281 Q98 280 96 280 L90 277 Q65 266 44 251 Q37 246 28 253 Q26 255 23 260.5 Q20 266 24 269 Q35 277 46.5 284.5 Q58 292 71 297 Q77 300 83.5 303 Q90 306 97 305 Q113 303 118 287 Q119 285 119 284.5 Q119 284 120 282 Q120 282 121 280 L122 279 Q121 280 122 279 Q123 278 124 278 Q127 278 127 276 L130 276 Q134 275 139 276 Q150 277 160 284 Q170 291 178 299 Q182 303 186.5 301.5 Q191 300 194 297 Z " />
<glyph glyph-name="exclam" unicode="&#x21;" horiz-adv-x="170" d="M215 735 Q217 739 221.5 739 Q226 739 230 736.5 Q234 734 236.5 729.5 Q239 725 237 721 Q223 686 209 652.5 Q195 619 181 585 Q155 525 130.5 465 Q106 405 80 345 Q54 284 29.5 224 Q5 164 -21 103 Q-23 98 -27.5 98.5 Q-32 99 -36 102 Q-40 105 -42.5 109.5 Q-45 114 -43 118 Q-29 152 -15 185.5 Q-1 219 13 253 Q39 313 63.5 373 Q88 433 114 493 Q140 554 164.5 614 Q189 674 215 735 Z M-60 35 Q-55 35 -51.5 31 Q-48 27 -49 22 Q-49 11 -62 11 Q-67 11 -70 15 Q-73 19 -73 24 Q-71 35 -60 35 Z " />
<glyph glyph-name="question" unicode="&#x3f;" horiz-adv-x="304" d="M323 705 Q336 688 338 668 Q340 648 334 628 Q327 603 313.5 581.5 Q300 560 285 540 Q268 518 252 497 Q236 476 219 454 Q187 411 155 368.5 Q123 326 92 282 Q62 240 34 197.5 Q6 155 -17 108 Q-19 103 -23.5 103.5 Q-28 104 -32.5 107 Q-37 110 -39.5 114 Q-42 118 -40 122 Q-37 127 -34.5 132.5 Q-32 138 -29 143 Q-6 188 21.5 228.5 Q49 269 78 309 Q138 393 201 474 Q217 494 232.5 514.5 Q248 535 264 556 Q278 575 290.5 595.5 Q303 616 311 639 Q313 647 315 656 Q317 665 315 674 Q314 676 314 678.5 Q314 681 313 683 Q312 685 311 688 Q310 689 310 690 Q310 691 309 692 L308 694 Q306 696 306 697 L304 699 L301 702 L300 702 Q300 703 299 703 Q298 704 297.5 704 Q297 704 296 705 Q296 705 294 706 Q290 708 289 708 L287 709 L286 709 L284 709 Q282 710 278 710 L275 710 L274 710 L261 710 Q231 707 205 694 Q192 688 183 679 Q180 676 179 674 Q179 674 177 672 L177 671 Q176 670 174 666 Q174 665 173.5 664.5 Q173 664 173 663 L173 662 Q172 656 168 655 Q164 654 159.5 656 Q155 658 151.5 662 Q148 666 149 671 Q151 680 154 684 Q161 698 173.5 706.5 Q186 715 200 720 Q232 733 262 733 Q280 733 296 726.5 Q312 720 323 705 Z M294 706 Q296 705 295.5 705.5 Q295 706 294 706 Z M-60 17 Q-55 17 -51.5 13 Q-48 9 -49 4 Q-49 -7 -62 -7 Q-67 -7 -70 -3 Q-73 1 -73 6 Q-71 17 -60 17 Z " />
<glyph glyph-name="at" unicode="&#x40;" horiz-adv-x="328" d="M234 227 Q237 224 239 219.5 Q241 215 238 211 Q233 206 229 201.5 Q225 197 220 192 Q200 173 176 161 Q152 149 126 143 Q100 136 72.5 136.5 Q45 137 21 151 Q1 163 -9 180.5 Q-19 198 -22 218.5 Q-25 239 -21 260 Q-17 281 -9 300 Q0 320 13 337.5 Q26 355 41 371 Q57 388 75.5 403 Q94 418 116 429 Q137 439 160 441 Q183 443 206 435 Q219 431 229 422.5 Q239 414 246 403 Q258 380 258 355 Q259 332 252 310 Q245 288 231 271 Q224 263 215 255.5 Q206 248 195 245 Q178 238 168 254 Q156 243 146 241 Q129 236 118 244 Q111 248 108 255 Q105 262 107 270 Q108 275 111.5 280 Q115 285 120 289 Q130 301 140 307 Q146 312 152.5 314.5 Q159 317 167 315 Q174 313 180.5 305.5 Q187 298 183 290 L182 290 Q185 288 187 282 Q188 275 187 269 Q189 271 191 271.5 Q193 272 195 274 Q199 277 202.5 280 Q206 283 209 287 Q222 302 228 319 Q231 328 233 337.5 Q235 347 235 357 Q235 366 234 375.5 Q233 385 229 393 Q221 408 206 414 Q190 420 170 418 Q150 416 132 407.5 Q114 399 98 387 Q81 374 66 358.5 Q51 343 38 326 Q27 311 18.5 295.5 Q10 280 5 263 Q0 245 0 230 Q0 219 1 214 Q1 211 3 205 Q3 203 4 201 L4 200 L4 199 Q5 194 8 192 Q8 190 8.5 189.5 Q9 189 9 188 L10 188 L10 187 Q12 185 12.5 183.5 Q13 182 15 180 L17 178 L20 175 L21 174 Q22 174 22 173 Q23 173 25 171 Q25 171 29 169 L31 168 Q42 162 50 161 Q73 156 97 161 Q121 166 142 174 Q189 193 218 229 Q221 233 226.5 231 Q232 229 234 227 Z M145 270 Q156 278 164 291 L164 292 Q162 291 161.5 290.5 Q161 290 159 289 Q156 286 152.5 283.5 Q149 281 146 278 Q143 275 140 272 Q137 269 135 265 Q133 265 133 263 Q136 265 139.5 266.5 Q143 268 145 270 Z " />
<glyph glyph-name="ampersand" unicode="&#x26;" horiz-adv-x="425" d="M349 298 Q355 298 361.5 292.5 Q368 287 365 279 Q363 273 356 270 Q352 268 348 270 Q344 272 341 275 Q331 275 321.5 274.5 Q312 274 301 273 L290 273 L266 241 Q264 237 261.5 233.5 Q259 230 256 227 Q254 223 253 222 Q235 199 216 178.5 Q197 158 175 140 Q139 108 99 90 Q76 79 51.5 74.5 Q27 70 3 79 Q-18 86 -32 103.5 Q-46 121 -50 143 Q-53 162 -50 181.5 Q-47 201 -39 219 Q-25 257 2 288.5 Q29 320 62 344 Q85 361 111 373.5 Q137 386 165 393 Q161 395 157.5 397 Q154 399 150 401 Q133 411 120 426.5 Q107 442 105 462 Q103 480 106.5 497 Q110 514 116 531 Q130 566 152 592 Q173 617 204 629 Q235 641 267 638 Q284 637 300 631.5 Q316 626 329 615 Q343 603 349 586 Q355 569 353 551 Q348 519 324 493 Q300 467 271 456 Q266 454 261.5 456.5 Q257 459 254 463 Q252 465 251 470 Q250 475 255 477 Q269 483 282.5 492 Q296 501 306.5 513.5 Q317 526 323.5 540.5 Q330 555 330 571 Q330 584 324 593 Q319 600 307 607 Q295 613 282 615 Q269 617 255 616 Q226 613 203 600 Q190 593 180 583 Q170 573 162 561 Q145 537 134 505 Q130 491 128 477 Q126 463 130 449 Q133 437 142.5 428.5 Q152 420 163 415 Q178 408 194 405 Q210 402 226 400 Q237 398 240 388 Q241 385 240 381 Q239 377 234 377 L214 377 Q175 374 138 357.5 Q101 341 70 316 Q41 293 17.5 264.5 Q-6 236 -18 201 Q-24 185 -27 168 Q-30 151 -26 135 Q-25 130 -24 128 Q-23 126 -21 121 L-20 119 Q-19 118 -19 117 Q-19 116 -18 115 L-15 112 Q-15 112 -14 111 Q-1 98 17 97 Q39 94 60.5 101.5 Q82 109 101 120 Q119 130 135.5 142 Q152 154 167 168 L191 192 Q191 192 192 194 Q197 199 201 203.5 Q205 208 209 213 L210 213 Q218 222 226.5 232 Q235 242 243 251 Q251 261 259 271 L243 269 Q243 269 241 268 Q237 268 233.5 267.5 Q230 267 226 267 Q216 265 207 264 Q198 263 189 261 L138 252 L99 243 Q94 243 92 244 Q87 247 83 255.5 Q79 264 88 266 Q116 273 145 278 Q248 298 349 298 Z " />
<glyph glyph-name="slash" unicode="&#x2f;" horiz-adv-x="290" d="M350 638 Q359 631 354 622 Q325 581 297.5 541.5 Q270 502 242 462 Q192 390 143 320 Q94 250 44 178 Q-6 106 -55 35.5 Q-104 -35 -154 -106 Q-157 -111 -162.5 -108.5 Q-168 -106 -170 -104 Q-174 -101 -175.5 -96.5 Q-177 -92 -174 -88 Q-146 -48 -118.5 -8 Q-91 32 -62 72 Q-12 143 37 213.5 Q86 284 135 356 Q186 428 235 498 Q284 568 334 640 Q337 645 342.5 642.5 Q348 640 350 638 Z " />
<glyph glyph-name="backslash" unicode="&#x5c;" horiz-adv-x="393" d="M293 -93 Q294 -98 291.5 -101 Q289 -104 284 -103 Q272 -101 270 -90 Q262 -51 253 -11.5 Q244 28 236 67 Q221 137 206.5 206.5 Q192 276 177 346 L117 625 Q116 630 118.5 633 Q121 636 126 635 Q131 634 135 630.5 Q139 627 140 622 Q148 582 156.5 543 Q165 504 174 464 Q184 416 194 368 Q204 320 215 271 Q217 261 219 252 Q221 243 223 233 Q225 222 228 210 Q231 198 233 186 L293 -93 L293 -93 Z " />
<glyph glyph-name="parenleft" unicode="&#x28;" horiz-adv-x="167" d="M220 634 Q223 637 227.5 636 Q232 635 236 631.5 Q240 628 241.5 623.5 Q243 619 240 615 Q184 555 138 484 Q96 422 65 355.5 Q34 289 11 218 Q-13 140 -24 58.5 Q-35 -23 -30 -105 Q-30 -110 -34.5 -111.5 Q-39 -113 -43 -112 Q-52 -107 -54 -96 Q-60 -3 -43 94 Q-19 246 51 386 Q84 454 126.5 515.5 Q169 577 220 634 Z " />
<glyph glyph-name="parenright" unicode="&#x29;" horiz-adv-x="188" d="M140 620 Q146 527 129 430 Q117 353 93.5 280 Q70 207 36 138 Q2 70 -40.5 8 Q-83 -54 -134 -110 Q-137 -113 -141.5 -112 Q-146 -111 -150 -107.5 Q-154 -104 -155 -99.5 Q-156 -95 -153 -92 Q-98 -31 -51 40 Q-10 102 21.5 168 Q53 234 75 305 Q99 384 110.5 465.5 Q122 547 117 629 Q116 634 120.5 635.5 Q125 637 129 635 Q140 631 140 620 Z " />
<glyph glyph-name="percent" unicode="&#x25;" horiz-adv-x="310" d="M377 687 Q381 684 382.5 680 Q384 676 381 671 Q353 631 325 591.5 Q297 552 269 511 Q219 440 170 369.5 Q121 299 71 228 L-127 -57 Q-130 -61 -135.5 -59 Q-141 -57 -143 -54 Q-152 -47 -147 -38 Q-119 2 -91 41.5 Q-63 81 -35 121 Q15 193 64 263.5 Q113 334 163 405 L361 690 Q364 694 369.5 691.5 Q375 689 377 687 Z M185 530 Q175 529 166.5 534 Q158 539 154 548 Q150 556 152 564.5 Q154 573 158 581 Q164 595 173.5 607.5 Q183 620 194 631 Q198 634 202.5 632.5 Q207 631 210 629 Q213 626 215 621 Q217 616 214 612 Q195 596 183 573 Q181 568 178.5 563 Q176 558 175 553 L176 553 Q177 553 177.5 553.5 Q178 554 180 554 Q197 561 210 577 Q224 595 230 614 Q230 615 230.5 617.5 Q231 620 231 623 Q228 621 224 622 Q220 623 216.5 625.5 Q213 628 211 632 Q209 636 211 640 Q215 648 222.5 649.5 Q230 651 238 647 Q247 642 251.5 633.5 Q256 625 255 615 Q254 601 247.5 586 Q241 571 231 560 Q223 550 211 541 Q199 532 185 530 Z M231 631 L231 630 L231 631 L231 631 Z M89 112 Q104 99 99.5 81.5 Q95 64 87 51 Q82 43 76.5 36.5 Q71 30 65 24 Q59 18 53 13 Q47 8 39 3 Q31 -1 22.5 -3 Q14 -5 5 0 Q-5 7 -5 16.5 Q-5 26 -3 36 Q6 65 32 81 Q29 84 27 88.5 Q25 93 28 97 Q38 111 55.5 118.5 Q73 126 89 112 Z M70 75 Q72 80 74 85 Q76 90 76 95 L76 97 Q68 98 60.5 92 Q53 86 48 79 Q48 77 46 77 Q51 73 52.5 67.5 Q54 62 49 59 Q42 55 37 49.5 Q32 44 27 38 Q25 34 21 24 Q23 25 23.5 25.5 Q24 26 26 27 Q31 29 34.5 32.5 Q38 36 42 40 Q50 48 57.5 56.5 Q65 65 70 75 Z " />
<glyph glyph-name="bracketleft" unicode="&#x5b;" horiz-adv-x="234" d="M312 630 Q314 627 313 622 Q312 617 307 617 L178 617 Q161 577 144.5 537 Q128 497 111 457 Q80 383 49.5 310.5 Q19 238 -12 164 Q-41 95 -69.5 26.5 Q-98 -42 -127 -111 L-16 -111 Q-5 -111 0 -121 Q2 -124 0.5 -128.5 Q-1 -133 -6 -133 L-138 -133 L-139 -133 Q-145 -135 -152 -128.5 Q-159 -122 -157 -115 Q-140 -73 -122.5 -33 Q-105 7 -88 49 Q-57 123 -26.5 195.5 Q4 268 35 342 Q66 416 96 488.5 Q126 561 157 635 Q159 637 159 638 Q161 640 164 640 L296 640 Q307 640 312 630 Z " />
<glyph glyph-name="bracketright" unicode="&#x5d;" horiz-adv-x="228" d="M247 640 Q253 642 260.5 635.5 Q268 629 265 622 Q248 580 230.5 539.5 Q213 499 196 458 Q165 384 134.5 311 Q104 238 73 165 Q43 91 12.5 18 Q-18 -55 -49 -128 Q-51 -131 -51 -131 Q-52 -133 -56 -133 L-188 -133 Q-199 -133 -204 -123 Q-206 -120 -204.5 -115.5 Q-203 -111 -198 -111 L-70 -111 Q-53 -70 -36.5 -30.5 Q-20 9 -3 50 Q28 123 58.5 196 Q89 269 120 343 Q149 412 177.5 480 Q206 548 235 617 L124 617 Q113 617 108 628 Q106 631 107.5 635.5 Q109 640 114 640 L246 640 L247 640 L247 640 Z " />
<glyph glyph-name="braceleft" unicode="&#x7b;" horiz-adv-x="208" d="M285 626 Q287 623 285.5 618 Q284 613 279 613 L227 613 Q216 587 205.5 561 Q195 535 184 509 Q164 461 144.5 414 Q125 367 105 319 Q100 307 95 295 Q90 283 85 271 Q81 262 76.5 252.5 Q72 243 64 237 Q57 230 44 228 Q51 221 48 214 Q40 197 33 179 Q26 161 18 144 Q-5 85 -28 27 Q-51 -31 -72 -90 L-38 -90 Q-27 -90 -22 -100 Q-20 -104 -21 -108.5 Q-22 -113 -27 -113 L-84 -113 L-85 -113 Q-89 -113 -93 -111 Q-97 -108 -100 -103.5 Q-103 -99 -101 -94 Q-95 -76 -88.5 -58.5 Q-82 -41 -75 -23 Q-52 37 -29 95.5 Q-6 154 19 213 Q5 215 -7.5 217 Q-20 219 -34 221 Q-45 223 -47 233 Q-49 236 -48 239.5 Q-47 243 -42 244 Q-28 245 -13.5 246 Q1 247 15 248 Q20 249 26.5 249.5 Q33 250 39 252 Q46 254 53 265 Q58 274 62 284.5 Q66 295 71 305 Q80 330 90 352 L129 445 Q148 491 167 537 Q186 583 206 630 L206 631 Q208 636 212 636 L269 636 Q280 636 285 626 Z " />
<glyph glyph-name="braceright" unicode="&#x7d;" horiz-adv-x="213" d="M194 633 Q198 629 198 622 Q198 618 197 614 Q194 607 191.5 600.5 Q189 594 187 588 L114 393 Q100 356 85.5 319.5 Q71 283 55 247 Q69 245 82.5 243 Q96 241 110 239 Q120 237 123 227 Q125 224 123.5 220.5 Q122 217 117 216 Q103 215 89 214 Q75 213 61 211 Q55 211 48.5 210.5 Q42 210 36 208 Q31 206 28 203 Q25 200 22 196 Q16 187 12.5 176.5 Q9 166 5 156 Q0 144 -5 132 Q-10 120 -15 108 Q-25 84 -34.5 60.5 Q-44 37 -54 13 Q-66 -16 -78 -45 Q-90 -74 -102 -103 Q-102 -104 -102.5 -104 Q-103 -104 -103 -105 Q-104 -107 -107.5 -110.5 Q-111 -114 -118 -114 L-135 -114 L-139 -114 L-173 -114 Q-184 -114 -189 -104 Q-191 -100 -190 -95.5 Q-189 -91 -184 -91 L-125 -91 Q-121 -81 -117.5 -71.5 Q-114 -62 -109 -52 Q-89 -4 -69.5 44.5 Q-50 93 -30 141 Q-25 153 -20 165 Q-15 177 -10 189 Q-6 198 -2 207.5 Q2 217 10 223 Q20 230 31 232 Q24 239 27 246 Q35 264 41.5 281.5 Q48 299 56 317 Q75 364 93.5 410.5 Q112 457 129 504 L147 555 L163 596 Q165 601 166 605 Q167 609 169 613 L121 613 Q116 613 112 616 Q108 619 106 624 Q104 627 105 631.5 Q106 636 111 636 L184 636 Q189 636 194 633 Z " />
<glyph glyph-name="bar" unicode="&#x7c;" horiz-adv-x="163" d="M164 633 Q166 638 170.5 638 Q175 638 179 635 Q183 632 185.5 627.5 Q188 623 186 619 Q169 579 152.5 539 Q136 499 119 459 Q90 388 60 317.5 Q30 247 1 175 L-119 -110 Q-121 -115 -125.5 -115 Q-130 -115 -134 -112 Q-138 -109 -140.5 -104.5 Q-143 -100 -141 -96 Q-124 -55 -107.5 -15.5 Q-91 24 -74 64 Q-45 136 -15 206 Q15 276 44 348 L164 633 L164 633 Z " />
<glyph glyph-name="numbersign" unicode="&#x23;" horiz-adv-x="276" d="M218 323 Q220 319 219 315 Q218 311 213 310 Q196 308 180 307.5 Q164 307 147 305 Q144 297 141 290 Q138 283 134 275 Q147 276 159 276.5 Q171 277 184 278 Q189 279 193.5 276 Q198 273 200 268 Q202 265 200.5 260.5 Q199 256 194 256 Q177 254 159.5 253 Q142 252 124 250 Q116 232 108.5 213.5 Q101 195 93 177 Q91 172 86.5 172 Q82 172 78 175 Q74 178 71.5 182.5 Q69 187 71 191 L95 248 L56 245 Q48 228 41.5 211 Q35 194 27 177 Q25 172 20.5 172 Q16 172 12 175 Q8 178 5.5 182.5 Q3 187 5 191 Q10 204 15.5 217 Q21 230 27 243 Q18 242 9.5 241.5 Q1 241 -7 240 Q-18 240 -23 251 Q-25 254 -24 258.5 Q-23 263 -18 263 Q-4 265 9.5 265.5 Q23 266 37 267 Q40 275 43 282.5 Q46 290 50 298 L11 295 Q6 294 2 297 Q-2 300 -4 305 Q-6 309 -5 313 Q-4 317 1 317 Q15 319 30 319.5 Q45 320 60 322 Q66 336 71.5 350 Q77 364 83 378 Q85 382 89.5 382 Q94 382 98 379 Q102 376 104.5 371.5 Q107 367 106 363 Q101 353 97.5 343.5 Q94 334 89 324 L128 327 L149 378 Q151 382 155.5 382 Q160 382 164 379 Q168 376 170.5 371.5 Q173 367 171 363 Q168 355 164.5 346.5 Q161 338 157 329 Q168 331 179.5 331.5 Q191 332 202 333 Q214 333 218 323 Z M105 273 Q108 281 111.5 288 Q115 295 118 303 L79 300 Q76 292 72.5 285 Q69 278 66 270 L105 273 Z " />
<glyph glyph-name="quotedbl" unicode="&#x22;" horiz-adv-x="233" d="M174 646 Q176 651 180.5 651 Q185 651 189 648 Q193 645 195.5 640.5 Q198 636 197 632 L161 548 Q159 543 154.5 543.5 Q150 544 146 546.5 Q142 549 139.5 553.5 Q137 558 139 562 Q148 583 156.5 604 Q165 625 174 646 Z M223 646 Q225 651 229.5 651 Q234 651 238 648 Q242 645 244.5 640.5 Q247 636 245 632 Q236 611 227.5 590 Q219 569 210 548 Q208 543 203.5 543.5 Q199 544 195 546.5 Q191 549 188.5 553.5 Q186 558 188 562 Q196 583 205 604 Q214 625 223 646 Z " />
<glyph glyph-name="quotesingle" unicode="&#x27;" horiz-adv-x="199" d="M192 656 Q194 661 198.5 661 Q203 661 207 658 Q211 655 213.5 650.5 Q216 646 215 642 Q206 621 197 600 Q188 579 180 558 Q178 553 173.5 553.5 Q169 554 165 556.5 Q161 559 158 563.5 Q155 568 157 572 Q166 593 175 614 Q184 635 192 656 Z " />
<glyph glyph-name="dollar" unicode="&#x24;" horiz-adv-x="280" d="M364 533 Q369 531 372.5 527 Q376 523 375 518 Q375 513 371 511.5 Q367 510 363 512 Q349 518 336 521 Q311 526 285.5 524.5 Q260 523 235 517 Q228 500 221.5 483.5 Q215 467 207 450 L129 264 Q134 259 136 256 Q155 236 168.5 210.5 Q182 185 181 156 Q181 134 171 114.5 Q161 95 145 80.5 Q129 66 108 59 Q87 52 65 54 Q60 55 54.5 56 Q49 57 44 59 Q34 36 24.5 13.5 Q15 -9 6 -32 Q4 -37 -0.5 -36.5 Q-5 -36 -9 -33.5 Q-13 -31 -16 -26.5 Q-19 -22 -17 -18 Q-7 5 2 26.5 Q11 48 20 71 Q10 78 2.5 87.5 Q-5 97 -9 110 Q-16 131 -10.5 153.5 Q-5 176 7 194 Q9 199 15 196.5 Q21 194 23 192 Q26 189 27.5 185 Q29 181 26 176 Q21 167 18 159 Q14 149 12 139.5 Q10 130 11 119 Q11 116 12 111 Q13 106 15 104 Q15 103 15.5 102.5 Q16 102 16 101 L17 100 Q17 99 18 98 Q18 97 19 97 Q21 95 21 95 L21 94 L22 93 L24 91 L26 89 L27 89 Q27 89 28 88 L40 118 Q55 155 70.5 191 Q86 227 101 264 Q91 274 79 283 Q62 298 47.5 316 Q33 334 28 357 Q23 383 34 405 Q45 427 62 445 Q99 484 145 509 Q162 518 179.5 525 Q197 532 216 537 Q222 553 228.5 568.5 Q235 584 242 600 Q244 604 248.5 604 Q253 604 257 601 Q261 598 263.5 593.5 Q266 589 264 585 Q259 575 255.5 565 Q252 555 247 544 L250 544 Q279 549 308 547 Q337 545 364 533 Z M142 217 Q134 230 121 245 Q118 236 114.5 227 Q111 218 107 210 Q93 177 79.5 144 Q66 111 52 78 Q54 78 55 77.5 Q56 77 58 77 Q78 75 94 81 Q134 95 150 132 Q160 154 157 175.5 Q154 197 142 217 Z M109 282 Q117 302 125 320.5 Q133 339 141 358 Q156 396 171.5 432.5 Q187 469 203 507 Q182 499 162 488.5 Q142 478 124 464 Q114 456 104.5 448 Q95 440 86 431 Q77 423 69 413 Q61 403 56 392 Q46 371 52 350 L52 347 L52 345 L53 345 L53 346 Q53 345 55 341 Q55 339 57 337 L58 334 Q62 328 65 325 Q66 324 66.5 323 Q67 322 68 321 L70 318 Q79 308 89 299.5 Q99 291 109 282 Z " />
<glyph glyph-name="asterisk" unicode="&#x2a;" horiz-adv-x="228" d="M145 281 Q147 278 146 273.5 Q145 269 140 269 L86 269 Q93 261 99 252 Q105 243 112 235 Q114 232 115 227.5 Q116 223 111 221 Q106 219 101.5 221.5 Q97 224 94 227 Q88 235 82 242.5 Q76 250 70 258 Q65 247 60.5 235.5 Q56 224 51 213 Q49 208 44.5 208.5 Q40 209 36 211.5 Q32 214 29.5 218.5 Q27 223 29 227 Q31 233 33.5 239 Q36 245 39 251 Q34 248 29.5 245 Q25 242 20 239 Q15 235 9.5 242 Q4 249 10 253 Q16 257 22 261 Q28 265 34 269 L17 269 Q6 269 1 279 Q-1 282 0 287 Q1 292 6 292 L45 292 Q38 300 32 308.5 Q26 317 19 325 Q17 328 16 333 Q15 338 20 340 Q25 342 29.5 339.5 Q34 337 37 333 Q43 325 48.5 317.5 Q54 310 60 302 Q65 312 68.5 321.5 Q72 331 76 341 Q78 345 82.5 345 Q87 345 91 342.5 Q95 340 97.5 335.5 Q100 331 99 327 Q97 322 95 317 Q93 312 91 307 L118 325 Q123 329 128.5 322 Q134 315 128 311 Q121 306 114 301.5 Q107 297 99 292 L130 292 Q140 292 145 281 Z " />
<glyph glyph-name="plus" unicode="&#x2b;" horiz-adv-x="217" d="M150 287 Q152 284 151 279.5 Q150 275 145 275 L83 275 Q76 258 69.5 242.5 Q63 227 56 210 Q54 205 49.5 205.5 Q45 206 41 208.5 Q37 211 34.5 215.5 Q32 220 34 224 L55 275 L17 275 Q6 275 1 285 Q-1 288 0 293 Q1 298 6 298 L64 298 Q70 313 76.5 328 Q83 343 89 358 Q91 362 95.5 362 Q100 362 104 359 Q108 356 110.5 351.5 Q113 347 111 343 Q106 332 101.5 320.5 Q97 309 92 298 L134 298 Q145 298 150 287 Z " />
<glyph glyph-name="comma" unicode="&#x2c;" horiz-adv-x="162" d="M32 225 Q36 223 39 218 Q42 213 40 209 Q35 200 31 191.5 Q27 183 22 175 Q20 170 15.5 170.5 Q11 171 7 173 Q4 175 1 179.5 Q-2 184 0 189 Q5 197 9 205.5 Q13 214 18 223 Q23 231 32 225 Z " />
<glyph glyph-name="hyphen" unicode="&#x2d;" horiz-adv-x="218" d="M138 276 Q140 272 139 267.5 Q138 263 133 263 L23 263 Q12 263 7 273 Q5 277 6 281.5 Q7 286 12 286 L122 286 Q133 286 138 276 Z " />
<glyph glyph-name="period" unicode="&#x2e;" horiz-adv-x="135" d="M14 204 Q9 204 5.5 208 Q2 212 3 217 Q3 228 16 228 Q21 228 24 224 Q27 220 27 215 Q25 204 14 204 Z " />
<glyph glyph-name="colon" unicode="&#x3a;" horiz-adv-x="129" d="M29 277 Q24 277 20.5 281 Q17 285 18 290 Q18 301 31 301 Q36 301 39 297 Q42 293 42 288 Q40 277 29 277 Z M12 236 Q7 236 3.5 240 Q0 244 1 249 Q1 260 14 260 Q19 260 22 256 Q25 252 25 247 Q23 236 12 236 Z " />
<glyph glyph-name="semicolon" unicode="&#x3b;" horiz-adv-x="155" d="M33 257 Q37 255 40 250 Q43 245 41 241 Q36 232 32 223.5 Q28 215 23 207 Q21 202 16.5 202.5 Q12 203 8 205 Q5 207 1.5 211.5 Q-2 216 0 221 Q5 229 9.5 237.5 Q14 246 19 255 Q24 263 33 257 Z M47 301 Q52 301 55 297 Q58 293 57 288 Q57 277 44 277 Q39 277 36 281 Q33 285 34 290 Q34 301 47 301 Z " />
<glyph glyph-name="zero" unicode="0" horiz-adv-x="170" d="M138 431 Q147 415 145.5 396.5 Q144 378 139 361 Q132 331 119 303.5 Q106 276 89 251 Q73 226 51 212 Q22 193 -5 215 Q-16 224 -20.5 236.5 Q-25 249 -25 262 Q-25 275 -21 288 Q-17 301 -12 312 Q-6 326 1 340 Q8 354 16 368 Q34 398 50 423 Q53 428 58.5 425.5 Q64 423 67 421 Q70 418 71.5 413.5 Q73 409 70 405 Q62 392 54 379 Q46 366 38 352 Q30 338 23 325 Q16 312 10 298 Q6 288 3 278 Q0 268 -1 257 Q-1 252 -1 248 Q-1 244 1 239 L1 238 Q2 237 2 235 Q2 235 3 234 L3 233 L4 232 Q4 231 5 231 L7 229 Q14 224 23 227 Q32 230 42 238 Q51 246 58.5 255 Q66 264 73 274 Q101 317 115 368 Q118 380 121 393.5 Q124 407 121 420 Q120 422 120 422.5 Q120 423 119 425 Q119 425 118 426 L118 427 Q117 427 117 428 L116 428 Q115 428 114.5 428.5 Q114 429 112 428 Q108 428 106 424 Q103 421 98 422 Q93 423 89 426.5 Q85 430 84 434.5 Q83 439 86 442 Q98 456 114 450.5 Q130 445 138 431 Z " />
<glyph glyph-name="one" unicode="1" horiz-adv-x="126" d="M95 447 Q101 449 107.5 442 Q114 435 111 429 Q87 374 63 319.5 Q39 265 21 208 Q19 203 14 203.5 Q9 204 6 206 Q2 208 -0.5 212.5 Q-3 217 -1 222 Q14 270 34 316.5 Q54 363 74 410 Q71 408 67 410 Q63 412 61 414 Q58 416 55.5 421.5 Q53 427 57 430 Q74 444 95 447 Z " />
<glyph glyph-name="two" unicode="2" horiz-adv-x="202" d="M125 319 Q108 295 88 273.5 Q68 252 46 232 Q91 235 136 229 Q146 227 150 216 Q151 211 148.5 208 Q146 205 141 206 Q79 215 14 204 Q10 203 6 205.5 Q2 208 0 211 Q-2 213 -3 217.5 Q-4 222 -1 224 Q13 238 27.5 251.5 Q42 265 56 279 Q79 304 100 329 Q109 342 118 354.5 Q127 367 134 381 Q137 388 139.5 394.5 Q142 401 143 409 Q144 411 144 413.5 Q144 416 144 418 Q144 419 143.5 420 Q143 421 143 422 L137 422 Q134 422 130.5 421 Q127 420 124 419 Q117 416 111 412.5 Q105 409 99 404 Q96 401 91 402 Q86 403 82.5 406.5 Q79 410 78 414.5 Q77 419 80 422 Q95 437 113 441 Q124 445 134.5 445.5 Q145 446 154 438 Q168 427 167 409.5 Q166 392 161 378 Q155 362 145.5 347.5 Q136 333 125 319 Z " />
<glyph glyph-name="three" unicode="3" horiz-adv-x="214" d="M168 353 Q176 336 169.5 318 Q163 300 155 285 Q137 254 108 231 Q93 220 74.5 210 Q56 200 36 206 Q26 209 18 216 Q10 223 8 234 Q6 242 7.5 251 Q9 260 16 265 Q24 271 32 263 Q35 261 37.5 255.5 Q40 250 36 247 Q32 244 30 237 L30 232 L31 230 Q31 229 32 229 L34 228 Q36 227 39 227 Q42 226 45.5 227 Q49 228 53 229 Q67 234 79 242.5 Q91 251 102 261 Q113 272 121.5 283 Q130 294 137 307 Q140 313 142.5 319.5 Q145 326 147 333 Q149 341 149 346 Q148 347 148 349 Q148 351 147 351 L147 352 L146 352 Q145 352 144 352.5 Q143 353 141 353 L127 353 Q118 353 108.5 352.5 Q99 352 89 352 Q80 352 75 359 Q73 361 72 365.5 Q71 370 74 372 Q82 379 90 385.5 Q98 392 106 399 Q112 404 118.5 409.5 Q125 415 130 422 Q131 423 131 423.5 Q131 424 132 425 Q120 421 108 409 Q105 406 100.5 407 Q96 408 92 411.5 Q88 415 87 419.5 Q86 424 89 427 Q104 445 128 450 Q142 454 152.5 444.5 Q163 435 159 421 Q156 410 148.5 402.5 Q141 395 133 387 Q130 385 127 382 Q124 379 120 376 L129 376 Q141 376 152 370.5 Q163 365 168 353 Z M144 429 Q144 428 145 428 L144 429 Z " />
<glyph glyph-name="four" unicode="4" horiz-adv-x="183" d="M146 427 Q148 432 152.5 432 Q157 432 161 429 Q165 426 167.5 421.5 Q170 417 169 413 Q163 399 157 386.5 Q151 374 146 360 Q150 351 145 346 Q144 345 142.5 344.5 Q141 344 139 343 Q125 309 110 275.5 Q95 242 81 208 Q79 203 74.5 203 Q70 203 66 206 Q62 209 59.5 213.5 Q57 218 59 222 Q71 251 83 279 Q95 307 107 335 Q104 335 103 334 Q96 333 90 332 Q84 331 78 330 Q72 328 65 327 Q58 326 52 327 Q44 328 39 335 Q34 342 36 350 Q37 355 40 360 Q43 365 46 369 Q54 380 62 389.5 Q70 399 78 408 Q86 418 95 427.5 Q104 437 112 447 Q115 450 120 449 Q125 448 128.5 444.5 Q132 441 133.5 436.5 Q135 432 132 428 Q121 417 111 405 Q101 393 90 381 Q85 375 80.5 369 Q76 363 71 357 Q70 356 69.5 355 Q69 354 67 353 Q72 354 77 354.5 Q82 355 87 356 Q92 358 97.5 358.5 Q103 359 108 361 Q111 362 113.5 362.5 Q116 363 119 364 L146 427 L146 427 Z " />
<glyph glyph-name="five" unicode="5" horiz-adv-x="199" d="M171 434 Q173 430 172 425.5 Q171 421 166 421 Q157 421 148.5 420.5 Q140 420 131 419 Q128 418 124 418 Q120 418 117 416 Q113 413 111 407 Q105 393 97 379 Q99 379 100 379.5 Q101 380 103 380 Q114 383 126.5 383 Q139 383 148 375 Q156 367 156.5 357.5 Q157 348 155 338 Q153 329 151 320 Q149 311 145 303 Q138 286 128 271.5 Q118 257 106 244 Q94 232 80 222 Q66 212 49 207 Q39 203 28.5 203.5 Q18 204 10 212 Q6 216 5 218 Q4 219 2.5 226 Q1 233 10 237 Q17 240 19.5 236.5 Q22 233 23 229 L23 228 Q25 226 28 227 Q35 228 41 231 Q47 234 52 236 Q77 250 95 272 Q113 294 124 320 Q126 327 128 333.5 Q130 340 131 347 Q133 355 133 360 L127 360 Q100 357 77 340 Q74 338 69.5 340 Q65 342 63 344 Q61 346 58.5 350.5 Q56 355 58 358 L91 427 Q93 431 95 433.5 Q97 436 102 437 Q106 439 110 439.5 Q114 440 119 441 Q137 444 155 444 Q166 444 171 434 Z " />
<glyph glyph-name="six" unicode="6" horiz-adv-x="182" d="M141 425 Q101 383 73 335 Q72 334 70 330 Q88 342 106 336 Q121 330 127.5 315.5 Q134 301 131 286 Q128 271 119.5 258.5 Q111 246 100 236 Q89 226 77.5 217.5 Q66 209 52 205 Q37 200 24 207 Q9 217 8 233 Q7 241 8.5 248 Q10 255 12 263 Q14 271 17 278 Q20 285 23 293 Q36 324 50 349 Q81 401 122 444 Q125 447 129.5 446 Q134 445 138 441.5 Q142 438 143 433 Q144 428 141 425 Z M103 316 Q96 318 83.5 311 Q71 304 55 286 Q44 273 39.5 262.5 Q35 252 33 244 Q31 234 32 226 L35 226 Q37 227 39 227.5 Q41 228 43 229 Q64 237 82 257 Q90 265 98 275 Q106 285 108 297 Q108 299 108.5 302 Q109 305 108 307 L108 309 L108 311 Q105 316 103 316 Z " />
<glyph glyph-name="seven" unicode="7" horiz-adv-x="170" d="M137 448 Q143 449 149 443.5 Q155 438 154 432 Q153 417 146.5 405 Q140 393 132 381 Q127 373 123 365 Q119 357 114 349 Q117 347 119 344.5 Q121 342 123 340 Q125 336 123.5 332 Q122 328 117 327 Q112 326 107.5 325.5 Q103 325 98 324 Q80 295 63.5 266.5 Q47 238 34 206 Q32 201 27.5 201.5 Q23 202 19 204.5 Q15 207 12.5 211.5 Q10 216 12 221 Q17 234 23 246.5 Q29 259 35 271 Q43 285 51 298 Q59 311 67 325 Q63 327 61 332 Q57 342 66 344 Q76 346 81 346 Q85 352 87 356 Q93 367 99.5 377.5 Q106 388 112 399 Q115 404 119 409.5 Q123 415 125 421 Q114 420 102.5 419.5 Q91 419 79 419 Q69 419 64 429 Q62 432 63 437 Q64 442 69 442 Q104 442 137 448 Z " />
<glyph glyph-name="eight" unicode="8" horiz-adv-x="184" d="M169 426 Q172 411 164.5 396.5 Q157 382 150 369 Q142 355 134 342.5 Q126 330 118 318 Q122 304 121 291 Q118 265 99 241 Q91 230 79 221 Q67 212 54 207 Q46 205 38.5 204.5 Q31 204 24 207 Q5 214 2 232 Q1 240 3.5 247 Q6 254 9 261 Q17 277 27 290 Q35 302 43.5 312.5 Q52 323 61 334 L72 346 Q60 369 74 395 Q81 408 92 418 Q103 428 115 436 Q121 440 128.5 443.5 Q136 447 143 447 Q153 448 160 441.5 Q167 435 169 426 Z M98 303 Q99 315 92 322 L92 323 L90 325 L81 316 Q59 293 41 264 Q37 257 33 249.5 Q29 242 26 234 Q26 230 25 228 Q26 227 28 227 L30 227 L31 227 Q39 228 45.5 231.5 Q52 235 58 239 Q67 246 77 257 Q85 266 91 278 Q97 290 98 303 Z M134 395 Q137 401 140.5 407.5 Q144 414 146 422 L145 422 Q141 421 137 418 Q126 412 115 402.5 Q104 393 97 381 Q94 378 94 375 Q91 369 90 362 Q89 355 93 349 Q95 346 99 342 Q99 342 101 340 Q120 369 134 395 Z " />
<glyph glyph-name="nine" unicode="9" horiz-adv-x="193" d="M165 425 Q169 423 172 418.5 Q175 414 173 409 Q168 389 163 368.5 Q158 348 151 328 Q145 311 138 294 Q131 277 123 260 Q116 245 106.5 231 Q97 217 81 209 Q66 201 49.5 205 Q33 209 23 225 Q15 239 16 254 Q17 269 25 281 Q28 285 33.5 283 Q39 281 42 279 Q45 275 46.5 271 Q48 267 46 263 Q40 252 40 239 Q40 237 40.5 236.5 Q41 236 41 234 Q41 233 41.5 232.5 Q42 232 42 231 L42 230 Q43 230 43.5 229 Q44 228 43 229 Q44 229 44 228 Q44 228 45 227 Q45 227 47 227 L48 227 Q50 226 53 227 Q58 227 63 230 Q74 234 83 246 Q93 257 99 271 Q105 285 111 299 L117 314 Q106 306 92 310 Q75 316 71.5 333 Q68 350 71 364 Q75 380 82.5 394 Q90 408 100 421 Q104 426 107.5 429.5 Q111 433 116 438 Q119 441 124 443 Q129 446 136 444 Q141 444 144 439 Q148 436 151 432 Q153 430 153 429 L154 428 Q154 428 155 428 Q160 428 165 425 Z M104 339 Q136 369 148 414 Q143 414 137 420 Q119 402 108 383 Q95 363 93 340 Q93 335 94 332 Q95 332 95 333 Q99 334 104 339 Z " />
<glyph glyph-name="less" unicode="&#x3c;" horiz-adv-x="190" d="M103 338 Q107 340 112 337.5 Q117 335 120 331 Q123 327 123 322.5 Q123 318 119 316 Q107 310 95.5 304 Q84 298 72 292 L48 280 Q45 278 42.5 277 Q40 276 37 275 L31 272 Q33 269 37 265 Q39 262 41.5 259 Q44 256 47 253 Q53 246 59.5 240 Q66 234 73 228 Q76 225 78 220 Q80 215 77 212 Q73 208 68 209.5 Q63 211 60 214 Q51 222 42 231 Q33 240 25 250 L10 268 Q6 273 4.5 279.5 Q3 286 10 290 Q16 294 22 296.5 Q28 299 34 302 Q40 305 45.5 308 Q51 311 57 314 Q69 320 80.5 326 Q92 332 103 338 Z " />
<glyph glyph-name="greater" unicode="&#x3e;" horiz-adv-x="222" d="M121 282 Q125 279 126.5 273 Q128 267 123 264 Q110 257 97 250.5 Q84 244 71 236 Q64 233 58 229.5 Q52 226 45 223 Q40 220 34.5 217 Q29 214 24 210 Q20 206 15.5 207.5 Q11 209 8 212 Q5 215 2.5 220 Q0 225 4 228 Q14 236 27 243 Q34 247 40.5 250 Q47 253 53 257 Q64 262 74.5 268 Q85 274 96 279 Q85 289 74 298.5 Q63 308 51 317 Q48 319 46.5 324 Q45 329 48 333 Q52 337 56.5 335 Q61 333 64 330 Q79 319 93 306.5 Q107 294 121 282 Z " />
<glyph glyph-name="equal" unicode="&#x3d;" horiz-adv-x="213" d="M142 299 Q144 295 143 290.5 Q142 286 137 286 L28 286 Q17 286 12 296 Q10 300 11 304.5 Q12 309 17 309 L127 309 Q132 309 136 306.5 Q140 304 142 299 Z M115 270 Q125 270 130 260 Q132 256 131 251.5 Q130 247 125 247 L11 247 Q0 247 -5 257 Q-7 261 -5.5 265.5 Q-4 270 1 270 L115 270 Z " />
<glyph glyph-name="asciicircum" unicode="&#x5e;" horiz-adv-x="252" d="M257 706 Q269 698 266 683 Q264 676 263 670 Q262 664 260 657 Q257 643 254.5 630 Q252 617 254 603 Q254 598 249.5 597 Q245 596 241 597 Q232 602 230 612 Q229 628 231.5 643 Q234 658 238 673 Q238 674 238.5 675 Q239 676 239 677 Q234 673 230.5 669.5 Q227 666 223 662 L203 642 Q192 631 183 619.5 Q174 608 165 597 Q162 593 156.5 595 Q151 597 149 599 Q146 602 144.5 606.5 Q143 611 145 615 Q154 627 163.5 638.5 Q173 650 184 661 Q193 670 201.5 679 Q210 688 220 696 Q228 702 238 707 Q248 712 257 706 Z " />
<glyph glyph-name="underscore" unicode="&#x5f;" horiz-adv-x="305" d="M203 217 Q205 214 203.5 209 Q202 204 197 204 L2 204 Q-8 204 -13 215 Q-15 218 -14 222.5 Q-13 227 -8 227 L187 227 Q198 227 203 217 Z " />
<glyph glyph-name="a" unicode="a" horiz-adv-x="111" d="M129 333 Q131 328 128 321 Q126 318 118.5 308 Q111 298 101.5 286.5 Q92 275 83.5 264.5 Q75 254 72 250 Q69 246 66 243 Q63 240 60 236 Q56 232 52 227.5 Q48 223 43 221 Q30 216 21 224 Q19 226 18 226 L18 227 L17 228 Q14 232 13.5 237.5 Q13 243 13 246 L13 248 Q13 254 13 260 Q13 266 14 272 L2 260 Q-3 255 -8 251 Q-13 247 -21 248 Q-29 249 -35.5 255.5 Q-42 262 -44 270 Q-46 277 -43.5 284 Q-41 291 -37 297 Q-31 309 -21 319 Q-13 331 -1 338 Q7 343 14.5 337 Q22 331 25 324 Q28 325 31 324 Q34 323 38 321 Q41 318 42 316 L43 315 Q44 313 43 305.5 Q42 298 42 297 Q41 295 41 292.5 Q41 290 40 288 Q39 283 38.5 278 Q38 273 38 268 Q37 263 37 259.5 Q37 256 37 251 Q39 253 40 254.5 Q41 256 43 258 Q49 264 54.5 270.5 Q60 277 65 284 Q76 298 88 310.5 Q100 323 111 336 Q115 341 120 339 Q125 337 129 333 Z M-3 293 Q2 298 5.5 302.5 Q9 307 14 312 Q13 312 12.5 312.5 Q12 313 11 313 Q11 313 9 312 L3 306 Q0 303 -3 299.5 Q-6 296 -9 292 Q-12 288 -16 280 L-3 293 Z " />
<glyph glyph-name="b" unicode="b" horiz-adv-x="126" d="M146 648 Q154 642 151 634 Q143 613 134 592 Q125 571 116 550 Q100 513 84.5 476.5 Q69 440 54 402 Q46 383 38.5 364.5 Q31 346 23 328 Q23 327 22 327 Q31 334 41.5 338 Q52 342 63 336 Q76 328 78 311 Q90 319 101.5 325.5 Q113 332 126 338 Q131 341 139 335 Q140 334 142 331 Q144 328 141 325 L69 274 Q54 247 29 227 Q4 207 -26 199 Q-37 196 -42.5 197.5 Q-48 199 -49 200 Q-53 204 -53 207 Q-54 213 -50.5 217 Q-47 221 -46 223 L-45 223 Q-43 225 -43 226 Q-40 228 -37.5 230 Q-35 232 -33 234 L-12 249 Q10 267 32 281 Q36 284 40 286.5 Q44 289 49 292 Q51 297 53 302.5 Q55 308 55 314 L55 315 Q54 315 53 314.5 Q52 314 51 314 Q49 312 47 311.5 Q45 311 43 309 Q41 307 38 304.5 Q35 302 31 300 Q8 283 -12 258 Q-16 254 -20 256 Q-25 257 -28 261 Q-30 262 -32 266 Q-35 271 -32 277 Q-21 295 -12 314.5 Q-3 334 6 354 Q22 391 36.5 427.5 Q51 464 66 501 Q81 536 96.5 570.5 Q112 605 126 640 Q130 650 136 652 Q139 653 145 649 L146 648 Z " />
<glyph glyph-name="c" unicode="c" horiz-adv-x="106" d="M17 234 Q9 229 1.5 224 Q-6 219 -15 217 Q-26 214 -35 220.5 Q-44 227 -46 238 Q-48 246 -46 256 Q-44 266 -41 274 Q-37 289 -27 307 Q-22 315 -16.5 322.5 Q-11 330 -4 336 Q4 343 13.5 345.5 Q23 348 32 342 Q41 336 43 326.5 Q45 317 43 307 Q41 302 36 302.5 Q31 303 28 305 Q24 307 21.5 311.5 Q19 316 20 321 Q20 321 18 320 Q12 315 7 308 Q2 301 -3 295 Q-18 270 -23 243 L-23 240 Q-16 243 -10 247.5 Q-4 252 2 256 Q58 295 106 337 Q109 340 113 339 Q117 338 120 336 Q122 335 124 331.5 Q126 328 122 323 Q120 320 107 308.5 Q94 297 77.5 283 Q61 269 44 255 Q27 241 17 234 Z " />
</font>
</svg>
